<svg width="90" height="42" viewBox="0 0 90 42" fill="none" xmlns="http://www.w3.org/2000/svg">
<path d="M1.66877 22.1402C1.31331 22.0663 1.03394 21.9649 0.831839 21.8349C0.62855 21.7038 0.506101 21.4987 0.465681 21.2197C0.433582 21.0003 0.409806 20.6879 0.394351 20.2801C0.381274 19.8735 0.376519 19.3203 0.380085 18.6203C0.386029 17.9216 0.394351 17.0405 0.403862 15.9781C0.394351 15.3426 0.370574 14.6987 0.332532 14.0465C0.296867 13.3954 0.275468 12.7492 0.265958 12.1101C0.252881 11.4877 0.257636 10.9559 0.280224 10.5171C0.301623 10.0783 0.39554 9.77663 0.560787 9.61089C0.724845 9.44277 0.955477 9.3283 1.25031 9.26749C1.54751 9.2043 1.85542 9.17687 2.17284 9.18641C2.49263 9.19595 2.76725 9.24365 2.99551 9.3295C3.20117 9.40342 3.38187 9.52862 3.53761 9.70628C3.69572 9.88156 3.8051 10.12 3.86573 10.4217C3.90971 10.6196 3.92398 10.8271 3.90852 11.0465C3.89188 11.2659 3.8895 11.49 3.89901 11.719C3.92041 12.1077 3.93706 12.4797 3.94657 12.835C3.95608 13.188 3.96559 13.5266 3.9751 13.8509C4.18433 13.7341 4.42329 13.6494 4.69315 13.5981C4.96539 13.5481 5.22099 13.5218 5.45876 13.5218C6.48828 13.5218 7.28955 13.9177 7.86019 14.7094C8.22397 15.2221 8.49502 15.9053 8.67334 16.7603C8.85048 17.6164 8.93964 18.5536 8.93964 19.5742C8.93964 20.013 8.92062 20.3755 8.88258 20.6617C8.84691 20.9478 8.71376 21.1958 8.48313 21.4057C8.24537 21.6346 7.9434 21.7491 7.57962 21.7491C7.21465 21.7491 6.90912 21.6024 6.66185 21.3103C6.52513 21.1553 6.43359 21.0039 6.38604 20.8572C6.33849 20.7117 6.31709 20.54 6.32422 20.3421C6.33016 20.1454 6.33373 19.8938 6.33373 19.5885C6.33373 19.2261 6.32184 18.8707 6.30044 18.5202C6.28142 18.1708 6.24457 17.7881 6.19107 17.3708C6.14946 16.951 6.0603 16.6386 5.92477 16.4312C5.79163 16.2213 5.63589 16.1164 5.45876 16.1164C5.07476 16.1164 4.75259 16.3203 4.49343 16.7269C4.23307 17.1347 4.10349 17.8024 4.10349 18.73C4.10349 19.4717 4.0809 20.0249 4.03692 20.3898C3.99531 20.7559 3.93349 21.042 3.85146 21.2483C3.70523 21.6322 3.41873 21.9017 2.99075 22.0543C2.56515 22.207 2.12528 22.2356 1.66877 22.1402Z" fill="#F08F3A"/>
<path d="M16.0185 21.7348C15.8818 21.693 15.7356 21.6036 15.581 21.4677C15.4253 21.3306 15.3361 21.1386 15.3147 20.8906L15.3005 20.7332C14.4374 21.0992 13.6528 21.2399 12.9466 21.1577C12.2392 21.0718 11.6317 20.8179 11.1253 20.3946C10.6212 19.9725 10.2503 19.4383 10.0126 18.792C9.86634 18.3854 9.83186 18.0182 9.90795 17.6903C9.98641 17.3636 10.1374 17.0727 10.3597 16.8175C10.5844 16.5599 10.84 16.3429 11.1253 16.1641C11.413 15.9864 11.6924 15.8517 11.9622 15.7587C12.2309 15.6633 12.4544 15.6061 12.6327 15.587C13.0702 15.5464 13.415 15.5202 13.6694 15.5107C13.9262 15.4987 14.1449 15.4952 14.3256 15.5011C14.5063 15.5047 14.7013 15.5131 14.9105 15.525C14.9926 15.525 15.0247 15.4892 15.0056 15.4153C14.9105 15.1327 14.7893 14.8895 14.6442 14.6856C14.498 14.4829 14.3066 14.3279 14.0688 14.2229C13.8275 14.118 13.6385 14.0798 13.503 14.1085C13.3698 14.1347 13.2581 14.1967 13.1701 14.2945C13.0809 14.3934 12.9953 14.5067 12.9133 14.6331C12.8301 14.7571 12.7255 14.8608 12.5995 14.9431C12.4758 15.0266 12.3094 15.0623 12.1001 15.0528C11.9444 15.0528 11.7649 15.017 11.5628 14.9431C11.3595 14.8704 11.1824 14.7559 11.0302 14.5997C10.8804 14.4447 10.8019 14.2396 10.7924 13.9845C10.7829 13.7269 10.8923 13.4157 11.1206 13.0496C11.2846 12.7897 11.5462 12.5429 11.9052 12.3104C12.2666 12.0755 12.6851 11.8883 13.1606 11.7476C13.6385 11.6045 14.1354 11.5449 14.649 11.5664C15.1649 11.5854 15.6678 11.7166 16.1564 11.9574C16.6474 12.1959 17.0813 12.5763 17.4594 13.0973C17.8398 13.6196 18.1227 14.3231 18.3106 15.2102C18.5602 16.368 18.7195 17.3159 18.7861 18.0528C18.8527 18.7873 18.8622 19.3739 18.8146 19.8127C18.7695 20.2491 18.6922 20.5842 18.5816 20.819C18.4735 21.0551 18.3676 21.2447 18.263 21.3914C18.1489 21.5559 17.885 21.6883 17.4736 21.7872C17.0647 21.885 16.5796 21.8683 16.0185 21.7348ZM13.4269 17.6045C13.094 17.6462 12.8574 17.7356 12.7183 17.8715C12.5781 18.0051 12.5186 18.1565 12.5376 18.3246C12.559 18.4904 12.6482 18.6299 12.8039 18.7443C12.9585 18.8588 13.1725 18.916 13.4459 18.916C13.9119 18.9065 14.2662 18.8803 14.5111 18.835C14.7548 18.7873 14.9557 18.7324 15.115 18.668C15.2066 18.6144 15.2529 18.5369 15.2529 18.4343V17.9812C15.2529 17.8548 15.2363 17.7857 15.2054 17.7761C15.0722 17.7034 14.8749 17.6414 14.6157 17.5901C14.3554 17.5365 13.9595 17.5413 13.4269 17.6045Z" fill="#F08F3A"/>
<path d="M22.6934 23.1895C22.452 23.2622 22.162 23.3039 21.8232 23.3135C21.4867 23.323 21.1622 23.2956 20.8483 23.2324C20.5368 23.1716 20.2943 23.0678 20.1208 22.9224C19.9329 22.7662 19.8283 22.4788 19.8069 22.0591C19.7843 21.6418 19.7796 21.1434 19.7926 20.5615C19.8021 19.9582 19.8235 19.3501 19.8592 18.7396C19.8973 18.1291 19.921 17.521 19.9305 16.9129C19.921 15.9018 19.9127 15.0707 19.9068 14.4185C19.9032 13.7675 19.9115 13.2488 19.9305 12.8636C19.9519 12.4797 19.9793 12.1864 20.0114 11.9861C20.0613 11.7166 20.1933 11.5187 20.4061 11.3947C20.6213 11.2683 20.9161 11.1741 21.2906 11.1133C21.7471 11.0274 22.1857 11.0489 22.6078 11.1753C23.0286 11.2993 23.3377 11.5127 23.5351 11.8144C24.7393 11.5032 25.7392 11.502 26.5357 11.8096C27.331 12.1148 27.9076 12.649 28.2666 13.4121C28.628 14.1729 28.7516 15.085 28.6375 16.1498C28.5733 16.7221 28.4009 17.1836 28.1192 17.5329C27.8398 17.8835 27.4974 18.1517 27.092 18.3389C26.6855 18.5273 26.2646 18.6525 25.8271 18.7157C25.3896 18.7765 24.9831 18.8004 24.6098 18.7873C24.2353 18.7718 23.9452 18.742 23.7395 18.6967C23.7265 19.0305 23.7158 19.3835 23.7063 19.7555C23.6967 20.1251 23.6801 20.5186 23.6587 20.9383C23.6492 21.1458 23.6492 21.3508 23.6587 21.5583C23.6682 21.7682 23.6587 21.9661 23.6302 22.1545C23.566 22.4371 23.4507 22.6612 23.283 22.827C23.1178 22.9951 22.9216 23.1155 22.6934 23.1895ZM23.8156 16.2881C24.5123 16.362 25.033 16.3477 25.3754 16.2452C25.7178 16.1402 25.9424 15.9733 26.0506 15.7444C26.1612 15.5131 26.1957 15.2615 26.1552 14.9908C26.1231 14.7213 25.9769 14.5174 25.7178 14.3803C25.4574 14.2444 25.1566 14.1609 24.8142 14.1323C24.4719 14.1013 24.1544 14.1156 23.8632 14.1752C23.8632 14.7094 23.8465 15.4141 23.8156 16.2881Z" fill="#F08F3A"/>
<path d="M32.5191 23.1895C32.2778 23.2622 31.9877 23.3039 31.6489 23.3135C31.3124 23.323 30.9879 23.2956 30.674 23.2324C30.3626 23.1716 30.1201 23.0678 29.9465 22.9224C29.7586 22.7662 29.654 22.4788 29.6326 22.0591C29.61 21.6418 29.6053 21.1434 29.6184 20.5615C29.6279 19.9582 29.6493 19.3501 29.6849 18.7396C29.723 18.1291 29.7468 17.521 29.7563 16.9129C29.7468 15.9018 29.7384 15.0707 29.7325 14.4185C29.7289 13.7675 29.7373 13.2488 29.7563 12.8636C29.7777 12.4797 29.805 12.1864 29.8371 11.9861C29.887 11.7166 30.019 11.5187 30.2318 11.3947C30.447 11.2683 30.7418 11.1741 31.1163 11.1133C31.5728 11.0274 32.0115 11.0489 32.4335 11.1753C32.8544 11.2993 33.1634 11.5127 33.3608 11.8144C34.5651 11.5032 35.5649 11.502 36.3614 11.8096C37.1567 12.1148 37.7333 12.649 38.0923 13.4121C38.4537 14.1729 38.5774 15.085 38.4632 16.1498C38.399 16.7221 38.2267 17.1836 37.9449 17.5329C37.6655 17.8835 37.3232 18.1517 36.9178 18.3389C36.5112 18.5273 36.0903 18.6525 35.6529 18.7157C35.2154 18.7765 34.8088 18.8004 34.4355 18.7873C34.061 18.7718 33.7709 18.742 33.5653 18.6967C33.5522 19.0305 33.5415 19.3835 33.532 19.7555C33.5225 20.1251 33.5058 20.5186 33.4844 20.9383C33.4749 21.1458 33.4749 21.3508 33.4844 21.5583C33.4939 21.7682 33.4844 21.9661 33.4559 22.1545C33.3917 22.4371 33.2764 22.6612 33.1088 22.827C32.9435 22.9951 32.7474 23.1155 32.5191 23.1895ZM33.6414 16.2881C34.338 16.362 34.8587 16.3477 35.2011 16.2452C35.5435 16.1402 35.7682 15.9733 35.8764 15.7444C35.9869 15.5131 36.0214 15.2615 35.981 14.9908C35.9489 14.7213 35.8026 14.5174 35.5435 14.3803C35.2831 14.2444 34.9824 14.1609 34.64 14.1323C34.2976 14.1013 33.9802 14.1156 33.6889 14.1752C33.6889 14.7094 33.6723 15.4141 33.6414 16.2881Z" fill="#F08F3A"/>
<path d="M41.2844 24.1576C41.0431 23.9919 40.8005 23.7785 40.5568 23.5185C40.3119 23.2574 40.1063 22.9772 39.9386 22.6791C39.7734 22.3834 39.6914 22.1044 39.6914 21.8445C39.7009 21.6024 39.7936 21.358 39.9719 21.11C40.1491 20.8596 40.3785 20.6652 40.6614 20.5281C41.0038 20.3636 41.2892 20.3171 41.5174 20.3898C41.7457 20.4637 41.9454 20.602 42.1166 20.8047C42.2878 21.0086 42.4518 21.2245 42.6111 21.4534C42.7657 21.6501 42.9167 21.7085 43.0629 21.6299C43.2079 21.5535 43.3268 21.4462 43.4195 21.3103C43.5551 21.104 43.6727 20.8179 43.7714 20.4518C43.8689 20.0869 43.8927 19.6637 43.8428 19.1831C43.6739 19.3203 43.4861 19.4216 43.2769 19.4884C43.07 19.5552 42.8846 19.5885 42.7205 19.5885C41.836 19.5885 41.1227 19.3787 40.5806 18.959C40.0409 18.5369 39.708 17.9073 39.582 17.0703C39.4774 16.393 39.4215 15.7778 39.4156 15.2245C39.412 14.6713 39.4584 14.0834 39.5535 13.4598C39.6034 13.095 39.7318 12.7969 39.9386 12.5679C40.1479 12.3366 40.4344 12.2198 40.7994 12.2198C41.0811 12.2198 41.3569 12.2317 41.6268 12.2532C41.8955 12.2758 42.1332 12.339 42.3401 12.4439C42.5493 12.5465 42.7074 12.7146 42.8156 12.9495C42.9262 13.1856 42.9606 13.5218 42.9202 13.9606C42.9107 14.0632 42.8929 14.2265 42.8679 14.4519C42.8418 14.6748 42.818 14.899 42.7966 15.1244C42.774 15.3473 42.7585 15.5178 42.749 15.6347C42.7395 16.0198 42.7799 16.3668 42.8727 16.6744C42.9678 16.9797 43.1342 17.1323 43.372 17.1323C43.6216 17.1323 43.7679 17.0214 43.8095 16.7984C43.8499 16.5731 43.8974 16.2356 43.9521 15.7873C44.0021 15.3616 44.0294 14.9217 44.033 14.4662C44.0389 14.0119 44.0484 13.6768 44.0615 13.4598C44.0805 13.0818 44.1863 12.7921 44.3801 12.5918C44.5727 12.3891 44.7772 12.2865 44.9935 12.2865C45.5035 12.2865 45.9826 12.3438 46.4296 12.4582C46.8766 12.5727 47.1727 12.8112 47.3189 13.1737C47.5471 13.6768 47.6042 14.7571 47.4901 16.4169C47.4294 17.4471 47.3641 18.3819 47.2951 19.2213C47.2285 20.0607 47.1215 20.8071 46.9765 21.4582C46.8303 22.1092 46.6068 22.666 46.306 23.1275C45.9315 23.6998 45.4524 24.1243 44.8699 24.4009C44.2898 24.6775 43.6811 24.7968 43.0439 24.7586C42.409 24.7228 41.8229 24.5225 41.2844 24.1576Z" fill="#F08F3A"/>
<path d="M3.94657 38.4172C3.28082 38.2837 2.6876 38.019 2.16808 37.6207C1.64738 37.2237 1.22296 36.736 0.893659 36.1565C0.566732 35.5782 0.362253 34.9487 0.280224 34.2678C0.197006 33.5846 0.258825 32.8978 0.465681 32.2074C0.684425 31.4896 1.02205 30.872 1.47856 30.3569C1.93745 29.8394 2.46529 29.4245 3.06208 29.1121C3.66125 28.7973 4.28538 28.5898 4.93567 28.4873C5.58477 28.3824 6.21604 28.3871 6.82828 28.5016C7.44291 28.6161 7.99096 28.8438 8.47362 29.1836C8.95866 29.5211 9.33552 29.9742 9.60539 30.5429C9.87763 31.1129 9.99294 31.7973 9.95252 32.5985C9.92994 32.9419 9.78133 33.2424 9.50552 33.5C9.22972 33.7551 8.87307 33.9709 8.43558 34.1486C8.00047 34.3274 7.52375 34.4634 7.00423 34.5588C6.48353 34.6518 5.96044 34.7102 5.43498 34.7352C4.90833 34.7615 4.4328 34.7579 4.00839 34.7257C4.20454 35.2885 4.46965 35.6593 4.80252 35.837C5.13539 36.0158 5.51701 36.0683 5.94855 35.9944C6.37891 35.9216 6.82947 35.7869 7.29906 35.589C7.69494 35.3791 8.01949 35.3016 8.2739 35.3553C8.52712 35.4065 8.78391 35.6152 9.04426 35.9801C9.22139 36.209 9.29748 36.4701 9.27251 36.7622C9.24636 37.0556 9.12034 37.3048 8.89209 37.511C8.59964 37.7817 8.24299 37.9963 7.82214 38.1549C7.40011 38.3111 6.95787 38.4184 6.49541 38.4792C6.03177 38.5424 5.57764 38.5663 5.13064 38.5508C4.68364 38.5341 4.28895 38.49 3.94657 38.4172ZM4.00839 32.8036C4.00839 32.8036 4.12489 32.8084 4.36028 32.8179C4.59448 32.8275 4.88455 32.8322 5.2305 32.8322C5.57883 32.8322 5.92953 32.8155 6.28142 32.7798C6.6357 32.7416 6.93052 32.6772 7.16591 32.5842C7.40011 32.4888 7.51781 32.3541 7.51781 32.1788C7.51781 31.845 7.40011 31.5898 7.16591 31.4109C6.93052 31.2333 6.63926 31.1284 6.29094 31.0962C5.94499 31.0652 5.59428 31.1081 5.24001 31.2249C4.88812 31.3394 4.59448 31.5302 4.36028 31.7973C4.12489 32.062 4.00839 32.397 4.00839 32.8036Z" fill="#F08F3A"/>
<path d="M15.5201 38.5746C15.1016 38.5746 14.6844 38.4053 14.2695 38.0691C13.8534 37.7292 13.4611 37.2809 13.0901 36.7241C12.7216 36.1649 12.3875 35.5544 12.0868 34.8926C11.7848 34.2285 11.5352 33.5691 11.3354 32.9133C11.1381 32.2551 11.0097 31.6661 10.9502 31.1439C10.9051 30.7909 10.8884 30.4976 10.8979 30.2615C10.9098 30.0266 11.0216 29.8406 11.2308 29.7035C11.4044 29.589 11.6172 29.4817 11.868 29.3792C12.1177 29.2742 12.3733 29.2015 12.6336 29.1598C12.8928 29.1157 13.1258 29.13 13.3327 29.2027C13.5419 29.2766 13.6941 29.4436 13.7892 29.7035C13.8296 29.818 13.8867 29.9932 13.9604 30.2281C14.0329 30.4642 14.1078 30.7182 14.1839 30.9912C14.2623 31.2619 14.3408 31.523 14.4169 31.7734C14.4953 32.0214 14.556 32.2241 14.5976 32.3791C14.6927 32.682 14.7902 33.0111 14.8924 33.3664C14.997 33.7193 15.1064 34.0198 15.2205 34.2678C15.3346 34.5135 15.4595 34.6351 15.5962 34.6351C15.8054 34.6351 15.9552 34.4371 16.0479 34.0389C16.193 33.4666 16.3261 32.9074 16.4474 32.3601C16.5675 31.8104 16.6923 31.3179 16.8231 30.8815C16.9526 30.4428 17.1048 30.0934 17.2796 29.8323C17.4567 29.5723 17.6707 29.4412 17.9215 29.4412C18.2639 29.4412 18.5778 29.4781 18.8631 29.5509C19.1484 29.6212 19.3683 29.7774 19.5241 30.0183C19.6822 30.2567 19.7452 30.6228 19.7143 31.1152C19.6822 31.6053 19.5157 32.2623 19.215 33.085C18.8179 34.1796 18.4506 35.1394 18.1117 35.9658C17.7753 36.7897 17.4044 37.43 16.999 37.8878C16.5924 38.3457 16.1002 38.5746 15.5201 38.5746Z" fill="#F08F3A"/>
<path d="M24.3466 38.4172C23.6809 38.2837 23.0877 38.019 22.5682 37.6207C22.0475 37.2237 21.623 36.736 21.2937 36.1565C20.9668 35.5782 20.7623 34.9487 20.6803 34.2678C20.5971 33.5846 20.6589 32.8978 20.8658 32.2074C21.0845 31.4896 21.4221 30.872 21.8786 30.3569C22.3375 29.8394 22.8654 29.4245 23.4622 29.1121C24.0613 28.7973 24.6855 28.5898 25.3358 28.4873C25.9848 28.3824 26.6161 28.3871 27.2284 28.5016C27.843 28.6161 28.391 28.8438 28.8737 29.1836C29.3587 29.5211 29.7356 29.9742 30.0055 30.5429C30.2777 31.1129 30.393 31.7973 30.3526 32.5985C30.33 32.9419 30.1814 33.2424 29.9056 33.5C29.6298 33.7551 29.2731 33.9709 28.8357 34.1486C28.4005 34.3274 27.9238 34.4634 27.4043 34.5588C26.8836 34.6518 26.3605 34.7102 25.8351 34.7352C25.3084 34.7615 24.8329 34.7579 24.4085 34.7257C24.6046 35.2885 24.8697 35.6593 25.2026 35.837C25.5355 36.0158 25.9171 36.0683 26.3486 35.9944C26.779 35.9216 27.2296 35.7869 27.6991 35.589C28.095 35.3791 28.4196 35.3016 28.674 35.3553C28.9272 35.4065 29.184 35.6152 29.4443 35.9801C29.6215 36.209 29.6976 36.4701 29.6726 36.7622C29.6464 37.0556 29.5204 37.3048 29.2922 37.511C28.9997 37.7817 28.6431 37.9963 28.2222 38.1549C27.8002 38.3111 27.3579 38.4184 26.8955 38.4792C26.4318 38.5424 25.9777 38.5663 25.5307 38.5508C25.0837 38.5341 24.689 38.49 24.3466 38.4172ZM24.4085 32.8036C24.4085 32.8036 24.525 32.8084 24.7604 32.8179C24.9946 32.8275 25.2846 32.8322 25.6306 32.8322C25.9789 32.8322 26.3296 32.8155 26.6815 32.7798C27.0358 32.7416 27.3306 32.6772 27.566 32.5842C27.8002 32.4888 27.9179 32.3541 27.9179 32.1788C27.9179 31.845 27.8002 31.5898 27.566 31.4109C27.3306 31.2333 27.0393 31.1284 26.691 31.0962C26.3451 31.0652 25.9944 31.1081 25.6401 31.2249C25.2882 31.3394 24.9946 31.5302 24.7604 31.7973C24.525 32.062 24.4085 32.397 24.4085 32.8036Z" fill="#F08F3A"/>
<path d="M32.8435 38.4983C32.4916 38.4435 32.211 38.3517 32.0018 38.2217C31.795 38.0917 31.6654 37.8914 31.6119 37.6207C31.5798 37.4013 31.556 37.0889 31.5405 36.6812C31.5275 36.2746 31.5096 35.7225 31.4882 35.0262C31.4656 34.3274 31.4288 33.4451 31.3789 32.3791C31.3598 31.8998 31.3361 31.4861 31.3075 31.1391C31.2814 30.7897 31.2861 30.4893 31.3218 30.2377C31.3598 29.9873 31.4621 29.7726 31.6309 29.5938C31.7854 29.4292 32.0232 29.31 32.3442 29.2361C32.6676 29.1634 33.0028 29.1312 33.3523 29.1407C33.7006 29.1502 34.0097 29.2063 34.2796 29.3076C34.5518 29.4066 34.7088 29.5497 34.7504 29.7369C34.937 29.5914 35.0975 29.4793 35.2307 29.403C35.3662 29.3243 35.5172 29.2683 35.6824 29.2361C35.85 29.2051 36.064 29.1884 36.3244 29.1884C36.7619 29.1884 37.1875 29.3195 37.6036 29.5795C38.0185 29.8406 38.3799 30.19 38.6878 30.6288C38.9945 31.0675 39.2025 31.5564 39.3107 32.093C39.4213 32.6271 39.3832 33.1661 39.1966 33.7098C39.1419 33.866 39.0064 33.9864 38.7876 34.0723C38.5689 34.1558 38.3287 34.1999 38.0696 34.2058C37.8092 34.2094 37.5822 34.1701 37.3896 34.0866C37.1994 34.0043 37.0995 33.8744 37.09 33.6955L36.8855 32.8799C36.8439 32.7154 36.7714 32.5842 36.6668 32.4888C36.6156 32.4388 36.5479 32.403 36.4623 32.3839C36.3791 32.3624 36.2923 32.3505 36.2007 32.3505H36.1532C35.7656 32.3601 35.497 32.5735 35.3448 32.9896C35.195 33.407 35.1367 34.0794 35.1688 35.0071C35.1902 35.7487 35.1879 36.302 35.1593 36.6669C35.1332 37.0329 35.0797 37.3191 34.9977 37.5254C34.8609 37.9141 34.5851 38.1907 34.1702 38.3552C33.7541 38.5234 33.3119 38.571 32.8435 38.4983Z" fill="#F08F3A"/>
<path d="M42.1422 41.3123C41.9009 41.1465 41.6583 40.9331 41.4146 40.6732C41.1697 40.4121 40.9641 40.1318 40.7964 39.8338C40.6312 39.5381 40.5492 39.259 40.5492 38.9991C40.5587 38.7571 40.6514 38.5126 40.8297 38.2646C41.0069 38.0142 41.2363 37.8199 41.5193 37.6827C41.8616 37.5182 42.147 37.4717 42.3752 37.5444C42.6035 37.6184 42.8032 37.7567 42.9744 37.9594C43.1456 38.1633 43.3096 38.3791 43.4689 38.608C43.6235 38.8048 43.7745 38.8632 43.9207 38.7845C44.0657 38.7082 44.1846 38.6009 44.2773 38.4649C44.4129 38.2587 44.5306 37.9725 44.6292 37.6064C44.7267 37.2416 44.7505 36.8183 44.7006 36.3378C44.5317 36.4749 44.3439 36.5762 44.1347 36.643C43.9278 36.7098 43.7424 36.7432 43.5783 36.7432C42.6938 36.7432 41.9805 36.5333 41.4384 36.1136C40.8987 35.6915 40.5658 35.0619 40.4398 34.2249C40.3352 33.5477 40.2793 32.9324 40.2734 32.3791C40.2698 31.8259 40.3162 31.2381 40.4113 30.6145C40.4612 30.2496 40.5896 29.9515 40.7964 29.7226C41.0057 29.4913 41.2922 29.3744 41.6572 29.3744C41.9389 29.3744 42.2147 29.3863 42.4846 29.4078C42.7533 29.4304 42.991 29.4936 43.1979 29.5986C43.4071 29.7011 43.5652 29.8692 43.6734 30.1041C43.784 30.3402 43.8184 30.6765 43.778 31.1152C43.7685 31.2178 43.7507 31.3811 43.7257 31.6065C43.6996 31.8295 43.6758 32.0536 43.6544 32.279C43.6318 32.502 43.6163 32.6725 43.6068 32.7893C43.5973 33.1744 43.6377 33.5214 43.7305 33.829C43.8256 34.1343 43.992 34.2869 44.2298 34.2869C44.4794 34.2869 44.6257 34.176 44.6673 33.9531C44.7077 33.7277 44.7552 33.3903 44.8099 32.9419C44.8599 32.5163 44.8872 32.0763 44.8908 31.6208C44.8967 31.1665 44.9062 30.8315 44.9193 30.6145C44.9383 30.2365 45.0441 29.9467 45.2379 29.7464C45.4305 29.5437 45.635 29.4412 45.8513 29.4412C46.3613 29.4412 46.8404 29.4984 47.2874 29.6129C47.7344 29.7273 48.0305 29.9658 48.1767 30.3283C48.4049 30.8315 48.462 31.9117 48.3479 33.5715C48.2872 34.6017 48.2219 35.5365 48.1529 36.3759C48.0863 37.2153 47.9793 37.9618 47.8343 38.6128C47.6881 39.2638 47.4646 39.8206 47.1638 40.2821C46.7893 40.8544 46.3102 41.2789 45.7277 41.5555C45.1476 41.8321 44.5389 41.9514 43.9017 41.9132C43.2668 41.8775 42.6807 41.6771 42.1422 41.3123Z" fill="#F08F3A"/>
<path d="M55.1982 39.1231C54.6335 39.1231 54.0866 39.054 53.5576 38.918C53.0274 38.7845 52.5494 38.5377 52.1215 38.1788C51.6959 37.8163 51.3559 37.3048 51.0991 36.643C50.8447 35.9824 50.7091 35.1299 50.6901 34.0866C50.6901 33.8577 50.6913 33.593 50.6949 33.2901C50.7008 32.9849 50.7091 32.6403 50.7187 32.2551H50.7044C50.3394 32.2551 50.0434 32.1574 49.8152 31.9594C49.5013 31.6864 49.3444 31.3418 49.3444 30.9245C49.3444 30.5715 49.4537 30.2949 49.6725 30.0946C49.9317 29.8561 50.2645 29.7369 50.6711 29.7369H50.8138C50.8233 29.5401 50.8328 29.3351 50.8423 29.1216C50.8542 28.9058 50.8661 28.6828 50.8756 28.4539C50.8851 28.2762 50.8851 28.1045 50.8756 27.9388C50.8661 27.7707 50.8756 27.6133 50.9041 27.4666C50.9576 27.2472 51.0587 27.0708 51.2085 26.9372C51.3606 26.8013 51.5342 26.7071 51.7315 26.6558C51.9503 26.5926 52.213 26.5485 52.5209 26.5223C52.8276 26.4972 53.1165 26.5211 53.3864 26.5938C53.6551 26.6642 53.8477 26.8084 53.9618 27.0278C54.0569 27.2067 54.0973 27.4619 54.0854 27.7957C54.0759 28.1296 54.0616 28.5326 54.0426 29.0024C54.0295 29.1264 54.0236 29.2528 54.0236 29.3792C54.0236 29.5032 54.0188 29.6224 54.0093 29.7369H54.2899C54.7488 29.7369 55.0935 29.868 55.3218 30.128C55.5501 30.3891 55.6642 30.6753 55.6642 30.9865C55.6642 31.1331 55.6428 31.275 55.6024 31.4109C55.5191 31.6911 55.4098 31.8831 55.2742 31.988C55.128 32.1252 54.9568 32.1979 54.7607 32.2074C54.5609 32.2396 54.347 32.2551 54.1187 32.2551H53.9333C53.9107 33.1744 53.9249 33.9423 53.976 34.5588C54.0295 35.1728 54.1674 35.6367 54.3898 35.9514C54.6144 36.2638 54.9616 36.4188 55.4312 36.4188C55.6047 36.4188 55.7462 36.5095 55.8544 36.6907C55.965 36.8719 56.0327 37.0961 56.0589 37.3632C56.0874 37.6303 56.0743 37.8997 56.0208 38.1692C55.9697 38.4387 55.8734 38.6652 55.7308 38.8465C55.5905 39.0301 55.4133 39.1231 55.1982 39.1231Z" fill="#F08F3A"/>
<path d="M58.424 39.2948C58.0686 39.2209 57.7892 39.1195 57.5871 38.9896C57.3838 38.8584 57.2614 38.6533 57.2209 38.3743C57.1888 38.1549 57.1651 37.8425 57.1496 37.4347C57.1365 37.0281 57.1318 36.4749 57.1353 35.775C57.1413 35.0762 57.1496 34.1951 57.1591 33.1327C57.1496 32.4972 57.1258 31.8533 57.0878 31.2011C57.0521 30.5501 57.0307 29.9038 57.0212 29.2647C57.0081 28.6423 57.0129 28.1105 57.0355 27.6717C57.0569 27.2329 57.1508 26.9313 57.3161 26.7655C57.4801 26.5974 57.7107 26.4829 58.0056 26.4221C58.3028 26.3589 58.6107 26.3315 58.9281 26.341C59.2479 26.3506 59.5225 26.3983 59.7508 26.4841C59.9564 26.5581 60.1371 26.6833 60.2929 26.8609C60.451 27.0362 60.5604 27.2747 60.621 27.5763C60.665 27.7743 60.6792 27.9817 60.6638 28.2011C60.6471 28.4205 60.6448 28.6447 60.6543 28.8736C60.6757 29.2623 60.6923 29.6343 60.7018 29.9897C60.7113 30.3426 60.7209 30.6812 60.7304 31.0055C60.9396 30.8887 61.1786 30.804 61.4484 30.7528C61.7207 30.7027 61.9763 30.6765 62.214 30.6765C63.2435 30.6765 64.0448 31.0723 64.6155 31.864C64.9792 32.3768 65.2503 33.06 65.4286 33.9149C65.6057 34.771 65.6949 35.7082 65.6949 36.7289C65.6949 37.1676 65.6759 37.5301 65.6378 37.8163C65.6022 38.1025 65.469 38.3505 65.2384 38.5603C65.0006 38.7892 64.6987 38.9037 64.3349 38.9037C63.9699 38.9037 63.6644 38.7571 63.4171 38.4649C63.2804 38.3099 63.1889 38.1585 63.1413 38.0118C63.0938 37.8664 63.0724 37.6947 63.0795 37.4967C63.0854 37.3 63.089 37.0484 63.089 36.7432C63.089 36.3807 63.0771 36.0254 63.0557 35.6748C63.0367 35.3255 62.9998 34.9427 62.9463 34.5254C62.9047 34.1057 62.8156 33.7933 62.68 33.5858C62.5469 33.3759 62.3912 33.271 62.214 33.271C61.83 33.271 61.5079 33.4749 61.2487 33.8815C60.9883 34.2893 60.8588 34.957 60.8588 35.8847C60.8588 36.6263 60.8362 37.1796 60.7922 37.5444C60.7506 37.9105 60.6888 38.1966 60.6067 38.4029C60.4605 38.7869 60.174 39.0563 59.746 39.209C59.3204 39.3616 58.8806 39.3902 58.424 39.2948Z" fill="#F08F3A"/>
<path d="M67.9709 39.3282C67.6381 39.2733 67.3741 39.1946 67.1815 39.0897C66.9878 38.9872 66.8701 38.8274 66.8297 38.608C66.8071 38.4292 66.788 38.1811 66.7726 37.8592C66.7595 37.5349 66.7536 37.0949 66.7536 36.5381C66.7536 35.9789 66.7583 35.2766 66.7678 34.43C66.7678 33.928 66.7464 33.4189 66.706 32.9038C66.6644 32.3887 66.6371 31.876 66.6252 31.3633C66.6252 30.8648 66.6323 30.4404 66.649 30.0898C66.6644 29.7405 66.7559 29.4972 66.9248 29.3601C67.0888 29.2361 67.3099 29.149 67.5857 29.0978C67.8616 29.0441 68.1493 29.0238 68.4512 29.0358C68.752 29.0453 69.0123 29.0811 69.2311 29.1407C69.4308 29.1955 69.6079 29.2957 69.7637 29.4412C69.9182 29.5843 70.0169 29.7774 70.0585 30.0183C70.0894 30.1745 70.0989 30.3414 70.087 30.5191C70.0775 30.6979 70.0787 30.8744 70.0918 31.0485C70.1322 32.4888 70.1679 33.6657 70.1964 34.5778C70.2273 35.4912 70.2463 36.2138 70.2535 36.7479C70.2594 37.2797 70.2463 37.6827 70.2154 37.9594C70.1833 38.236 70.1263 38.4566 70.0442 38.6223C69.9075 38.924 69.64 39.135 69.2406 39.2567C68.8411 39.3771 68.4179 39.4009 67.9709 39.3282ZM66.6585 27.3092C66.6585 26.9158 66.8118 26.6069 67.1197 26.384C67.4264 26.1586 67.8497 26.0453 68.3894 26.0453C68.9089 26.0453 69.3274 26.155 69.6448 26.3744C69.961 26.5914 70.1203 26.9026 70.1203 27.3092C70.1203 27.6979 69.9705 28.0056 69.6733 28.2345C69.3785 28.4634 68.9505 28.5779 68.3894 28.5779C67.8188 28.5779 67.3872 28.4587 67.096 28.2202C66.8035 27.9793 66.6585 27.6753 66.6585 27.3092Z" fill="#F08F3A"/>
<path d="M72.4931 38.4029C72.1377 38.3302 71.8583 38.2288 71.6562 38.0977C71.4529 37.9677 71.3304 37.7626 71.29 37.4824C71.2579 37.263 71.2425 36.9506 71.2425 36.5428C71.2425 36.1362 71.2449 35.583 71.252 34.8831C71.2579 34.1844 71.2496 33.3032 71.2282 32.2408C71.2282 31.7615 71.2163 31.3466 71.1949 30.996C71.1759 30.6466 71.1878 30.3474 71.233 30.0993C71.2805 29.849 71.3923 29.6391 71.5706 29.4698C71.7382 29.3148 71.9819 29.2027 72.3029 29.1359C72.6263 29.0668 72.9639 29.0453 73.3158 29.0739C73.6701 29.1002 73.978 29.1681 74.2383 29.279C74.4975 29.3875 74.6485 29.5354 74.6901 29.7226C74.8767 29.5866 75.0396 29.4817 75.1799 29.4078C75.3225 29.335 75.4759 29.2862 75.6411 29.2599C75.8088 29.2349 76.0227 29.2218 76.2831 29.2218C76.6255 29.2218 76.9833 29.2623 77.3578 29.341C77.7311 29.4173 78.0806 29.5699 78.404 29.7989C78.7273 30.0278 78.9817 30.3712 79.1696 30.8291C79.4073 31.3954 79.5643 32.1168 79.6403 32.9944C79.7188 33.8696 79.7592 34.8163 79.7592 35.837C79.7592 36.2758 79.7402 36.6382 79.7022 36.9244C79.6665 37.2106 79.5357 37.4586 79.3075 37.6684C79.1517 37.8151 78.9377 37.9164 78.6655 37.9737C78.3956 38.0309 78.1258 38.0297 77.8571 37.9689C77.5872 37.9057 77.3685 37.7734 77.2009 37.573C77.0677 37.418 76.9774 37.2666 76.9298 37.1199C76.8823 36.9745 76.8597 36.8028 76.8632 36.6048C76.8692 36.4081 76.8727 36.1565 76.8727 35.8513C76.8727 35.4888 76.8609 35.1335 76.8395 34.7829C76.8204 34.4336 76.7848 34.0508 76.7348 33.6335C76.6932 33.2138 76.6041 32.9014 76.4686 32.6939C76.3318 32.4841 76.1761 32.3791 76.0025 32.3791C75.615 32.3791 75.338 32.583 75.1704 32.9896C75.0051 33.3974 74.9231 34.0651 74.9231 34.9928C74.9231 35.7344 74.9017 36.2877 74.8613 36.6525C74.8196 37.0186 74.7578 37.3048 74.6758 37.511C74.5201 37.8997 74.2312 38.1692 73.8103 38.3218C73.3883 38.4709 72.9496 38.4983 72.4931 38.4029Z" fill="#F08F3A"/>
<path d="M82.4716 40.8306C82.2018 40.3596 82.0627 39.9542 82.0531 39.6144C82.0436 39.2769 82.1102 38.9955 82.2529 38.7702C82.3979 38.5472 82.5727 38.3815 82.776 38.2742C82.9781 38.1633 83.1576 38.0965 83.3133 38.0738C83.5321 38.0428 83.7104 38.0786 83.8507 38.1835C83.9933 38.2885 84.1098 38.4184 84.2025 38.5746C84.2976 38.7296 84.3975 38.8727 84.5021 39.0039C84.6068 39.1338 84.7304 39.2149 84.873 39.2471C85.0181 39.2781 85.2071 39.2161 85.4389 39.0611C85.6767 38.9049 85.8812 38.6855 86.0524 38.4029C86.2236 38.1239 86.3091 37.7853 86.3091 37.387C86.3091 37.3048 86.2723 37.263 86.1998 37.263C85.981 37.263 85.7777 37.2761 85.5911 37.3012C85.4033 37.3274 85.175 37.3465 84.9063 37.3584C84.6365 37.368 84.2715 37.362 83.8126 37.3393C83.6378 37.3298 83.4013 37.2714 83.1041 37.1629C82.8092 37.052 82.5025 36.8898 82.1863 36.6764C81.8689 36.4606 81.5824 36.1935 81.3256 35.8751C81.0712 35.558 80.8881 35.1812 80.774 34.7448C80.6598 34.306 80.6646 33.81 80.7882 33.2567C80.9333 32.5985 81.1306 31.988 81.3779 31.4253C81.6275 30.8625 81.9592 30.3939 82.3717 30.0183C82.7831 29.6439 83.2919 29.3959 83.8982 29.2742C84.5069 29.1538 85.2368 29.2027 86.0904 29.4221C86.1534 29.1431 86.3199 28.9332 86.5897 28.7925C86.862 28.6494 87.1711 28.5708 87.517 28.5541C87.8653 28.5386 88.1934 28.5863 88.5014 28.6971C88.8081 28.8056 89.0304 28.969 89.1671 29.1884C89.2586 29.3351 89.3573 29.5175 89.4619 29.7369C89.5665 29.9563 89.6616 30.2496 89.7472 30.6145C89.8352 30.9769 89.9042 31.4515 89.9517 32.0357C89.9993 32.6212 90.0112 33.3545 89.9898 34.2344C89.9707 35.1156 89.8994 36.1828 89.7758 37.4347C89.6581 38.4363 89.4251 39.2519 89.0767 39.8815C88.7308 40.5134 88.3159 40.9939 87.8308 41.3218C87.3482 41.6485 86.837 41.8536 86.2949 41.9371C85.7528 42.0229 85.2261 42.0205 84.7161 41.9323C84.2085 41.8429 83.7567 41.6962 83.3609 41.4935C82.9674 41.2896 82.6713 41.069 82.4716 40.8306ZM84.4213 32.2551C84.1609 32.3386 83.9612 32.502 83.8221 32.7464C83.6818 32.992 83.6129 33.2591 83.6129 33.5476C83.6129 33.8338 83.6902 34.0866 83.8459 34.306C84.0004 34.5254 84.2453 34.6613 84.5782 34.7114C85.1798 34.7949 85.6315 34.7949 85.9335 34.7114C86.2378 34.6291 86.3781 34.4872 86.3567 34.2869L86.2331 32.4268C86.2236 32.217 86.0357 32.0977 85.6719 32.0691C85.307 32.0381 84.8897 32.1001 84.4213 32.2551Z" fill="#F08F3A"/>
<path d="M75.6174 19.4829C75.8397 19.5473 76.0644 19.6117 76.2915 19.6773C76.8181 18.0247 76.7194 16.2302 76.043 14.6145C74.4179 10.3423 68.8613 8.81134 65.0737 11.0232C62.5308 12.5291 61.2445 14.7016 60.6976 17.3403C65.5266 17.2055 70.8276 18.0843 75.6174 19.4829ZM51.8658 18.7294C54.3564 17.9162 57.5864 17.4047 60.6631 17.3415C61.2421 11.7266 67.3408 7.96595 72.6287 10.5772C75.9134 12.0939 77.7157 16.3017 76.5423 19.7584C80.614 20.9161 84.316 23.2245 87.1847 25.7953C87.4224 26.0123 87.4129 26.0242 87.1573 25.8298C84.1746 23.4225 80.5403 21.12 76.4686 20.004L76.4674 20.0052C69.0872 17.7099 60.184 16.6976 52.9524 18.5183C52.6576 18.5732 50.7638 19.0978 51.8658 18.7294Z" fill="#F08F3A"/>
<path d="M65.0737 11.0232C68.8613 8.81253 74.418 10.3423 76.0419 14.6145C76.7195 16.2302 76.8181 18.0247 76.2915 19.6773C76.0644 19.6117 75.8397 19.5473 75.6174 19.4829C70.8276 18.0843 65.5266 17.2055 60.6976 17.3403C61.2445 14.7004 62.5296 12.5291 65.0737 11.0232Z" fill="#F08F3A"/>
<path d="M82.8515 20.2055C82.924 20.4153 77.8584 18.6685 78.0451 18.5493C77.9761 18.3406 83.0322 20.0851 82.8515 20.2055Z" fill="#F08F3A"/>
<path d="M81.2619 15.7759C78.6049 15.9702 78.5847 15.6888 81.2417 15.5028C83.8987 15.3085 83.9189 15.5899 81.2619 15.7759Z" fill="#F08F3A"/>
<path d="M78.6656 12.1595C76.7528 12.9905 76.6446 12.7306 78.561 11.9067C80.4834 11.0887 80.588 11.351 78.6656 12.1595Z" fill="#F08F3A"/>
<path d="M74.6878 9.98106C74.5083 9.95006 75.7839 7.77639 75.9123 7.90636C76.093 7.93736 74.8174 10.111 74.6878 9.98106Z" fill="#F08F3A"/>
<path d="M70.2249 8.29862C70.0418 8.32127 70.2688 6.30261 70.4377 6.40039C70.6207 6.37654 70.3937 8.39639 70.2249 8.29862Z" fill="#F08F3A"/>
<path d="M64.9215 6.94054C64.3473 5.46559 64.5815 5.3392 65.1712 6.83084C65.8155 8.25451 65.5623 8.37375 64.9215 6.94054Z" fill="#F08F3A"/>
<path d="M60.6524 9.1762C58.7538 7.95046 58.9084 7.71676 60.8058 8.95085C62.6437 10.2636 62.4784 10.4938 60.6524 9.1762Z" fill="#F08F3A"/>
<path d="M60.7274 13.7608C60.7987 13.9015 56.4975 12.4385 56.639 12.3693C56.6105 12.1082 60.9104 13.5712 60.7274 13.7608Z" fill="#F08F3A"/>
<path d="M58.9929 16.2552C59.0642 16.4388 55.367 16.0728 55.4728 15.9082C55.4003 15.7258 59.0987 16.0907 58.9929 16.2552Z" fill="#F08F3A"/>
<path d="M7.70873 5.89501C7.59461 5.81513 7.4781 5.71378 7.36159 5.58977C7.2439 5.46576 7.14523 5.33222 7.06677 5.18914C6.98711 5.04844 6.94788 4.91728 6.94788 4.79328C6.95383 4.67881 6.99781 4.56196 7.08103 4.44511C7.16663 4.32468 7.276 4.23048 7.40915 4.16371C7.57321 4.08502 7.70992 4.06236 7.8181 4.09694C7.92867 4.13271 8.02377 4.19948 8.10342 4.29726C8.18545 4.39264 8.2651 4.49519 8.34119 4.60727C8.41371 4.69908 8.48504 4.7265 8.55518 4.68835C8.62413 4.65258 8.68119 4.60369 8.72637 4.5405C8.78938 4.43915 8.84525 4.30202 8.89281 4.13033C8.94036 3.95624 8.95106 3.75354 8.92609 3.52461C8.84644 3.589 8.75728 3.63788 8.65979 3.67246C8.56112 3.70465 8.47196 3.72015 8.3935 3.72015C7.97146 3.72015 7.63027 3.62 7.37111 3.41968C7.11432 3.21698 6.95739 2.91651 6.90033 2.51826C6.84921 2.19394 6.82187 1.90181 6.81949 1.64068C6.81592 1.37717 6.83613 1.09578 6.88131 0.796496C6.90627 0.622412 6.96809 0.480521 7.06677 0.372016C7.16782 0.264704 7.30453 0.209856 7.47572 0.209856C7.61125 0.209856 7.74321 0.214625 7.87041 0.224164C8 0.233703 8.11412 0.264704 8.2128 0.314783C8.31028 0.362478 8.38517 0.442366 8.43629 0.553255C8.48979 0.665336 8.50762 0.825112 8.4886 1.03497C8.48147 1.08624 8.47196 1.16613 8.46007 1.27344C8.45056 1.37837 8.43867 1.48568 8.42678 1.59299C8.41727 1.69792 8.41014 1.77781 8.40776 1.83146C8.40063 2.01628 8.41965 2.18201 8.46483 2.32748C8.50881 2.47414 8.58846 2.54688 8.70259 2.54688C8.82266 2.54688 8.8928 2.49441 8.91183 2.38948C8.93085 2.28217 8.95225 2.1212 8.9784 1.90777C9.00337 1.70507 9.01644 1.49522 9.01644 1.27821C9.01882 1.06239 9.02358 0.901423 9.03071 0.796496C9.04022 0.618834 9.09015 0.481713 9.18288 0.386325C9.27442 0.288552 9.37309 0.238473 9.47771 0.238473C9.71785 0.238473 9.94492 0.265897 10.1577 0.319553C10.3729 0.374401 10.5156 0.488868 10.5857 0.662952C10.6927 0.901423 10.72 1.41533 10.6665 2.20348C10.6344 2.69711 10.6023 3.14305 10.5714 3.54369C10.5393 3.94432 10.4882 4.29964 10.4193 4.60727C10.3491 4.91847 10.2433 5.18437 10.1007 5.40376C9.92233 5.67681 9.69407 5.87832 9.41589 6.00948C9.14008 6.14302 8.85001 6.20026 8.54567 6.18118C8.2437 6.16449 7.96552 6.0691 7.70873 5.89501Z" fill="#F08F3A"/>
<path d="M0.622546 4.50711C0.451355 4.47253 0.318206 4.42484 0.2231 4.36403C0.127994 4.30083 0.068552 4.20187 0.0471533 4.06832C0.0340761 3.96339 0.028132 3.81435 0.028132 3.62C0.028132 3.42683 0.028132 3.16451 0.028132 2.83304C0.0305095 2.49918 0.028132 2.07947 0.0186214 1.57391C0.0186214 1.34498 0.0138661 1.14824 0.0043555 0.982502C-0.00515512 0.81438 0.00078894 0.671297 0.0233767 0.553254C0.0447758 0.432826 0.0970839 0.332668 0.180302 0.25278C0.258764 0.180046 0.37527 0.127582 0.527439 0.0953885C0.681987 0.0608103 0.843668 0.0500791 1.01248 0.0620026C1.18367 0.0751185 1.33109 0.108505 1.45472 0.162161C1.57836 0.213432 1.64969 0.283781 1.66871 0.372015C1.75669 0.30882 1.83515 0.259934 1.90172 0.224163C1.9683 0.189585 2.04082 0.165738 2.12047 0.152622C2.19893 0.140698 2.30117 0.133544 2.42481 0.133544C2.59243 0.133544 2.76838 0.152622 2.95265 0.190777C3.13573 0.226548 3.30216 0.307628 3.45195 0.434018C3.53398 0.367246 3.6279 0.300474 3.73252 0.233702C3.83713 0.16693 3.96791 0.112081 4.12721 0.066772C4.28532 0.0226549 4.48386 0 4.72162 0C4.88568 0 5.05687 0.0190777 5.2352 0.0572331C5.41233 0.0930037 5.57758 0.165738 5.72975 0.276627C5.88429 0.385131 6.00674 0.548484 6.09591 0.767878C6.21003 1.03497 6.28612 1.37836 6.32416 1.79807C6.3622 2.2154 6.38122 2.66611 6.38122 3.15259C6.38122 3.36006 6.37171 3.53176 6.35269 3.66769C6.33605 3.80481 6.27304 3.92405 6.16248 4.0254C6.08877 4.09575 5.98772 4.14463 5.85814 4.17325C5.73094 4.19948 5.60254 4.1971 5.47296 4.16848C5.34219 4.13748 5.23757 4.07309 5.15911 3.9777C5.09491 3.90497 5.05212 3.83343 5.03072 3.76308C5.00813 3.69392 4.99743 3.61284 4.99743 3.51984C4.99981 3.42445 5.00218 3.30402 5.00218 3.15736C5.00218 2.98566 4.99743 2.81754 4.98792 2.6518C4.97841 2.48368 4.96058 2.30125 4.93561 2.10332C4.91659 1.903 4.87498 1.75396 4.81197 1.65499C4.74778 1.55722 4.67407 1.50714 4.58847 1.50714C4.4042 1.50714 4.27224 1.60253 4.19378 1.7933C4.11413 1.98408 4.0749 2.29767 4.0749 2.73288C4.08084 2.82231 4.08441 2.91293 4.08441 3.00474C4.08441 3.09774 4.08441 3.19075 4.08441 3.28614C4.08441 3.49599 4.0749 3.67007 4.05588 3.806C4.03924 3.94312 3.97623 4.06117 3.86567 4.15894C3.79196 4.22929 3.69091 4.27818 3.56133 4.30679C3.43412 4.33302 3.30573 4.33064 3.17615 4.30202C3.04538 4.27102 2.94076 4.20663 2.8623 4.11125C2.7981 4.03851 2.7553 3.96697 2.7339 3.89662C2.71131 3.82747 2.7018 3.74638 2.70537 3.65338C2.70775 3.55799 2.71013 3.43876 2.71013 3.29567C2.71013 3.12159 2.70299 2.95108 2.6911 2.78535C2.68159 2.61722 2.66495 2.43479 2.64355 2.23686C2.62096 2.03655 2.57817 1.8875 2.51516 1.78854C2.45096 1.69076 2.37725 1.64068 2.29166 1.64068C2.10739 1.64068 1.97543 1.73846 1.89697 1.93162C1.81732 2.12597 1.77809 2.44433 1.77809 2.8855C1.77809 3.23844 1.76858 3.50314 1.74955 3.67723C1.73053 3.84893 1.69962 3.98486 1.6592 4.08263C1.5855 4.26745 1.44759 4.39622 1.24549 4.46895C1.04577 4.53811 0.837723 4.55123 0.622546 4.50711Z" fill="#F08F3A"/>
</svg>
