<svg width="320" height="63" viewBox="0 0 320 63" fill="none" xmlns="http://www.w3.org/2000/svg">
<path d="M290.024 39.7371C290.598 39.9644 291.18 40.1916 291.766 40.4229C293.588 36.1685 293.772 31.3758 292.376 26.9141C289.119 15.1637 274.701 9.69723 264.059 14.6175C256.906 17.9787 252.938 23.4213 250.817 30.2953C263.716 31.1486 277.615 34.8168 290.024 39.7371ZM226.946 31.7626C233.788 30.2275 242.516 29.6813 250.725 30.2873C253.676 15.5226 270.865 7.06964 284.294 15.3352C292.663 20.1877 296.407 31.8184 292.416 40.702C302.974 44.8009 312.253 51.8623 319.25 59.4101C319.828 60.0481 319.8 60.076 319.166 59.4939C311.826 52.3527 302.723 45.3232 292.157 41.336V41.34C273.074 33.3854 249.613 28.4572 229.896 31.4755C229.095 31.5473 223.919 32.4644 226.946 31.7626Z" fill="#F08F3A"/>
<path d="M309.107 43.4771C309.25 44.0513 296.196 38.1382 296.722 37.8671C296.591 37.2969 309.621 43.202 309.107 43.4771Z" fill="#F08F3A"/>
<path d="M305.985 31.312C298.859 31.1605 298.875 30.4069 306.001 30.5824C313.126 30.7339 313.11 31.4875 305.985 31.312Z" fill="#F08F3A"/>
<path d="M299.979 21.0529C294.672 22.7833 294.453 22.0616 299.76 20.3551C305.087 18.6685 305.298 19.3902 299.979 21.0529Z" fill="#F08F3A"/>
<path d="M289.928 14.2706C289.457 14.143 293.401 8.68846 293.712 9.06725C294.182 9.19484 290.243 14.6494 289.928 14.2706Z" fill="#F08F3A"/>
<path d="M278.465 8.68048C277.97 8.69244 279.083 3.38941 279.506 3.69244C280 3.67649 278.888 8.97952 278.465 8.68048Z" fill="#F08F3A"/>
<path d="M264.676 3.74029C263.516 -0.32271 264.174 -0.597829 265.37 3.50903C266.73 7.45241 266.024 7.70759 264.676 3.74029Z" fill="#F08F3A"/>
<path d="M252.747 8.60074C247.998 4.86868 248.469 4.29053 253.213 8.04252C257.775 11.9939 257.28 12.5601 252.747 8.60074Z" fill="#F08F3A"/>
<path d="M251.798 20.7937C251.949 21.1884 240.861 16.2203 241.256 16.0728C241.244 15.3711 252.332 20.3392 251.798 20.7937Z" fill="#F08F3A"/>
<path d="M246.551 26.9859C246.694 27.4883 236.937 25.5864 237.26 25.1757C237.117 24.6733 246.874 26.5752 246.551 26.9859Z" fill="#F08F3A"/>
<path d="M264.059 14.6175C274.701 9.70121 289.119 15.1637 292.376 26.9141C293.772 31.3758 293.588 36.1685 291.766 40.4229C291.18 40.1916 290.598 39.9644 290.024 39.7371C277.615 34.8168 263.716 31.1486 250.817 30.2953C252.938 23.4213 256.906 17.9787 264.059 14.6175Z" fill="#F08F3A"/>
<path d="M52.1838 58.5594C51.6176 58.4398 51.171 58.2763 50.8441 58.065C50.5251 57.8617 50.3337 57.5387 50.2699 57.0921C50.2141 56.7412 50.1742 56.2428 50.1423 55.5929C50.1184 54.947 50.1144 54.0698 50.1264 52.9613C50.1343 51.8449 50.1503 50.4414 50.1742 48.7508C50.1503 47.7301 50.1104 46.7054 50.0466 45.6727C49.9908 44.632 49.9549 43.6073 49.935 42.5945C49.923 41.5977 49.935 40.7524 49.9669 40.0586C49.9988 39.3569 50.1463 38.8744 50.4135 38.6073C50.6766 38.3441 51.0434 38.1607 51.5139 38.065C51.9924 37.9613 52.4868 37.9175 52.9972 37.9374C53.5076 37.9494 53.9422 38.0251 54.305 38.1607C54.632 38.2803 54.919 38.4797 55.1662 38.7668C55.4214 39.0459 55.5969 39.4207 55.6926 39.8991C55.7643 40.2181 55.7883 40.5531 55.7564 40.9039C55.7324 41.2468 55.7324 41.6017 55.7564 41.9725C55.7883 42.5786 55.8082 43.1687 55.8202 43.7428C55.8401 44.309 55.856 44.8433 55.868 45.3537C56.2069 45.1743 56.5897 45.0427 57.0163 44.955C57.4509 44.8712 57.8616 44.8274 58.2444 44.8274C59.8792 44.8274 61.1551 45.4613 62.0721 46.7253C62.6543 47.5467 63.0849 48.6352 63.364 49.9948C63.6511 51.3585 63.7946 52.8497 63.7946 54.4765C63.7946 55.1782 63.7627 55.7604 63.6989 56.2149C63.6431 56.6735 63.4358 57.0642 63.0769 57.3951C62.6942 57.754 62.2077 57.9374 61.6256 57.9374C61.0514 57.9374 60.561 57.7062 60.1583 57.2516C59.943 56.9964 59.7994 56.7532 59.7276 56.518C59.6519 56.2867 59.616 56.0156 59.616 55.7046C59.624 55.3856 59.632 54.9869 59.632 54.5084C59.632 53.9263 59.616 53.3561 59.5841 52.8019C59.5522 52.2397 59.4924 51.6296 59.4087 50.9677C59.3449 50.2979 59.2013 49.7995 58.9781 49.4685C58.7627 49.1416 58.5195 48.9741 58.2444 48.9741C57.6264 48.9741 57.112 49.3011 56.6973 49.947C56.2827 50.5969 56.0753 51.6615 56.0753 53.1368C56.0753 54.317 56.0355 55.2022 55.9637 55.7843C55.8999 56.3585 55.8042 56.813 55.6766 57.14C55.4414 57.754 54.9828 58.1806 54.305 58.4159C53.6232 58.6591 52.9174 58.707 52.1838 58.5594Z" fill="#F08F3A"/>
<path d="M75.117 57.9215C74.8937 57.8457 74.6545 57.7022 74.3993 57.4909C74.1521 57.2755 74.0165 56.9725 73.9846 56.5658L73.9687 56.3266C72.5851 56.9007 71.3251 57.124 70.1888 56.9964C69.0604 56.8609 68.0915 56.4542 67.286 55.7843C66.4886 55.1145 65.8985 54.2652 65.5157 53.2325C65.2805 52.5865 65.2286 52.0004 65.3562 51.4781C65.4838 50.9598 65.723 50.4972 66.0739 50.0905C66.4328 49.6759 66.8435 49.333 67.302 49.0539C67.7565 48.7668 68.1991 48.5515 68.6257 48.3999C69.0604 48.2524 69.4152 48.1607 69.6943 48.1288C70.3961 48.057 70.9463 48.0132 71.353 48.0012C71.7677 47.9813 72.1186 47.9773 72.4057 47.9853C72.6927 47.9972 73.0037 48.0092 73.3466 48.0172C73.4742 48.0172 73.5221 47.9614 73.4902 47.8417C73.3387 47.3952 73.1473 47.0124 72.916 46.6934C72.6808 46.3665 72.3738 46.1192 71.991 45.9598C71.6082 45.7923 71.3092 45.7285 71.0978 45.7684C70.8825 45.8122 70.7031 45.9119 70.5556 46.0714C70.416 46.2309 70.2765 46.4143 70.1409 46.6137C70.0133 46.805 69.8458 46.9725 69.6465 47.1081C69.4551 47.2357 69.188 47.2915 68.849 47.2676C68.6018 47.2676 68.3147 47.2157 67.9878 47.1081C67.6688 46.9925 67.3857 46.813 67.1425 46.5658C66.9073 46.3106 66.7797 45.9837 66.7597 45.577C66.7478 45.1623 66.9232 44.6639 67.286 44.0778C67.5492 43.6631 67.9718 43.2724 68.546 42.8976C69.1202 42.5267 69.7821 42.2277 70.5396 42.0044C71.3052 41.7811 72.0947 41.6854 72.916 41.7173C73.7454 41.7492 74.5468 41.9566 75.3243 42.3393C76.1098 42.7221 76.8076 43.3282 77.4136 44.1575C78.0197 44.9869 78.4702 46.1113 78.7693 47.5228C79.172 49.3728 79.4272 50.884 79.5348 52.0523C79.6385 53.2245 79.6545 54.1575 79.5827 54.8593C79.5069 55.5531 79.3793 56.0834 79.1999 56.4542C79.0285 56.829 78.865 57.128 78.7055 57.3633C78.5141 57.6264 78.0875 57.8417 77.4296 58.0012C76.7797 58.1607 76.0101 58.1328 75.117 57.9215ZM70.9702 51.3346C70.436 51.3984 70.0612 51.5419 69.8379 51.7652C69.6146 51.9805 69.5189 52.2197 69.5508 52.4829C69.5827 52.75 69.7183 52.9733 69.9655 53.1527C70.2206 53.3362 70.5636 53.4239 71.0021 53.4239C71.7438 53.4159 72.31 53.372 72.6927 53.2963C73.0835 53.2245 73.4104 53.1328 73.6656 53.0251C73.8132 52.9534 73.8889 52.8298 73.8889 52.6583V51.9406C73.8889 51.7413 73.861 51.6296 73.8092 51.6057C73.5938 51.4901 73.2829 51.3944 72.8682 51.3186C72.4535 51.2349 71.8195 51.2389 70.9702 51.3346Z" fill="#F08F3A"/>
<path d="M85.7714 60.2341C85.3886 60.3497 84.9261 60.4135 84.3838 60.4254C83.8495 60.4454 83.3352 60.4015 82.8368 60.2979C82.3344 60.2022 81.9436 60.0347 81.6566 59.8034C81.3575 59.5562 81.194 59.1017 81.1621 58.4318C81.1302 57.7699 81.1183 56.9765 81.1302 56.0395C81.1502 55.0826 81.1861 54.1216 81.2419 53.1527C81.3057 52.1758 81.3456 51.203 81.3695 50.2341C81.3456 48.6312 81.3296 47.3114 81.3216 46.2787C81.3097 45.2381 81.3216 44.4087 81.3535 43.7907C81.3934 43.1767 81.4373 42.7062 81.4811 42.3872C81.5649 41.9645 81.7762 41.6495 82.1191 41.4462C82.458 41.2468 82.9245 41.0953 83.5226 40.9996C84.2562 40.8641 84.958 40.896 85.6279 41.0953C86.3057 41.2987 86.8001 41.6376 87.1111 42.116C89.0449 41.6176 90.6438 41.6137 91.9117 42.1001C93.1877 42.5905 94.1127 43.4398 94.6869 44.6519C95.261 45.864 95.4524 47.3234 95.261 49.0219C95.1653 49.939 94.8942 50.6727 94.4476 51.2229C94.0011 51.7771 93.4508 52.2077 92.8049 52.5148C92.155 52.8138 91.4811 53.0092 90.7794 53.1049C90.0856 53.2006 89.4397 53.2404 88.8336 53.2165C88.2355 53.1966 87.773 53.1527 87.446 53.0889C87.4221 53.6232 87.4022 54.1814 87.3822 54.7636C87.3703 55.3497 87.3503 55.9757 87.3184 56.6455C87.2945 56.9765 87.2945 57.3034 87.3184 57.6344C87.3384 57.9733 87.3224 58.2923 87.2706 58.5913C87.1629 59.0379 86.9755 59.3928 86.7124 59.6599C86.4452 59.9231 86.1302 60.1144 85.7714 60.2341ZM87.5736 49.2452C88.6781 49.3648 89.5034 49.3409 90.0457 49.1814C90.596 49.014 90.9588 48.7468 91.1302 48.384C91.3097 48.0132 91.3695 47.6105 91.3057 47.1719C91.2499 46.7492 91.0186 46.4302 90.6039 46.2149C90.1893 45.9916 89.7028 45.8601 89.1526 45.8162C88.6103 45.7644 88.1039 45.7843 87.6374 45.88C87.6374 46.7333 87.6135 47.8537 87.5736 49.2452Z" fill="#F08F3A"/>
<path d="M101.469 60.2341C101.086 60.3497 100.623 60.4135 100.081 60.4254C99.5469 60.4454 99.0325 60.4015 98.5341 60.2979C98.0317 60.2022 97.641 60.0347 97.3539 59.8034C97.0548 59.5562 96.8913 59.1017 96.8595 58.4318C96.8276 57.7699 96.8156 56.9765 96.8276 56.0395C96.8475 55.0826 96.8834 54.1216 96.9392 53.1527C97.003 52.1758 97.0429 51.203 97.0668 50.2341C97.0429 48.6312 97.0269 47.3114 97.0189 46.2787C97.007 45.2381 97.0189 44.4087 97.0508 43.7907C97.0907 43.1767 97.1346 42.7062 97.1784 42.3872C97.2622 41.9645 97.4735 41.6495 97.8164 41.4462C98.1553 41.2468 98.6218 41.0953 99.2199 40.9996C99.9536 40.8641 100.655 40.896 101.325 41.0953C102.003 41.2987 102.497 41.6376 102.808 42.116C104.742 41.6176 106.341 41.6137 107.609 42.1001C108.885 42.5905 109.81 43.4398 110.384 44.6519C110.958 45.864 111.15 47.3234 110.958 49.0219C110.863 49.939 110.592 50.6727 110.145 51.2229C109.698 51.7771 109.148 52.2077 108.502 52.5148C107.852 52.8138 107.178 53.0092 106.477 53.1049C105.783 53.2006 105.137 53.2404 104.531 53.2165C103.933 53.1966 103.47 53.1527 103.143 53.0889C103.119 53.6232 103.099 54.1814 103.08 54.7636C103.068 55.3497 103.048 55.9757 103.016 56.6455C102.992 56.9765 102.992 57.3034 103.016 57.6344C103.036 57.9733 103.02 58.2923 102.968 58.5913C102.86 59.0379 102.673 59.3928 102.41 59.6599C102.143 59.9231 101.828 60.1144 101.469 60.2341ZM103.271 49.2452C104.375 49.3648 105.201 49.3409 105.743 49.1814C106.293 49.014 106.656 48.7468 106.828 48.384C107.007 48.0132 107.067 47.6105 107.003 47.1719C106.947 46.7492 106.716 46.4302 106.301 46.2149C105.887 45.9916 105.4 45.8601 104.85 45.8162C104.308 45.7644 103.801 45.7843 103.335 45.88C103.335 46.7333 103.311 47.8537 103.271 49.2452Z" fill="#F08F3A"/>
<path d="M115.475 61.7811C115.093 61.514 114.702 61.1751 114.311 60.7604C113.916 60.3457 113.585 59.8991 113.322 59.4207C113.055 58.9502 112.924 58.5116 112.924 58.0969C112.944 57.7141 113.091 57.3234 113.37 56.9326C113.657 56.5299 114.024 56.2149 114.471 55.9916C115.021 55.7285 115.479 55.6527 115.842 55.7684C116.213 55.888 116.532 56.1113 116.799 56.4382C117.074 56.7572 117.341 57.1001 117.597 57.4749C117.84 57.7819 118.079 57.8736 118.314 57.746C118.546 57.6264 118.737 57.4629 118.889 57.2516C119.1 56.9127 119.287 56.4542 119.447 55.88C119.606 55.2979 119.642 54.62 119.558 53.8545C119.291 54.0698 118.992 54.2333 118.665 54.3489C118.334 54.4566 118.035 54.5084 117.772 54.5084C116.357 54.5084 115.212 54.1735 114.343 53.5036C113.482 52.8258 112.955 51.821 112.764 50.4893C112.593 49.4047 112.501 48.4279 112.493 47.5546C112.481 46.6735 112.549 45.7325 112.7 44.7317C112.784 44.1495 112.991 43.6751 113.322 43.3122C113.661 42.9534 114.12 42.77 114.694 42.77C115.148 42.77 115.591 42.7859 116.018 42.8178C116.452 42.8497 116.835 42.9534 117.166 43.1208C117.493 43.2803 117.744 43.5475 117.916 43.9183C118.095 44.2931 118.155 44.8274 118.091 45.5291C118.067 45.7006 118.035 45.9677 117.995 46.3266C117.963 46.6775 117.924 47.0363 117.884 47.3952C117.852 47.746 117.828 48.0132 117.82 48.1926C117.796 48.8106 117.86 49.3649 118.011 49.8513C118.159 50.3417 118.426 50.5849 118.809 50.5849C119.211 50.5849 119.447 50.4095 119.511 50.0586C119.574 49.6998 119.646 49.1615 119.734 48.4478C119.818 47.77 119.861 47.0682 119.861 46.3425C119.869 45.6208 119.885 45.0826 119.909 44.7317C119.941 44.1376 120.109 43.6791 120.42 43.3601C120.727 43.0331 121.058 42.8657 121.408 42.8657C122.214 42.8657 122.975 42.9574 123.689 43.1368C124.411 43.3202 124.889 43.703 125.125 44.2851C125.483 45.0826 125.575 46.8011 125.396 49.4366C125.288 51.0873 125.18 52.5786 125.077 53.9183C124.969 55.258 124.798 56.4462 124.566 57.4749C124.331 58.5156 123.976 59.4047 123.498 60.1384C122.9 61.0515 122.134 61.7253 121.201 62.1639C120.276 62.6105 119.303 62.8018 118.282 62.7381C117.27 62.6822 116.337 62.3633 115.475 61.7811Z" fill="#F08F3A"/>
<path d="M142.247 57.1719C141.182 56.9486 140.237 56.5259 139.408 55.8959C138.578 55.2699 137.9 54.4924 137.382 53.5674C136.86 52.6424 136.529 51.6376 136.393 50.553C136.266 49.4685 136.365 48.376 136.696 47.2676C137.047 46.1312 137.581 45.1543 138.307 44.333C139.041 43.5036 139.886 42.8417 140.843 42.3393C141.8 41.8409 142.793 41.51 143.825 41.3505C144.866 41.183 145.875 41.187 146.856 41.3664C147.833 41.5499 148.71 41.9087 149.487 42.451C150.261 42.9932 150.863 43.7189 151.29 44.62C151.724 45.5251 151.912 46.6216 151.848 47.9055C151.816 48.4478 151.577 48.9263 151.13 49.3409C150.691 49.7476 150.125 50.0905 149.424 50.3776C148.73 50.6567 147.964 50.868 147.127 51.0156C146.298 51.1671 145.46 51.2628 144.623 51.3026C143.794 51.3465 143.032 51.3425 142.342 51.2867C142.661 52.1798 143.084 52.7699 143.618 53.057C144.148 53.3441 144.758 53.4318 145.452 53.3122C146.142 53.1966 146.86 52.9773 147.605 52.6583C148.243 52.3314 148.762 52.2077 149.168 52.2915C149.571 52.3672 149.982 52.6982 150.396 53.2803C150.684 53.6432 150.803 54.0578 150.763 54.5243C150.719 54.9948 150.516 55.3935 150.157 55.7205C149.687 56.1591 149.113 56.502 148.435 56.7572C147.765 57.0044 147.055 57.1719 146.313 57.2676C145.58 57.3632 144.854 57.3991 144.144 57.3792C143.431 57.3553 142.797 57.2875 142.247 57.1719ZM142.342 48.2245C142.342 48.2245 142.526 48.2365 142.9 48.2564C143.283 48.2684 143.75 48.2723 144.304 48.2723C144.854 48.2723 145.412 48.2484 145.979 48.1926C146.553 48.1288 147.023 48.0251 147.398 47.8736C147.769 47.7261 147.956 47.5068 147.956 47.2197C147.956 46.6894 147.769 46.2867 147.398 46.0076C147.023 45.7205 146.557 45.557 145.995 45.5132C145.44 45.4613 144.882 45.5251 144.32 45.7046C143.754 45.888 143.283 46.191 142.9 46.6137C142.526 47.0403 142.342 47.5786 142.342 48.2245Z" fill="#F08F3A"/>
<path d="M160.739 57.4111C160.069 57.4111 159.399 57.144 158.729 56.6137C158.067 56.0714 157.445 55.3617 156.863 54.4765C156.277 53.5834 155.739 52.6105 155.252 51.5578C154.774 50.4972 154.375 49.4446 154.056 48.3999C153.745 47.3473 153.538 46.4063 153.434 45.577C153.37 45.0148 153.342 44.5483 153.354 44.1735C153.374 43.8027 153.55 43.5036 153.881 43.2803C154.168 43.1009 154.507 42.9295 154.901 42.77C155.304 42.6025 155.715 42.4829 156.129 42.4191C156.544 42.3553 156.915 42.3832 157.246 42.4988C157.573 42.6065 157.82 42.8657 157.979 43.2803C158.043 43.4717 158.131 43.7548 158.251 44.1256C158.366 44.5004 158.482 44.9031 158.601 45.3377C158.729 45.7644 158.857 46.1791 158.984 46.5818C159.112 46.9765 159.208 47.2995 159.271 47.5547C159.419 48.0331 159.574 48.5554 159.734 49.1176C159.901 49.6838 160.077 50.1623 160.26 50.5531C160.44 50.9478 160.643 51.1432 160.866 51.1432C161.193 51.1432 161.432 50.8242 161.584 50.1862C161.815 49.2732 162.031 48.38 162.222 47.5068C162.413 46.6376 162.609 45.8561 162.812 45.1623C163.023 44.4606 163.267 43.9023 163.546 43.4877C163.833 43.073 164.176 42.8657 164.582 42.8657C165.125 42.8657 165.623 42.9255 166.082 43.0411C166.536 43.1607 166.887 43.4079 167.134 43.7907C167.389 44.1735 167.489 44.7596 167.437 45.5451C167.393 46.3226 167.126 47.3633 166.64 48.6711C166.01 50.4175 165.428 51.9486 164.885 53.2644C164.343 54.5722 163.745 55.5929 163.099 56.3266C162.449 57.0483 161.664 57.4111 160.739 57.4111Z" fill="#F08F3A"/>
<path d="M174.837 57.1719C173.772 56.9486 172.828 56.5259 171.998 55.8959C171.169 55.2699 170.491 54.4924 169.973 53.5674C169.45 52.6424 169.119 51.6376 168.984 50.553C168.856 49.4685 168.956 48.376 169.287 47.2676C169.638 46.1312 170.172 45.1543 170.898 44.333C171.631 43.5036 172.477 42.8417 173.434 42.3393C174.391 41.8409 175.383 41.51 176.416 41.3505C177.457 41.183 178.465 41.187 179.446 41.3664C180.423 41.5499 181.3 41.9087 182.078 42.451C182.851 42.9932 183.454 43.7189 183.88 44.62C184.315 45.5251 184.502 46.6216 184.438 47.9055C184.406 48.4478 184.167 48.9263 183.721 49.3409C183.282 49.7476 182.716 50.0905 182.014 50.3776C181.32 50.6567 180.555 50.868 179.717 51.0156C178.888 51.1671 178.051 51.2628 177.213 51.3026C176.384 51.3465 175.623 51.3425 174.933 51.2867C175.252 52.1798 175.674 52.7699 176.209 53.057C176.739 53.3441 177.349 53.4318 178.043 53.3122C178.733 53.1966 179.45 52.9773 180.196 52.6583C180.834 52.3314 181.352 52.2077 181.759 52.2915C182.162 52.3672 182.572 52.6982 182.987 53.2803C183.274 53.6432 183.394 54.0578 183.354 54.5243C183.31 54.9948 183.107 55.3935 182.748 55.7205C182.277 56.1591 181.703 56.502 181.025 56.7572C180.355 57.0044 179.646 57.1719 178.904 57.2676C178.17 57.3632 177.445 57.3991 176.735 57.3792C176.021 57.3553 175.387 57.2875 174.837 57.1719ZM174.933 48.2245C174.933 48.2245 175.116 48.2365 175.491 48.2564C175.874 48.2684 176.34 48.2723 176.895 48.2723C177.445 48.2723 178.003 48.2484 178.569 48.1926C179.143 48.1288 179.614 48.0251 179.989 47.8736C180.359 47.7261 180.547 47.5068 180.547 47.2197C180.547 46.6894 180.359 46.2867 179.989 46.0076C179.614 45.7205 179.147 45.557 178.585 45.5132C178.031 45.4613 177.473 45.5251 176.91 45.7046C176.344 45.888 175.874 46.191 175.491 46.6137C175.116 47.0403 174.933 47.5786 174.933 48.2245Z" fill="#F08F3A"/>
<path d="M188.417 57.2995C187.851 57.2117 187.404 57.0682 187.077 56.8688C186.746 56.6575 186.539 56.3346 186.455 55.896C186.399 55.5451 186.36 55.0467 186.328 54.3968C186.304 53.7508 186.28 52.8736 186.248 51.7652C186.216 50.6488 186.156 49.2452 186.072 47.5547C186.041 46.7891 186.001 46.1312 185.961 45.577C185.917 45.0148 185.921 44.5363 185.977 44.1416C186.041 43.7389 186.204 43.4 186.471 43.1208C186.726 42.8577 187.109 42.6663 187.62 42.5467C188.138 42.431 188.676 42.3832 189.23 42.4031C189.781 42.4151 190.275 42.4988 190.714 42.6583C191.148 42.8098 191.399 43.0371 191.463 43.3441C191.758 43.1129 192.013 42.9295 192.229 42.8019C192.452 42.6743 192.695 42.5905 192.962 42.5467C193.226 42.4948 193.568 42.4669 193.983 42.4669C194.673 42.4669 195.347 42.6743 196.009 43.0889C196.678 43.5036 197.257 44.0618 197.747 44.7636C198.234 45.4574 198.564 46.2309 198.736 47.0921C198.915 47.9454 198.856 48.7987 198.56 49.6599C198.473 49.9151 198.257 50.1145 197.907 50.25C197.564 50.3776 197.189 50.4494 196.774 50.4574C196.36 50.4574 195.997 50.3936 195.69 50.266C195.379 50.1304 195.215 49.9231 195.195 49.644L194.876 48.3521C194.812 48.0889 194.693 47.8816 194.525 47.7301C194.438 47.6464 194.326 47.5865 194.19 47.5547C194.063 47.5228 193.923 47.5068 193.776 47.5068H193.696C193.09 47.5188 192.663 47.8577 192.42 48.5275C192.173 49.1894 192.077 50.258 192.133 51.7333C192.165 52.9135 192.157 53.7987 192.117 54.3808C192.073 54.955 191.99 55.4135 191.862 55.7524C191.639 56.3704 191.192 56.813 190.522 57.0762C189.86 57.3393 189.159 57.4151 188.417 57.2995Z" fill="#F08F3A"/>
<path d="M203.272 61.7811C202.889 61.514 202.499 61.1751 202.108 60.7604C201.713 60.3457 201.382 59.8991 201.119 59.4207C200.852 58.9502 200.72 58.5116 200.72 58.0969C200.74 57.7141 200.888 57.3234 201.167 56.9326C201.454 56.5299 201.821 56.2149 202.267 55.9916C202.818 55.7285 203.276 55.6527 203.639 55.7684C204.01 55.888 204.329 56.1113 204.596 56.4382C204.871 56.7572 205.138 57.1001 205.393 57.4749C205.637 57.7819 205.876 57.8736 206.111 57.746C206.342 57.6264 206.534 57.4629 206.685 57.2516C206.897 56.9127 207.084 56.4542 207.243 55.88C207.403 55.2979 207.439 54.62 207.355 53.8545C207.088 54.0698 206.789 54.2333 206.462 54.3489C206.131 54.4566 205.832 54.5084 205.569 54.5084C204.153 54.5084 203.009 54.1735 202.14 53.5036C201.279 52.8258 200.752 51.821 200.561 50.4893C200.389 49.4047 200.298 48.4279 200.29 47.5546C200.278 46.6735 200.346 45.7325 200.497 44.7317C200.581 44.1495 200.788 43.6751 201.119 43.3122C201.458 42.9534 201.917 42.77 202.491 42.77C202.945 42.77 203.388 42.7859 203.814 42.8178C204.249 42.8497 204.632 42.9534 204.963 43.1208C205.29 43.2803 205.541 43.5475 205.712 43.9183C205.892 44.2931 205.952 44.8274 205.888 45.5291C205.864 45.7006 205.832 45.9677 205.792 46.3266C205.76 46.6775 205.72 47.0363 205.68 47.3952C205.649 47.746 205.625 48.0132 205.617 48.1926C205.593 48.8106 205.657 49.3649 205.808 49.8513C205.956 50.3417 206.223 50.5849 206.605 50.5849C207.008 50.5849 207.243 50.4095 207.307 50.0586C207.371 49.6998 207.443 49.1615 207.531 48.4478C207.614 47.77 207.658 47.0682 207.658 46.3425C207.666 45.6208 207.682 45.0826 207.706 44.7317C207.738 44.1376 207.905 43.6791 208.216 43.3601C208.523 43.0331 208.854 42.8657 209.205 42.8657C210.011 42.8657 210.772 42.9574 211.486 43.1368C212.208 43.3202 212.686 43.703 212.921 44.2851C213.28 45.0826 213.372 46.8011 213.192 49.4366C213.085 51.0873 212.977 52.5786 212.873 53.9183C212.766 55.258 212.594 56.4462 212.363 57.4749C212.128 58.5156 211.773 59.4047 211.294 60.1384C210.696 61.0515 209.931 61.7253 208.998 62.1639C208.073 62.6105 207.1 62.8018 206.079 62.7381C205.066 62.6822 204.133 62.3633 203.272 61.7811Z" fill="#F08F3A"/>
<path d="M224.128 58.2883C223.223 58.2883 222.346 58.1806 221.497 57.9693C220.655 57.754 219.894 57.3633 219.216 56.7891C218.534 56.2149 217.988 55.4015 217.573 54.3489C217.166 53.2883 216.951 51.9247 216.919 50.266C216.919 49.9071 216.923 49.4845 216.935 49.006C216.943 48.5196 216.955 47.9653 216.967 47.3473H216.951C216.365 47.3473 215.89 47.1878 215.532 46.8688C215.029 46.4462 214.782 45.896 214.782 45.2261C214.782 44.6639 214.957 44.2293 215.308 43.9183C215.723 43.5355 216.253 43.3441 216.903 43.3441H217.127C217.135 43.0251 217.146 42.6982 217.158 42.3553C217.178 42.0164 217.198 41.6615 217.222 41.2867C217.242 41.0116 217.242 40.7405 217.222 40.4733C217.198 40.2101 217.214 39.959 217.27 39.7237C217.354 39.3728 217.513 39.0937 217.749 38.8784C217.992 38.6671 218.275 38.5196 218.594 38.4318C218.945 38.3282 219.363 38.2564 219.854 38.2245C220.34 38.1846 220.799 38.2205 221.225 38.3361C221.66 38.4438 221.967 38.6711 222.15 39.022C222.298 39.309 222.362 39.7197 222.342 40.25C222.33 40.7843 222.31 41.4223 222.278 42.1639C222.266 42.3672 222.262 42.5706 222.262 42.77C222.262 42.9613 222.25 43.1527 222.23 43.3441H222.677C223.41 43.3441 223.957 43.5515 224.32 43.9661C224.69 44.3808 224.878 44.8393 224.878 45.3377C224.878 45.561 224.838 45.7843 224.766 46.0076C224.639 46.4542 224.467 46.7652 224.256 46.9326C224.02 47.1479 223.745 47.2596 223.426 47.2676C223.107 47.3234 222.764 47.3473 222.406 47.3473H222.103C222.071 48.8146 222.095 50.0387 222.182 51.0156C222.266 51.9964 222.485 52.7341 222.836 53.2325C223.195 53.7349 223.749 53.9821 224.495 53.9821C224.782 53.9821 225.009 54.1256 225.181 54.4127C225.36 54.6998 225.468 55.0586 225.5 55.4813C225.54 55.9079 225.52 56.3385 225.436 56.7731C225.36 57.1958 225.213 57.5546 224.989 57.8417C224.766 58.1368 224.479 58.2883 224.128 58.2883Z" fill="#F08F3A"/>
<path d="M229.281 58.5594C228.715 58.4398 228.268 58.2763 227.941 58.065C227.622 57.8617 227.431 57.5387 227.367 57.0921C227.311 56.7412 227.271 56.2428 227.239 55.5929C227.215 54.947 227.211 54.0698 227.223 52.9613C227.231 51.8449 227.247 50.4414 227.271 48.7508C227.247 47.7301 227.207 46.7054 227.144 45.6727C227.088 44.632 227.052 43.6073 227.032 42.5945C227.02 41.5977 227.032 40.7524 227.064 40.0586C227.096 39.3569 227.243 38.8744 227.51 38.6073C227.774 38.3441 228.14 38.1607 228.611 38.065C229.089 37.9613 229.584 37.9175 230.094 37.9374C230.604 37.9494 231.039 38.0251 231.402 38.1607C231.729 38.2803 232.016 38.4797 232.263 38.7668C232.518 39.0459 232.694 39.4207 232.79 39.8991C232.861 40.2181 232.885 40.5531 232.853 40.9039C232.829 41.2468 232.829 41.6017 232.853 41.9725C232.885 42.5786 232.905 43.1687 232.917 43.7428C232.937 44.309 232.953 44.8433 232.965 45.3537C233.304 45.1743 233.687 45.0427 234.113 44.955C234.548 44.8712 234.959 44.8274 235.341 44.8274C236.976 44.8274 238.252 45.4613 239.169 46.7253C239.751 47.5467 240.182 48.6352 240.461 49.9948C240.748 51.3585 240.892 52.8497 240.892 54.4765C240.892 55.1782 240.86 55.7604 240.796 56.2149C240.74 56.6735 240.533 57.0642 240.174 57.3951C239.791 57.754 239.305 57.9374 238.723 57.9374C238.148 57.9374 237.658 57.7062 237.255 57.2516C237.04 56.9964 236.896 56.7532 236.825 56.518C236.749 56.2867 236.713 56.0156 236.713 55.7046C236.721 55.3856 236.729 54.9869 236.729 54.5084C236.729 53.9263 236.713 53.3561 236.681 52.8019C236.649 52.2397 236.589 51.6296 236.506 50.9677C236.442 50.2979 236.298 49.7995 236.075 49.4685C235.86 49.1416 235.616 48.9741 235.341 48.9741C234.723 48.9741 234.209 49.3011 233.794 49.947C233.38 50.5969 233.172 51.6615 233.172 53.1368C233.172 54.317 233.132 55.2022 233.061 55.7843C232.997 56.3585 232.901 56.813 232.774 57.14C232.538 57.754 232.08 58.1806 231.402 58.4159C230.72 58.6591 230.014 58.707 229.281 58.5594Z" fill="#F08F3A"/>
<path d="M244.527 58.6073C243.992 58.5315 243.574 58.4079 243.267 58.2405C242.956 58.069 242.772 57.8138 242.708 57.4749C242.676 57.1878 242.645 56.7891 242.613 56.2787C242.589 55.7604 242.581 55.0586 242.581 54.1735C242.581 53.2803 242.589 52.1599 242.613 50.8082C242.613 50.0108 242.573 49.2054 242.501 48.384C242.437 47.5666 242.397 46.7492 242.389 45.9279C242.389 45.1304 242.397 44.4566 242.421 43.9023C242.453 43.3401 242.601 42.9534 242.868 42.7381C243.131 42.5387 243.482 42.3992 243.92 42.3234C244.355 42.2397 244.814 42.2078 245.292 42.2277C245.779 42.2397 246.201 42.2915 246.552 42.3872C246.871 42.4749 247.15 42.6344 247.397 42.8657C247.641 43.1009 247.8 43.4079 247.876 43.7907C247.916 44.0379 247.928 44.3011 247.908 44.5882C247.896 44.8673 247.9 45.1464 247.924 45.4334C247.987 47.7221 248.039 49.5921 248.083 51.0475C248.135 52.5068 248.167 53.6591 248.179 54.5084C248.187 55.3497 248.167 55.9917 248.115 56.4382C248.071 56.8768 247.979 57.2237 247.844 57.4909C247.629 57.9693 247.198 58.3043 246.552 58.4956C245.914 58.687 245.236 58.7229 244.527 58.6073ZM242.437 39.4685C242.437 38.8425 242.68 38.3521 243.171 38.0012C243.657 37.6424 244.335 37.459 245.196 37.459C246.034 37.459 246.704 37.6344 247.206 37.9853C247.716 38.3282 247.972 38.8226 247.972 39.4685C247.972 40.0866 247.732 40.581 247.254 40.9518C246.783 41.3146 246.098 41.4941 245.196 41.4941C244.291 41.4941 243.605 41.3027 243.139 40.9199C242.668 40.5371 242.437 40.0547 242.437 39.4685Z" fill="#F08F3A"/>
<path d="M251.763 57.14C251.189 57.0243 250.743 56.8649 250.424 56.6615C250.105 56.4502 249.905 56.1192 249.833 55.6727C249.79 55.3218 249.77 54.8234 249.77 54.1735C249.77 53.5275 249.77 52.6503 249.77 51.5419C249.778 50.4255 249.77 49.022 249.738 47.3314C249.738 46.5658 249.722 45.9079 249.69 45.3537C249.658 44.7915 249.678 44.313 249.754 43.9183C249.825 43.5156 250.001 43.1807 250.28 42.9135C250.543 42.6703 250.934 42.4948 251.444 42.3872C251.963 42.2716 252.505 42.2357 253.071 42.2756C253.645 42.3194 254.14 42.431 254.554 42.6105C254.969 42.7819 255.208 43.0172 255.272 43.3122C255.567 43.1009 255.83 42.9374 256.053 42.8178C256.277 42.7022 256.52 42.6224 256.787 42.5786C257.05 42.5387 257.393 42.5148 257.808 42.5148C258.358 42.5148 258.932 42.5786 259.53 42.7062C260.124 42.8258 260.679 43.069 261.189 43.4398C261.707 43.8027 262.118 44.3489 262.417 45.0826C262.8 45.9757 263.055 47.124 263.183 48.5275C263.31 49.9231 263.374 51.4302 263.374 53.057C263.374 53.7588 263.342 54.3409 263.278 54.7955C263.223 55.254 263.011 55.6487 262.64 55.9757C262.393 56.2109 262.054 56.3744 261.62 56.4701C261.193 56.5578 260.762 56.5499 260.328 56.4542C259.889 56.3505 259.538 56.1352 259.275 55.8162C259.06 55.573 258.916 55.3338 258.845 55.0985C258.769 54.8673 258.737 54.5961 258.749 54.2851C258.757 53.9661 258.765 53.5674 258.765 53.0889C258.765 52.5068 258.741 51.9366 258.701 51.3824C258.669 50.8202 258.613 50.2102 258.542 49.5483C258.466 48.8784 258.322 48.38 258.111 48.0491C257.896 47.7221 257.648 47.5547 257.361 47.5547C256.743 47.5547 256.301 47.8816 256.038 48.5275C255.77 49.1775 255.639 50.2421 255.639 51.7173C255.639 52.8976 255.607 53.7827 255.543 54.3649C255.479 54.939 255.376 55.3936 255.24 55.7205C254.993 56.3385 254.53 56.7692 253.853 57.0124C253.183 57.2436 252.485 57.2875 251.763 57.14Z" fill="#F08F3A"/>
<path d="M267.703 60.9996C267.264 60.254 267.037 59.6121 267.017 59.0698C267.005 58.5355 267.117 58.0889 267.352 57.7301C267.583 57.3672 267.862 57.1001 268.181 56.9326C268.508 56.7652 268.795 56.6575 269.043 56.6136C269.393 56.5738 269.681 56.6376 269.904 56.805C270.127 56.9645 270.311 57.1639 270.462 57.4111C270.622 57.6663 270.781 57.8936 270.94 58.0969C271.108 58.3082 271.311 58.4358 271.547 58.4797C271.778 58.5315 272.077 58.4358 272.44 58.1926C272.822 57.9374 273.145 57.5865 273.413 57.14C273.688 56.6934 273.827 56.1591 273.827 55.5291C273.827 55.3936 273.767 55.3218 273.652 55.3218C273.309 55.3218 272.986 55.3457 272.679 55.3856C272.38 55.4294 272.013 55.4613 271.578 55.4813C271.152 55.4932 270.574 55.4813 269.84 55.4494C269.561 55.4294 269.186 55.3337 268.708 55.1623C268.237 54.9948 267.751 54.7396 267.24 54.3967C266.73 54.0578 266.271 53.6312 265.869 53.1208C265.462 52.6105 265.171 52.0124 264.992 51.3186C264.808 50.6168 264.816 49.8274 265.007 48.9422C265.239 47.9015 265.554 46.9326 265.948 46.0395C266.351 45.1384 266.881 44.3888 267.543 43.7907C268.201 43.1846 269.015 42.7939 269.984 42.6105C270.948 42.4191 272.121 42.4948 273.492 42.8337C273.588 42.3872 273.847 42.0522 274.274 41.829C274.708 41.6057 275.203 41.4861 275.757 41.4621C276.319 41.4302 276.846 41.506 277.336 41.6854C277.822 41.8569 278.173 42.116 278.389 42.4669C278.536 42.7022 278.696 42.9932 278.867 43.3441C279.035 43.687 279.19 44.1495 279.33 44.7317C279.465 45.3178 279.573 46.0794 279.649 47.0124C279.72 47.9374 279.744 49.1017 279.712 50.5052C279.681 51.9087 279.561 53.6073 279.362 55.5929C279.178 57.1878 278.807 58.4837 278.245 59.4845C277.691 60.4932 277.025 61.2588 276.251 61.7811C275.486 62.3114 274.673 62.6424 273.811 62.77C272.95 62.9055 272.109 62.9015 271.291 62.754C270.47 62.6144 269.748 62.3792 269.122 62.0522C268.492 61.7333 268.022 61.3824 267.703 60.9996ZM270.813 47.3473C270.398 47.4869 270.079 47.754 269.856 48.1448C269.633 48.5275 269.521 48.9502 269.521 49.4047C269.521 49.8633 269.641 50.266 269.888 50.6168C270.143 50.9677 270.534 51.183 271.068 51.2548C272.033 51.3944 272.759 51.3983 273.237 51.2707C273.716 51.1352 273.939 50.9039 273.907 50.5849L273.716 47.6184C273.692 47.2915 273.389 47.1041 272.807 47.0602C272.232 47.0084 271.566 47.1041 270.813 47.3473Z" fill="#F08F3A"/>
<path d="M2.08797 57.14C1.51381 57.0243 1.06724 56.8649 0.74826 56.6615C0.429281 56.4502 0.229918 56.1192 0.158149 55.6727C0.114289 55.3218 0.0943528 54.8234 0.0943528 54.1735C0.0943528 53.5275 0.0943528 52.6503 0.0943528 51.5419C0.102327 50.4255 0.0943528 49.022 0.0624549 47.3314C0.0624549 46.5658 0.0465059 45.9079 0.014608 45.3537C-0.0172899 44.7915 0.00264605 44.313 0.0784038 43.9183C0.150175 43.5156 0.325612 43.1807 0.604719 42.9135C0.867877 42.6703 1.25863 42.4949 1.76899 42.3872C2.28733 42.2716 2.8296 42.2357 3.39579 42.2756C3.96995 42.3194 4.46437 42.4311 4.87904 42.6105C5.29371 42.7819 5.53295 43.0172 5.59674 43.3122C5.8918 43.1009 6.15496 42.9374 6.37824 42.8178C6.60153 42.7022 6.84475 42.6224 7.11189 42.5786C7.37505 42.5387 7.71795 42.5148 8.13263 42.5148C8.69483 42.5148 9.28494 42.5786 9.90296 42.7062C10.517 42.8258 11.0752 43.0969 11.5776 43.5196C11.8527 43.2963 12.1677 43.073 12.5186 42.8497C12.8695 42.6264 13.3081 42.443 13.8424 42.2915C14.3727 42.144 15.0385 42.0682 15.836 42.0682C16.3862 42.0682 16.9604 42.132 17.5585 42.2596C18.1526 42.3792 18.7068 42.6224 19.2171 42.9933C19.7355 43.3561 20.1462 43.9023 20.4452 44.636C20.828 45.5291 21.0832 46.6775 21.2108 48.081C21.3384 49.4765 21.4022 50.9837 21.4022 52.6105C21.4022 53.3043 21.3703 53.8784 21.3065 54.333C21.2506 54.7915 21.0393 55.1902 20.6685 55.5291C20.4213 55.7644 20.0824 55.9279 19.6478 56.0236C19.2211 56.1113 18.7905 56.1033 18.3559 56.0076C17.9173 55.9039 17.5664 55.6886 17.3033 55.3696C17.088 55.1264 16.9444 54.8872 16.8727 54.6519C16.7969 54.4207 16.761 54.1495 16.761 53.8385C16.769 53.5196 16.777 53.1169 16.777 52.6264C16.777 52.0523 16.761 51.4901 16.7291 50.9358C16.6972 50.3736 16.6374 49.7636 16.5537 49.1017C16.4899 48.4318 16.3503 47.9334 16.139 47.6025C15.9237 47.2755 15.6765 47.1081 15.3894 47.1081C14.7714 47.1081 14.3288 47.4271 14.0656 48.065C13.7985 48.703 13.6669 49.7516 13.6669 51.207C13.6868 51.506 13.6988 51.809 13.6988 52.1161C13.6988 52.4271 13.6988 52.7381 13.6988 53.057C13.6988 53.7588 13.6669 54.3409 13.6031 54.7955C13.5473 55.254 13.336 55.6488 12.9652 55.9757C12.718 56.2109 12.379 56.3744 11.9444 56.4701C11.5178 56.5578 11.0872 56.5499 10.6526 56.4542C10.214 56.3505 9.86309 56.1352 9.59993 55.8162C9.38462 55.573 9.24108 55.3338 9.16931 55.0985C9.09355 54.8673 9.06165 54.5961 9.07361 54.2851C9.08159 53.9661 9.08956 53.5674 9.08956 53.0889C9.08956 52.5068 9.06564 51.9366 9.02577 51.3824C8.99387 50.8202 8.93805 50.2102 8.86628 49.5483C8.79052 48.8784 8.64698 48.38 8.43566 48.0491C8.22035 47.7221 7.97314 47.5547 7.68606 47.5547C7.06803 47.5547 6.62545 47.8816 6.36229 48.5275C6.09515 49.1775 5.96357 50.2421 5.96357 51.7173C5.96357 52.8976 5.93167 53.7827 5.86787 54.3649C5.80408 54.939 5.70041 55.3936 5.56484 55.7205C5.31764 56.3385 4.85512 56.7692 4.17729 57.0124C3.50743 57.2436 2.80966 57.2875 2.08797 57.14Z" fill="#F08F3A"/>
<path d="M25.8543 61.7811C25.4715 61.514 25.0808 61.1751 24.69 60.7604C24.2953 60.3457 23.9644 59.8991 23.7012 59.4207C23.4341 58.9502 23.3025 58.5116 23.3025 58.0969C23.3224 57.7141 23.47 57.3234 23.7491 56.9326C24.0361 56.5299 24.403 56.2149 24.8495 55.9916C25.3998 55.7285 25.8583 55.6527 26.2211 55.7684C26.592 55.888 26.9109 56.1113 27.1781 56.4382C27.4532 56.7572 27.7203 57.1001 27.9755 57.4749C28.2188 57.7819 28.458 57.8736 28.6932 57.746C28.9245 57.6264 29.1159 57.4629 29.2674 57.2516C29.4787 56.9127 29.6661 56.4542 29.8256 55.88C29.9851 55.2979 30.021 54.62 29.9373 53.8545C29.6701 54.0698 29.3711 54.2333 29.0441 54.3489C28.7132 54.4566 28.4141 54.5084 28.151 54.5084C26.7355 54.5084 25.5912 54.1735 24.7219 53.5036C23.8607 52.8258 23.3344 51.821 23.143 50.4893C22.9715 49.4047 22.8798 48.4279 22.8719 47.5546C22.8599 46.6735 22.9277 45.7325 23.0792 44.7317C23.1629 44.1495 23.3703 43.6751 23.7012 43.3122C24.0401 42.9534 24.4987 42.77 25.0728 42.77C25.5274 42.77 25.9699 42.7859 26.3966 42.8178C26.8312 42.8497 27.214 42.9534 27.5449 43.1208C27.8719 43.2803 28.1231 43.5475 28.2945 43.9183C28.4739 44.2931 28.5337 44.8274 28.4699 45.5291C28.446 45.7006 28.4141 45.9677 28.3743 46.3266C28.3424 46.6775 28.3025 47.0363 28.2626 47.3952C28.2307 47.746 28.2068 48.0132 28.1988 48.1926C28.1749 48.8106 28.2387 49.3649 28.3902 49.8513C28.5377 50.3417 28.8049 50.5849 29.1877 50.5849C29.5904 50.5849 29.8256 50.4095 29.8894 50.0586C29.9532 49.6998 30.025 49.1615 30.1127 48.4478C30.1964 47.77 30.2403 47.0682 30.2403 46.3425C30.2483 45.6208 30.2642 45.0826 30.2881 44.7317C30.32 44.1376 30.4875 43.6791 30.7985 43.3601C31.1055 43.0331 31.4365 42.8657 31.7873 42.8657C32.5928 42.8657 33.3543 42.9574 34.068 43.1368C34.7897 43.3202 35.2682 43.703 35.5034 44.2851C35.8623 45.0826 35.954 46.8011 35.7746 49.4366C35.6669 51.0873 35.5593 52.5786 35.4556 53.9183C35.3479 55.258 35.1765 56.4462 34.9452 57.4749C34.71 58.5156 34.3551 59.4047 33.8766 60.1384C33.2786 61.0515 32.513 61.7253 31.58 62.1639C30.655 62.6105 29.6821 62.8018 28.6613 62.7381C27.6486 62.6822 26.7156 62.3633 25.8543 61.7811Z" fill="#F08F3A"/>
</svg>
