<svg width="395" height="160" viewBox="0 0 395 160" fill="none" xmlns="http://www.w3.org/2000/svg">
<path d="M7.05224 73.0602C5.49495 72.7373 4.27099 72.2946 3.38557 71.7269C2.49495 71.154 1.95849 70.2582 1.7814 69.0394C1.64078 68.0811 1.53661 66.7165 1.4689 64.9352C1.41161 63.1592 1.39078 60.7425 1.4064 57.6852C1.43245 54.6332 1.4689 50.7842 1.51057 46.1436C1.4689 43.3675 1.36474 40.555 1.19807 37.7061C1.04182 34.8623 0.948071 32.0394 0.906404 29.2477C0.849112 26.529 0.869945 24.2061 0.968904 22.2894C1.06265 20.3727 1.47411 19.055 2.19807 18.3311C2.91682 17.5967 3.92724 17.0967 5.2189 16.8311C6.52099 16.555 7.86995 16.4352 9.26057 16.4769C10.6616 16.5186 11.8647 16.7269 12.8647 17.1019C13.7658 17.4248 14.5574 17.9717 15.2397 18.7477C15.9324 19.5134 16.4116 20.555 16.6772 21.8727C16.8699 22.7373 16.9324 23.6436 16.8647 24.6019C16.7918 25.5602 16.7814 26.5394 16.8231 27.5394C16.9168 29.2373 16.9897 30.8623 17.0314 32.4144C17.0731 33.9561 17.1147 35.4352 17.1564 36.8519C18.0731 36.3415 19.1199 35.9717 20.3022 35.7477C21.4949 35.529 22.6147 35.4144 23.6564 35.4144C28.1668 35.4144 31.6772 37.1436 34.1772 40.6019C35.771 42.8415 36.9585 45.8259 37.7397 49.5602C38.5158 53.2998 38.9064 57.3936 38.9064 61.8519C38.9064 63.7686 38.8231 65.3519 38.6564 66.6019C38.5002 67.8519 37.9168 68.9352 36.9064 69.8519C35.8647 70.8519 34.5418 71.3519 32.9481 71.3519C31.3491 71.3519 30.0106 70.7113 28.9272 69.4352C28.3283 68.7582 27.9272 68.0967 27.7189 67.4561C27.5106 66.8207 27.4168 66.0707 27.4481 65.2061C27.4741 64.3467 27.4897 63.2477 27.4897 61.9144C27.4897 60.3311 27.4377 58.779 27.3439 57.2477C27.2606 55.7217 27.0991 54.0498 26.8647 52.2269C26.6824 50.3936 26.2918 49.029 25.6981 48.1227C25.1147 47.2061 24.4324 46.7477 23.6564 46.7477C21.9741 46.7477 20.5627 47.6384 19.4272 49.4144C18.2866 51.1957 17.7189 54.1123 17.7189 58.1644C17.7189 61.404 17.6199 63.8207 17.4272 65.4144C17.2449 67.0134 16.9741 68.2634 16.6147 69.1644C15.9741 70.8415 14.7189 72.0186 12.8439 72.6852C10.9793 73.3519 9.05224 73.4769 7.05224 73.0602Z" fill="#F08F3A"/>
<path d="M69.9195 71.2894C69.3205 71.1071 68.6799 70.7165 68.0028 70.1227C67.3205 69.5238 66.9299 68.6852 66.8361 67.6019L66.7736 66.9144C62.9924 68.5134 59.5549 69.1279 56.4611 68.7686C53.3622 68.3936 50.7007 67.2842 48.482 65.4352C46.2736 63.5915 44.6486 61.2581 43.607 58.4352C42.9663 56.6592 42.8153 55.055 43.1486 53.6227C43.4924 52.1956 44.1538 50.9248 45.1278 49.8102C46.1122 48.6852 47.232 47.7373 48.482 46.9561C49.7424 46.18 50.9663 45.5915 52.1486 45.1852C53.3257 44.7686 54.3049 44.5186 55.0861 44.4352C57.0028 44.2581 58.5132 44.1436 59.6278 44.1019C60.7528 44.0498 61.7111 44.0342 62.5028 44.0602C63.2945 44.0759 64.1486 44.1123 65.0653 44.1644C65.4247 44.1644 65.5653 44.0081 65.482 43.6852C65.0653 42.4509 64.5341 41.3884 63.8986 40.4977C63.258 39.6123 62.4195 38.9352 61.3778 38.4769C60.3205 38.0186 59.4924 37.8519 58.8986 37.9769C58.3153 38.0915 57.8257 38.3623 57.4403 38.7894C57.0497 39.2217 56.6747 39.7165 56.3153 40.2686C55.9507 40.8102 55.4924 41.2634 54.9403 41.6227C54.3986 41.9873 53.6695 42.1436 52.7528 42.1019C52.0705 42.1019 51.2841 41.9456 50.3986 41.6227C49.508 41.305 48.732 40.805 48.0653 40.1227C47.409 39.4456 47.0653 38.5498 47.0236 37.4352C46.982 36.3102 47.4611 34.9509 48.4611 33.3519C49.1799 32.2165 50.3257 31.1384 51.8986 30.1227C53.482 29.0967 55.3153 28.279 57.3986 27.6644C59.4924 27.0394 61.6695 26.779 63.9195 26.8727C66.1799 26.9561 68.383 27.529 70.5236 28.5811C72.6747 29.6227 74.5757 31.2842 76.232 33.5602C77.8986 35.8415 79.1382 38.9144 79.9611 42.7894C81.0549 47.8467 81.7528 51.9873 82.0445 55.2061C82.3361 58.4144 82.3778 60.9769 82.1695 62.8936C81.9716 64.7998 81.633 66.2634 81.1486 67.2894C80.6747 68.3206 80.2111 69.1488 79.7528 69.7894C79.2528 70.5081 78.0966 71.0863 76.2945 71.5186C74.5028 71.9456 72.3778 71.8727 69.9195 71.2894ZM58.5653 53.2477C57.107 53.43 56.0705 53.8206 55.4611 54.4144C54.8466 54.9977 54.5861 55.6592 54.6695 56.3936C54.7632 57.1175 55.1538 57.7269 55.8361 58.2269C56.5132 58.7269 57.4507 58.9769 58.6486 58.9769C60.6903 58.9352 62.2424 58.8206 63.3153 58.6227C64.383 58.4144 65.2632 58.1748 65.9611 57.8936C66.3622 57.6592 66.5653 57.3206 66.5653 56.8727V54.8936C66.5653 54.3415 66.4924 54.0394 66.357 53.9977C65.7736 53.68 64.9091 53.4092 63.7736 53.1852C62.633 52.9509 60.8986 52.9717 58.5653 53.2477Z" fill="#F08F3A"/>
<path d="M99.1625 77.6436C98.1052 77.9613 96.8343 78.1436 95.35 78.1852C93.876 78.2269 92.4541 78.1071 91.0791 77.8311C89.7145 77.5655 88.652 77.1123 87.8916 76.4769C87.0687 75.7946 86.6104 74.5394 86.5166 72.7061C86.4177 70.8832 86.3968 68.7061 86.4541 66.1644C86.4958 63.529 86.5895 60.8727 86.7458 58.2061C86.9125 55.5394 87.0166 52.8832 87.0583 50.2269C87.0166 45.8102 86.9802 42.18 86.9541 39.3311C86.9385 36.4873 86.975 34.2217 87.0583 32.5394C87.152 30.8623 87.2718 29.5811 87.4125 28.7061C87.6312 27.529 88.2093 26.6644 89.1416 26.1227C90.0843 25.5707 91.376 25.1592 93.0166 24.8936C95.0166 24.5186 96.9385 24.6123 98.7875 25.1644C100.631 25.7061 101.985 26.6384 102.85 27.9561C108.126 26.5967 112.506 26.5915 115.996 27.9352C119.48 29.2686 122.006 31.6019 123.579 34.9352C125.162 38.2582 125.704 42.2425 125.204 46.8936C124.923 49.3936 124.168 51.4092 122.933 52.9352C121.709 54.4665 120.209 55.6384 118.433 56.4561C116.652 57.279 114.808 57.8259 112.892 58.1019C110.975 58.3675 109.194 58.4717 107.558 58.4144C105.918 58.3467 104.647 58.2165 103.746 58.0186C103.689 59.4769 103.642 61.0186 103.6 62.6436C103.558 64.2582 103.485 65.9769 103.392 67.8102C103.35 68.7165 103.35 69.6123 103.392 70.5186C103.433 71.4352 103.392 72.2998 103.267 73.1227C102.985 74.3571 102.48 75.3363 101.746 76.0602C101.022 76.7946 100.162 77.3207 99.1625 77.6436ZM104.079 47.4977C107.131 47.8207 109.412 47.7582 110.912 47.3102C112.412 46.8519 113.397 46.1227 113.871 45.1227C114.355 44.1123 114.506 43.0134 114.329 41.8311C114.188 40.654 113.548 39.7634 112.412 39.1644C111.272 38.5707 109.954 38.2061 108.454 38.0811C106.954 37.9457 105.564 38.0082 104.287 38.2686C104.287 40.6019 104.215 43.68 104.079 47.4977Z" fill="#F08F3A"/>
<path d="M142.21 77.6436C141.152 77.9613 139.882 78.1436 138.397 78.1852C136.923 78.2269 135.501 78.1071 134.126 77.8311C132.762 77.5655 131.699 77.1123 130.939 76.4769C130.116 75.7946 129.658 74.5394 129.564 72.7061C129.465 70.8832 129.444 68.7061 129.501 66.1644C129.543 63.529 129.637 60.8727 129.793 58.2061C129.96 55.5394 130.064 52.8832 130.105 50.2269C130.064 45.8102 130.027 42.18 130.001 39.3311C129.986 36.4873 130.022 34.2217 130.105 32.5394C130.199 30.8623 130.319 29.5811 130.46 28.7061C130.678 27.529 131.257 26.6644 132.189 26.1227C133.132 25.5707 134.423 25.1592 136.064 24.8936C138.064 24.5186 139.986 24.6123 141.835 25.1644C143.678 25.7061 145.033 26.6384 145.897 27.9561C151.173 26.5967 155.553 26.5915 159.043 27.9352C162.527 29.2686 165.053 31.6019 166.626 34.9352C168.21 38.2582 168.751 42.2425 168.251 46.8936C167.97 49.3936 167.215 51.4092 165.98 52.9352C164.757 54.4665 163.257 55.6384 161.48 56.4561C159.699 57.279 157.855 57.8259 155.939 58.1019C154.022 58.3675 152.241 58.4717 150.605 58.4144C148.965 58.3467 147.694 58.2165 146.793 58.0186C146.736 59.4769 146.689 61.0186 146.647 62.6436C146.605 64.2582 146.533 65.9769 146.439 67.8102C146.397 68.7165 146.397 69.6123 146.439 70.5186C146.48 71.4352 146.439 72.2998 146.314 73.1227C146.033 74.3571 145.527 75.3363 144.793 76.0602C144.069 76.7946 143.21 77.3207 142.21 77.6436ZM147.126 47.4977C150.178 47.8207 152.46 47.7582 153.96 47.3102C155.46 46.8519 156.444 46.1227 156.918 45.1227C157.402 44.1123 157.553 43.0134 157.376 41.8311C157.236 40.654 156.595 39.7634 155.46 39.1644C154.319 38.5707 153.001 38.2061 151.501 38.0811C150.001 37.9457 148.611 38.0082 147.335 38.2686C147.335 40.6019 147.262 43.68 147.126 47.4977Z" fill="#F08F3A"/>
<path d="M180.611 81.8727C179.554 81.1488 178.491 80.2165 177.423 79.0811C176.351 77.9404 175.45 76.7165 174.715 75.4144C173.991 74.1227 173.632 72.904 173.632 71.7686C173.674 70.7113 174.08 69.6436 174.861 68.5602C175.637 67.4665 176.642 66.6175 177.882 66.0186C179.382 65.2998 180.632 65.0967 181.632 65.4144C182.632 65.7373 183.507 66.3415 184.257 67.2269C185.007 68.1175 185.726 69.0602 186.423 70.0602C187.101 70.9196 187.762 71.1748 188.403 70.8311C189.038 70.4977 189.559 70.029 189.965 69.4352C190.559 68.5342 191.075 67.2842 191.507 65.6852C191.934 64.0915 192.038 62.2425 191.819 60.1436C191.08 60.7425 190.257 61.1852 189.34 61.4769C188.434 61.7686 187.621 61.9144 186.903 61.9144C183.028 61.9144 179.903 60.9977 177.528 59.1644C175.163 57.3207 173.705 54.5707 173.153 50.9144C172.694 47.9561 172.45 45.2686 172.423 42.8519C172.408 40.4352 172.611 37.8675 173.028 35.1436C173.246 33.5498 173.809 32.2477 174.715 31.2477C175.632 30.2373 176.887 29.7269 178.486 29.7269C179.72 29.7269 180.929 29.779 182.111 29.8727C183.288 29.9717 184.33 30.2477 185.236 30.7061C186.153 31.154 186.845 31.8884 187.319 32.9144C187.804 33.9457 187.955 35.4144 187.778 37.3311C187.736 37.779 187.658 38.4925 187.548 39.4769C187.434 40.4509 187.33 41.43 187.236 42.4144C187.137 43.3884 187.069 44.1332 187.028 44.6436C186.986 46.3259 187.163 47.8415 187.569 49.1852C187.986 50.5186 188.715 51.1852 189.757 51.1852C190.851 51.1852 191.491 50.7009 191.673 49.7269C191.851 48.7425 192.059 47.2686 192.298 45.3102C192.517 43.4509 192.637 41.529 192.653 39.5394C192.679 37.555 192.72 36.0915 192.778 35.1436C192.861 33.4925 193.325 32.2269 194.173 31.3519C195.017 30.4665 195.913 30.0186 196.861 30.0186C199.095 30.0186 201.194 30.2686 203.153 30.7686C205.111 31.2686 206.408 32.3102 207.048 33.8936C208.048 36.0915 208.298 40.8102 207.798 48.0602C207.533 52.5602 207.246 56.6436 206.944 60.3102C206.653 63.9769 206.184 67.2373 205.548 70.0811C204.908 72.9248 203.929 75.3571 202.611 77.3727C200.97 79.8727 198.871 81.7269 196.319 82.9352C193.778 84.1436 191.111 84.6644 188.319 84.4977C185.538 84.3415 182.97 83.4665 180.611 81.8727Z" fill="#F08F3A"/>
<path d="M17.0314 144.16C14.1147 143.577 11.5158 142.42 9.23974 140.681C6.95848 138.946 5.09911 136.816 3.6564 134.285C2.22411 131.759 1.32828 129.009 0.968902 126.035C0.604319 123.051 0.875151 120.051 1.7814 117.035C2.73974 113.9 4.2189 111.202 6.2189 108.952C8.22932 106.691 10.5418 104.879 13.1564 103.514C15.7814 102.139 18.5158 101.233 21.3647 100.785C24.2085 100.327 26.9741 100.348 29.6564 100.848C32.3491 101.348 34.7502 102.342 36.8647 103.827C38.9897 105.301 40.6408 107.28 41.8231 109.764C43.0158 112.254 43.521 115.243 43.3439 118.743C43.2449 120.243 42.5939 121.556 41.3856 122.681C40.1772 123.795 38.6147 124.738 36.6981 125.514C34.7918 126.295 32.7033 126.889 30.4272 127.306C28.146 127.712 25.8543 127.967 23.5522 128.077C21.2449 128.191 19.1616 128.176 17.3022 128.035C18.1616 130.493 19.3231 132.113 20.7814 132.889C22.2397 133.67 23.9116 133.9 25.8022 133.577C27.6877 133.259 29.6616 132.67 31.7189 131.806C33.4533 130.889 34.8752 130.551 35.9897 130.785C37.0991 131.009 38.2241 131.92 39.3647 133.514C40.1408 134.514 40.4741 135.655 40.3647 136.931C40.2502 138.212 39.6981 139.301 38.6981 140.202C37.4168 141.384 35.8543 142.321 34.0106 143.014C32.1616 143.696 30.2241 144.165 28.1981 144.431C26.1668 144.707 24.1772 144.811 22.2189 144.743C20.2606 144.67 18.5314 144.478 17.0314 144.16ZM17.3022 119.639C17.3022 119.639 17.8127 119.66 18.8439 119.702C19.8699 119.743 21.1408 119.764 22.6564 119.764C24.1824 119.764 25.7189 119.691 27.2606 119.535C28.8127 119.368 30.1043 119.087 31.1356 118.681C32.1616 118.264 32.6772 117.676 32.6772 116.91C32.6772 115.452 32.1616 114.337 31.1356 113.556C30.1043 112.78 28.8283 112.321 27.3022 112.181C25.7866 112.045 24.2502 112.233 22.6981 112.743C21.1564 113.243 19.8699 114.077 18.8439 115.243C17.8127 116.4 17.3022 117.863 17.3022 119.639Z" fill="#F08F3A"/>
<path d="M67.7358 144.848C65.9025 144.848 64.0744 144.108 62.2567 142.639C60.4338 141.155 58.715 139.196 57.09 136.764C55.4754 134.321 54.0119 131.655 52.6942 128.764C51.3713 125.863 50.2775 122.983 49.4025 120.118C48.5379 117.243 47.9754 114.67 47.715 112.389C47.5171 110.848 47.4442 109.566 47.4858 108.535C47.5379 107.509 48.0275 106.696 48.9442 106.098C49.7046 105.598 50.6369 105.129 51.7358 104.681C52.8296 104.223 53.9494 103.905 55.09 103.723C56.2254 103.53 57.2463 103.592 58.1525 103.91C59.0692 104.233 59.7358 104.962 60.1525 106.098C60.3296 106.598 60.5796 107.363 60.9025 108.389C61.2202 109.42 61.5483 110.53 61.8817 111.723C62.2254 112.905 62.5692 114.045 62.9025 115.139C63.2463 116.223 63.5119 117.108 63.6942 117.785C64.1108 119.108 64.5379 120.545 64.9858 122.098C65.4442 123.639 65.9233 124.952 66.4233 126.035C66.9233 127.108 67.4702 127.639 68.0692 127.639C68.9859 127.639 69.6421 126.775 70.0483 125.035C70.6838 122.535 71.2671 120.092 71.7983 117.702C72.3244 115.301 72.8713 113.15 73.4442 111.243C74.0119 109.327 74.6786 107.801 75.4442 106.66C76.2202 105.525 77.1577 104.952 78.2567 104.952C79.7567 104.952 81.1317 105.113 82.3817 105.431C83.6317 105.738 84.5952 106.42 85.2775 107.473C85.9702 108.514 86.2463 110.113 86.1108 112.264C85.9702 114.405 85.2411 117.275 83.9233 120.868C82.1838 125.65 80.5744 129.842 79.09 133.452C77.6161 137.051 75.9911 139.848 74.215 141.848C72.4338 143.848 70.2775 144.848 67.7358 144.848Z" fill="#F08F3A"/>
<path d="M106.406 144.16C103.489 143.577 100.89 142.42 98.6139 140.681C96.3326 138.946 94.4733 136.816 93.0305 134.285C91.5983 131.759 90.7024 129.009 90.343 126.035C89.9785 123.051 90.2493 120.051 91.1555 117.035C92.1139 113.9 93.593 111.202 95.593 108.952C97.6035 106.691 99.916 104.879 102.531 103.514C105.156 102.139 107.89 101.233 110.739 100.785C113.583 100.327 116.348 100.348 119.031 100.848C121.723 101.348 124.124 102.342 126.239 103.827C128.364 105.301 130.015 107.28 131.197 109.764C132.39 112.254 132.895 115.243 132.718 118.743C132.619 120.243 131.968 121.556 130.76 122.681C129.551 123.795 127.989 124.738 126.072 125.514C124.166 126.295 122.077 126.889 119.801 127.306C117.52 127.712 115.228 127.967 112.926 128.077C110.619 128.191 108.536 128.176 106.676 128.035C107.536 130.493 108.697 132.113 110.156 132.889C111.614 133.67 113.286 133.9 115.176 133.577C117.062 133.259 119.036 132.67 121.093 131.806C122.827 130.889 124.249 130.551 125.364 130.785C126.473 131.009 127.598 131.92 128.739 133.514C129.515 134.514 129.848 135.655 129.739 136.931C129.624 138.212 129.072 139.301 128.072 140.202C126.791 141.384 125.228 142.321 123.385 143.014C121.536 143.696 119.598 144.165 117.572 144.431C115.541 144.707 113.551 144.811 111.593 144.743C109.635 144.67 107.906 144.478 106.406 144.16ZM106.676 119.639C106.676 119.639 107.187 119.66 108.218 119.702C109.244 119.743 110.515 119.764 112.031 119.764C113.557 119.764 115.093 119.691 116.635 119.535C118.187 119.368 119.478 119.087 120.51 118.681C121.536 118.264 122.051 117.676 122.051 116.91C122.051 115.452 121.536 114.337 120.51 113.556C119.478 112.78 118.202 112.321 116.676 112.181C115.161 112.045 113.624 112.233 112.072 112.743C110.531 113.243 109.244 114.077 108.218 115.243C107.187 116.4 106.676 117.863 106.676 119.639Z" fill="#F08F3A"/>
<path d="M143.631 144.514C142.089 144.275 140.86 143.874 139.943 143.306C139.037 142.738 138.469 141.863 138.235 140.681C138.094 139.723 137.99 138.358 137.923 136.577C137.865 134.801 137.787 132.389 137.693 129.348C137.594 126.295 137.433 122.441 137.214 117.785C137.131 115.691 137.027 113.884 136.902 112.368C136.787 110.842 136.808 109.53 136.964 108.431C137.131 107.337 137.579 106.4 138.318 105.618C138.995 104.9 140.037 104.379 141.443 104.056C142.86 103.738 144.329 103.598 145.86 103.639C147.386 103.681 148.74 103.926 149.923 104.368C151.115 104.801 151.803 105.426 151.985 106.243C152.803 105.608 153.506 105.118 154.089 104.785C154.683 104.441 155.344 104.197 156.068 104.056C156.803 103.92 157.74 103.848 158.881 103.848C160.797 103.848 162.662 104.42 164.485 105.556C166.303 106.697 167.886 108.223 169.235 110.139C170.579 112.056 171.49 114.191 171.964 116.535C172.449 118.868 172.282 121.223 171.464 123.598C171.225 124.28 170.631 124.806 169.673 125.181C168.714 125.545 167.662 125.738 166.527 125.764C165.386 125.78 164.391 125.608 163.548 125.243C162.714 124.884 162.277 124.316 162.235 123.535L161.339 119.973C161.157 119.254 160.839 118.681 160.381 118.264C160.157 118.045 159.86 117.889 159.485 117.806C159.12 117.712 158.74 117.66 158.339 117.66H158.131C156.433 117.702 155.256 118.634 154.589 120.452C153.933 122.275 153.678 125.212 153.818 129.264C153.912 132.504 153.902 134.92 153.777 136.514C153.662 138.113 153.428 139.363 153.068 140.264C152.469 141.962 151.261 143.17 149.443 143.889C147.62 144.624 145.683 144.832 143.631 144.514Z" fill="#F08F3A"/>
<path d="M184.369 156.806C183.312 156.082 182.249 155.15 181.182 154.014C180.109 152.874 179.208 151.65 178.473 150.348C177.749 149.056 177.39 147.837 177.39 146.702C177.432 145.644 177.838 144.577 178.619 143.493C179.395 142.4 180.4 141.551 181.64 140.952C183.14 140.233 184.39 140.03 185.39 140.348C186.39 140.67 187.265 141.275 188.015 142.16C188.765 143.051 189.484 143.993 190.182 144.993C190.859 145.853 191.52 146.108 192.161 145.764C192.796 145.431 193.317 144.962 193.723 144.368C194.317 143.467 194.833 142.217 195.265 140.618C195.692 139.025 195.796 137.176 195.577 135.077C194.838 135.676 194.015 136.118 193.098 136.41C192.192 136.702 191.379 136.848 190.661 136.848C186.786 136.848 183.661 135.931 181.286 134.098C178.921 132.254 177.463 129.504 176.911 125.848C176.452 122.889 176.208 120.202 176.182 117.785C176.166 115.368 176.369 112.801 176.786 110.077C177.004 108.483 177.567 107.181 178.473 106.181C179.39 105.17 180.645 104.66 182.244 104.66C183.478 104.66 184.687 104.712 185.869 104.806C187.046 104.905 188.088 105.181 188.994 105.639C189.911 106.087 190.603 106.821 191.077 107.848C191.562 108.879 191.713 110.348 191.536 112.264C191.494 112.712 191.416 113.426 191.307 114.41C191.192 115.384 191.088 116.363 190.994 117.348C190.895 118.321 190.827 119.066 190.786 119.577C190.744 121.259 190.921 122.775 191.327 124.118C191.744 125.452 192.473 126.118 193.515 126.118C194.609 126.118 195.249 125.634 195.432 124.66C195.609 123.676 195.817 122.202 196.057 120.243C196.275 118.384 196.395 116.462 196.411 114.473C196.437 112.488 196.478 111.025 196.536 110.077C196.619 108.426 197.083 107.16 197.932 106.285C198.775 105.4 199.671 104.952 200.619 104.952C202.853 104.952 204.952 105.202 206.911 105.702C208.869 106.202 210.166 107.243 210.807 108.827C211.807 111.025 212.057 115.743 211.557 122.993C211.291 127.493 211.004 131.577 210.702 135.243C210.411 138.91 209.942 142.17 209.307 145.014C208.666 147.858 207.687 150.29 206.369 152.306C204.728 154.806 202.629 156.66 200.077 157.868C197.536 159.077 194.869 159.598 192.077 159.431C189.296 159.275 186.728 158.4 184.369 156.806Z" fill="#F08F3A"/>
<path d="M241.568 147.243C239.094 147.243 236.698 146.941 234.381 146.348C232.058 145.764 229.964 144.686 228.089 143.118C226.224 141.535 224.735 139.301 223.61 136.41C222.495 133.525 221.901 129.801 221.818 125.243C221.818 124.243 221.823 123.087 221.839 121.764C221.865 120.431 221.901 118.926 221.943 117.243H221.881C220.282 117.243 218.985 116.816 217.985 115.952C216.61 114.759 215.922 113.254 215.922 111.431C215.922 109.889 216.401 108.681 217.36 107.806C218.495 106.764 219.954 106.243 221.735 106.243H222.36C222.401 105.384 222.443 104.488 222.485 103.556C222.537 102.613 222.589 101.639 222.631 100.639C222.672 99.8632 222.672 99.1132 222.631 98.3892C222.589 97.6548 222.631 96.9673 222.756 96.3267C222.99 95.3684 223.433 94.5975 224.089 94.0142C224.756 93.4205 225.516 93.009 226.381 92.785C227.339 92.509 228.49 92.3163 229.839 92.2017C231.183 92.0923 232.448 92.1965 233.631 92.5142C234.808 92.8215 235.651 93.4517 236.151 94.41C236.568 95.1913 236.745 96.3059 236.693 97.7642C236.651 99.2225 236.589 100.983 236.506 103.035C236.448 103.577 236.422 104.129 236.422 104.681C236.422 105.223 236.401 105.743 236.36 106.243H237.589C239.599 106.243 241.11 106.816 242.11 107.952C243.11 109.092 243.61 110.342 243.61 111.702C243.61 112.342 243.516 112.962 243.339 113.556C242.974 114.78 242.495 115.618 241.901 116.077C241.261 116.676 240.511 116.993 239.651 117.035C238.776 117.176 237.839 117.243 236.839 117.243H236.026C235.928 121.259 235.99 124.613 236.214 127.306C236.448 129.988 237.053 132.014 238.026 133.389C239.011 134.754 240.532 135.431 242.589 135.431C243.349 135.431 243.969 135.827 244.443 136.618C244.928 137.41 245.224 138.389 245.339 139.556C245.464 140.723 245.407 141.9 245.172 143.077C244.948 144.254 244.526 145.243 243.901 146.035C243.287 146.837 242.511 147.243 241.568 147.243Z" fill="#F08F3A"/>
<path d="M255.701 147.993C254.144 147.67 252.92 147.228 252.034 146.66C251.144 146.087 250.607 145.191 250.43 143.973C250.289 143.014 250.185 141.65 250.118 139.868C250.06 138.092 250.039 135.676 250.055 132.618C250.081 129.566 250.118 125.717 250.159 121.077C250.118 118.301 250.013 115.488 249.847 112.639C249.691 109.795 249.597 106.973 249.555 104.181C249.498 101.462 249.519 99.1392 249.618 97.2225C249.711 95.3059 250.123 93.9882 250.847 93.2642C251.566 92.5298 252.576 92.0298 253.868 91.7642C255.17 91.4882 256.519 91.3684 257.909 91.41C259.31 91.4517 260.513 91.66 261.513 92.035C262.414 92.358 263.206 92.9048 263.888 93.6809C264.581 94.4465 265.06 95.4882 265.326 96.8059C265.519 97.6704 265.581 98.5767 265.513 99.535C265.441 100.493 265.43 101.473 265.472 102.473C265.566 104.17 265.638 105.795 265.68 107.348C265.722 108.889 265.763 110.368 265.805 111.785C266.722 111.275 267.769 110.905 268.951 110.681C270.144 110.462 271.263 110.348 272.305 110.348C276.816 110.348 280.326 112.077 282.826 115.535C284.42 117.775 285.607 120.759 286.388 124.493C287.164 128.233 287.555 132.327 287.555 136.785C287.555 138.702 287.472 140.285 287.305 141.535C287.149 142.785 286.566 143.868 285.555 144.785C284.513 145.785 283.191 146.285 281.597 146.285C279.998 146.285 278.659 145.644 277.576 144.368C276.977 143.691 276.576 143.03 276.368 142.389C276.159 141.754 276.066 141.004 276.097 140.139C276.123 139.28 276.138 138.181 276.138 136.848C276.138 135.264 276.086 133.712 275.993 132.181C275.909 130.655 275.748 128.983 275.513 127.16C275.331 125.327 274.941 123.962 274.347 123.056C273.763 122.139 273.081 121.681 272.305 121.681C270.623 121.681 269.211 122.571 268.076 124.348C266.935 126.129 266.368 129.045 266.368 133.098C266.368 136.337 266.269 138.754 266.076 140.348C265.894 141.946 265.623 143.196 265.263 144.098C264.623 145.775 263.368 146.952 261.493 147.618C259.628 148.285 257.701 148.41 255.701 147.993Z" fill="#F08F3A"/>
<path d="M297.527 148.139C296.068 147.9 294.912 147.556 294.068 147.098C293.219 146.65 292.704 145.952 292.527 144.993C292.428 144.212 292.344 143.129 292.277 141.723C292.219 140.306 292.193 138.384 292.193 135.952C292.193 133.509 292.214 130.441 292.256 126.743C292.256 124.551 292.162 122.327 291.985 120.077C291.803 117.827 291.683 115.587 291.631 113.348C291.631 111.17 291.662 109.316 291.735 107.785C291.803 106.259 292.204 105.196 292.943 104.598C293.662 104.056 294.631 103.676 295.839 103.452C297.047 103.217 298.308 103.129 299.631 103.181C300.948 103.223 302.089 103.379 303.047 103.639C303.922 103.879 304.698 104.316 305.381 104.952C306.058 105.577 306.49 106.42 306.672 107.473C306.808 108.155 306.849 108.884 306.797 109.66C306.756 110.441 306.761 111.212 306.818 111.973C306.995 118.264 307.152 123.405 307.277 127.389C307.412 131.379 307.495 134.535 307.527 136.868C307.553 139.191 307.495 140.952 307.36 142.16C307.219 143.368 306.969 144.332 306.61 145.056C306.011 146.374 304.839 147.295 303.089 147.827C301.339 148.353 299.485 148.457 297.527 148.139ZM291.777 95.6392C291.777 93.9204 292.448 92.5715 293.797 91.5975C295.141 90.6132 296.995 90.1184 299.36 90.1184C301.636 90.1184 303.469 90.5975 304.86 91.5559C306.245 92.5038 306.943 93.8632 306.943 95.6392C306.943 97.3371 306.287 98.6809 304.985 99.6809C303.693 100.681 301.818 101.181 299.36 101.181C296.86 101.181 294.969 100.66 293.693 99.6184C292.412 98.5663 291.777 97.2382 291.777 95.6392Z" fill="#F08F3A"/>
<path d="M317.339 144.098C315.781 143.78 314.557 143.337 313.672 142.764C312.781 142.196 312.245 141.301 312.068 140.077C311.927 139.118 311.859 137.754 311.859 135.973C311.859 134.196 311.87 131.78 311.901 128.723C311.927 125.67 311.891 121.821 311.797 117.181C311.797 115.087 311.745 113.275 311.651 111.743C311.568 110.217 311.62 108.91 311.818 107.827C312.026 106.733 312.516 105.816 313.297 105.077C314.031 104.4 315.099 103.91 316.505 103.618C317.922 103.316 319.401 103.223 320.943 103.348C322.495 103.462 323.844 103.759 324.984 104.243C326.12 104.717 326.781 105.363 326.964 106.181C327.781 105.587 328.495 105.129 329.109 104.806C329.734 104.488 330.406 104.275 331.13 104.16C331.865 104.051 332.802 103.993 333.943 103.993C335.443 103.993 337.01 104.17 338.651 104.514C340.286 104.848 341.818 105.514 343.234 106.514C344.651 107.514 345.766 109.014 346.589 111.014C347.63 113.488 348.318 116.639 348.651 120.473C348.995 124.295 349.172 128.431 349.172 132.889C349.172 134.806 349.089 136.389 348.922 137.639C348.766 138.889 348.193 139.973 347.193 140.889C346.51 141.53 345.573 141.973 344.38 142.223C343.198 142.473 342.016 142.467 340.839 142.202C339.656 141.926 338.698 141.348 337.964 140.473C337.38 139.795 336.984 139.134 336.776 138.493C336.568 137.858 336.469 137.108 336.484 136.243C336.51 135.384 336.526 134.285 336.526 132.952C336.526 131.368 336.474 129.816 336.38 128.285C336.297 126.759 336.141 125.087 335.922 123.264C335.74 121.431 335.349 120.066 334.755 119.16C334.156 118.243 333.474 117.785 332.714 117.785C331.016 117.785 329.802 118.676 329.068 120.452C328.344 122.233 327.984 125.15 327.984 129.202C327.984 132.441 327.891 134.858 327.714 136.452C327.531 138.051 327.26 139.301 326.901 140.202C326.219 141.9 324.953 143.077 323.109 143.743C321.26 144.394 319.339 144.514 317.339 144.098Z" fill="#F08F3A"/>
<path d="M361.055 154.702C359.873 152.644 359.263 150.874 359.222 149.389C359.18 147.915 359.472 146.686 360.097 145.702C360.732 144.728 361.498 144.004 362.388 143.535C363.274 143.051 364.06 142.759 364.742 142.66C365.701 142.525 366.482 142.681 367.097 143.139C367.722 143.598 368.232 144.165 368.638 144.848C369.055 145.525 369.492 146.15 369.951 146.723C370.409 147.29 370.951 147.644 371.576 147.785C372.211 147.92 373.039 147.65 374.055 146.973C375.097 146.29 375.992 145.332 376.742 144.098C377.492 142.879 377.867 141.4 377.867 139.66C377.867 139.301 377.706 139.118 377.388 139.118C376.43 139.118 375.539 139.176 374.722 139.285C373.899 139.4 372.899 139.483 371.722 139.535C370.539 139.577 368.94 139.551 366.93 139.452C366.164 139.41 365.128 139.155 363.826 138.681C362.534 138.196 361.19 137.488 359.805 136.556C358.414 135.613 357.159 134.446 356.034 133.056C354.92 131.67 354.117 130.025 353.617 128.118C353.117 126.202 353.138 124.035 353.68 121.618C354.315 118.743 355.18 116.077 356.263 113.618C357.357 111.16 358.81 109.113 360.617 107.473C362.42 105.837 364.649 104.754 367.305 104.223C369.972 103.696 373.17 103.91 376.909 104.868C377.185 103.65 377.914 102.733 379.097 102.118C380.289 101.493 381.644 101.15 383.159 101.077C384.685 101.009 386.123 101.217 387.472 101.702C388.815 102.176 389.789 102.889 390.388 103.848C390.789 104.488 391.222 105.285 391.68 106.243C392.138 107.202 392.555 108.483 392.93 110.077C393.315 111.66 393.617 113.733 393.826 116.285C394.034 118.842 394.086 122.045 393.992 125.889C393.909 129.738 393.597 134.4 393.055 139.868C392.539 144.243 391.519 147.806 389.992 150.556C388.477 153.316 386.659 155.415 384.534 156.848C382.42 158.275 380.18 159.17 377.805 159.535C375.43 159.91 373.123 159.9 370.888 159.514C368.664 159.124 366.685 158.483 364.951 157.598C363.227 156.707 361.93 155.743 361.055 154.702ZM369.597 117.243C368.456 117.608 367.581 118.321 366.972 119.389C366.357 120.462 366.055 121.629 366.055 122.889C366.055 124.139 366.394 125.243 367.076 126.202C367.753 127.16 368.826 127.754 370.284 127.973C372.92 128.337 374.899 128.337 376.222 127.973C377.555 127.613 378.17 126.993 378.076 126.118L377.534 117.993C377.492 117.077 376.67 116.556 375.076 116.431C373.477 116.295 371.649 116.566 369.597 117.243Z" fill="#F08F3A"/>
<path d="M331.926 61.5929C332.927 61.8819 333.939 62.171 334.961 62.4654C337.332 55.046 336.888 46.9895 333.842 39.736C326.525 20.5558 301.507 13.6824 284.454 23.6124C273.005 30.3734 267.213 40.1268 264.751 51.9733C286.493 51.3684 310.36 55.3136 331.926 61.5929ZM224.986 58.2097C236.2 54.5589 250.743 52.2624 264.596 51.9786C267.202 26.7708 294.661 9.88699 318.47 21.6103C333.259 28.4195 341.373 47.3107 336.09 62.8294C354.423 68.0273 371.091 78.391 384.007 89.9323C385.078 90.9066 385.035 90.9601 383.884 90.0876C370.454 79.2796 354.091 68.9427 335.759 63.9322L335.753 63.9375C302.524 53.6328 262.438 49.088 229.879 57.2622C228.551 57.5084 220.024 59.8638 224.986 58.2097Z" fill="#F08F3A"/>
<path d="M284.454 23.6124C301.507 13.6877 326.526 20.5558 333.837 39.7361C336.888 46.9896 337.332 55.046 334.961 62.4654C333.939 62.171 332.927 61.8819 331.926 61.5929C310.36 55.3136 286.493 51.3684 264.751 51.9733C267.213 40.1215 272.999 30.3734 284.454 23.6124Z" fill="#F08F3A"/>
<path d="M364.497 64.8368C364.824 65.779 342.016 57.9367 342.857 57.4013C342.546 56.4645 365.311 64.2962 364.497 64.8368Z" fill="#F08F3A"/>
<path d="M357.34 44.95C345.377 45.8225 345.286 44.5592 357.249 43.7241C369.212 42.8515 369.303 44.1149 357.34 44.95Z" fill="#F08F3A"/>
<path d="M345.651 28.7139C337.038 32.445 336.551 31.278 345.18 27.579C353.835 23.9068 354.306 25.0845 345.651 28.7139Z" fill="#F08F3A"/>
<path d="M327.741 18.9339C326.932 18.7947 332.676 9.03594 333.254 9.61943C334.067 9.75861 328.324 19.5174 327.741 18.9339Z" fill="#F08F3A"/>
<path d="M307.647 11.3805C306.822 11.4822 307.845 2.41937 308.605 2.85833C309.429 2.75127 308.407 11.8195 307.647 11.3805Z" fill="#F08F3A"/>
<path d="M283.769 5.28334C281.183 -1.33848 282.238 -1.90591 284.893 4.79085C287.794 11.1825 286.654 11.7178 283.769 5.28334Z" fill="#F08F3A"/>
<path d="M264.547 15.3204C255.999 9.81743 256.695 8.76822 265.238 14.3087C273.513 20.2025 272.769 21.2357 264.547 15.3204Z" fill="#F08F3A"/>
<path d="M264.885 35.9032C265.206 36.5349 245.84 29.9666 246.477 29.6561C246.349 28.4838 265.709 35.0521 264.885 35.9032Z" fill="#F08F3A"/>
<path d="M257.076 47.1019C257.397 47.9263 240.75 46.2829 241.226 45.5442C240.9 44.7252 257.552 46.3632 257.076 47.1019Z" fill="#F08F3A"/>
</svg>
