<svg width="394" height="160" viewBox="0 0 394 160" fill="none" xmlns="http://www.w3.org/2000/svg">
<path d="M6.87646 73.0602C5.31916 72.7373 4.09521 72.2946 3.20979 71.7269C2.31916 71.154 1.78271 70.2582 1.60562 69.0394C1.465 68.0811 1.36083 66.7165 1.29312 64.9352C1.23583 63.1592 1.215 60.7425 1.23062 57.6852C1.25666 54.6332 1.29312 50.7842 1.33479 46.1436C1.29312 43.3675 1.18896 40.555 1.02229 37.7061C0.866039 34.8623 0.772289 32.0394 0.730623 29.2477C0.673331 26.529 0.694164 24.2061 0.793123 22.2894C0.886873 20.3727 1.29833 19.055 2.02229 18.3311C2.74104 17.5967 3.75146 17.0967 5.04312 16.8311C6.34521 16.555 7.69416 16.4352 9.08479 16.4769C10.4858 16.5186 11.689 16.7269 12.689 17.1019C13.59 17.4248 14.3817 17.9717 15.064 18.7477C15.7567 19.5134 16.2358 20.555 16.5015 21.8727C16.6942 22.7373 16.7567 23.6436 16.689 24.6019C16.616 25.5602 16.6056 26.5394 16.6473 27.5394C16.741 29.2373 16.814 30.8623 16.8556 32.4144C16.8973 33.9561 16.939 35.4352 16.9806 36.8519C17.8973 36.3415 18.9442 35.9717 20.1265 35.7477C21.3192 35.529 22.439 35.4144 23.4806 35.4144C27.991 35.4144 31.5015 37.1436 34.0015 40.6019C35.5952 42.8415 36.7827 45.8259 37.564 49.5602C38.34 53.2998 38.7306 57.3936 38.7306 61.8519C38.7306 63.7686 38.6473 65.3519 38.4806 66.6019C38.3244 67.8519 37.741 68.9352 36.7306 69.8519C35.689 70.8519 34.366 71.3519 32.7723 71.3519C31.1733 71.3519 29.8348 70.7113 28.7515 69.4352C28.1525 68.7582 27.7515 68.0967 27.5431 67.4561C27.3348 66.8207 27.241 66.0707 27.2723 65.2061C27.2983 64.3467 27.314 63.2477 27.314 61.9144C27.314 60.3311 27.2619 58.779 27.1681 57.2477C27.0848 55.7217 26.9233 54.0498 26.689 52.2269C26.5067 50.3936 26.116 49.029 25.5223 48.1227C24.939 47.2061 24.2567 46.7477 23.4806 46.7477C21.7983 46.7477 20.3869 47.6384 19.2515 49.4144C18.1108 51.1957 17.5431 54.1123 17.5431 58.1644C17.5431 61.404 17.4442 63.8207 17.2515 65.4144C17.0692 67.0134 16.7983 68.2634 16.439 69.1644C15.7983 70.8415 14.5431 72.0186 12.6681 72.6852C10.8035 73.3519 8.87646 73.4769 6.87646 73.0602Z" fill="#D5DCF2"/>
<path d="M69.7437 71.2894C69.1447 71.1071 68.5041 70.7165 67.827 70.1227C67.1447 69.5238 66.7541 68.6852 66.6604 67.6019L66.5979 66.9144C62.8166 68.5134 59.3791 69.1279 56.2854 68.7686C53.1864 68.3936 50.5249 67.2842 48.3062 65.4352C46.0979 63.5915 44.4729 61.2581 43.4312 58.4352C42.7906 56.6592 42.6395 55.055 42.9729 53.6227C43.3166 52.1956 43.9781 50.9248 44.952 49.8102C45.9364 48.6852 47.0562 47.7373 48.3062 46.9561C49.5666 46.18 50.7906 45.5915 51.9729 45.1852C53.1499 44.7686 54.1291 44.5186 54.9104 44.4352C56.827 44.2581 58.3374 44.1436 59.452 44.1019C60.577 44.0498 61.5354 44.0342 62.327 44.0602C63.1187 44.0759 63.9729 44.1123 64.8895 44.1644C65.2489 44.1644 65.3895 44.0081 65.3062 43.6852C64.8895 42.4509 64.3583 41.3884 63.7229 40.4977C63.0822 39.6123 62.2437 38.9352 61.202 38.4769C60.1447 38.0186 59.3166 37.8519 58.7229 37.9769C58.1395 38.0915 57.6499 38.3623 57.2645 38.7894C56.8739 39.2217 56.4989 39.7165 56.1395 40.2686C55.7749 40.8102 55.3166 41.2634 54.7645 41.6227C54.2229 41.9873 53.4937 42.1436 52.577 42.1019C51.8947 42.1019 51.1083 41.9456 50.2229 41.6227C49.3322 41.305 48.5562 40.805 47.8895 40.1227C47.2333 39.4456 46.8895 38.5498 46.8479 37.4352C46.8062 36.3102 47.2854 34.9509 48.2854 33.3519C49.0041 32.2165 50.1499 31.1384 51.7229 30.1227C53.3062 29.0967 55.1395 28.279 57.2229 27.6644C59.3166 27.0394 61.4937 26.779 63.7437 26.8727C66.0041 26.9561 68.2072 27.529 70.3479 28.5811C72.4989 29.6227 74.3999 31.2842 76.0562 33.5602C77.7229 35.8415 78.9624 38.9144 79.7854 42.7894C80.8791 47.8467 81.577 51.9873 81.8687 55.2061C82.1604 58.4144 82.202 60.9769 81.9937 62.8936C81.7958 64.7998 81.4572 66.2634 80.9729 67.2894C80.4989 68.3206 80.0354 69.1488 79.577 69.7894C79.077 70.5081 77.9208 71.0863 76.1187 71.5186C74.327 71.9456 72.202 71.8727 69.7437 71.2894ZM58.3895 53.2477C56.9312 53.43 55.8947 53.8206 55.2854 54.4144C54.6708 54.9977 54.4104 55.6592 54.4937 56.3936C54.5874 57.1175 54.9781 57.7269 55.6604 58.2269C56.3374 58.7269 57.2749 58.9769 58.4729 58.9769C60.5145 58.9352 62.0666 58.8206 63.1395 58.6227C64.2072 58.4144 65.0874 58.1748 65.7854 57.8936C66.1864 57.6592 66.3895 57.3206 66.3895 56.8727V54.8936C66.3895 54.3415 66.3166 54.0394 66.1812 53.9977C65.5979 53.68 64.7333 53.4092 63.5979 53.1852C62.4572 52.9509 60.7229 52.9717 58.3895 53.2477Z" fill="#D5DCF2"/>
<path d="M98.9867 77.6436C97.9294 77.9613 96.6586 78.1436 95.1742 78.1852C93.7002 78.2269 92.2783 78.1071 90.9033 77.8311C89.5388 77.5655 88.4763 77.1123 87.7158 76.4769C86.8929 75.7946 86.4346 74.5394 86.3408 72.7061C86.2419 70.8832 86.2211 68.7061 86.2783 66.1644C86.32 63.529 86.4138 60.8727 86.57 58.2061C86.7367 55.5394 86.8408 52.8832 86.8825 50.2269C86.8408 45.8102 86.8044 42.18 86.7783 39.3311C86.7627 36.4873 86.7992 34.2217 86.8825 32.5394C86.9763 30.8623 87.0961 29.5811 87.2367 28.7061C87.4554 27.529 88.0336 26.6644 88.9658 26.1227C89.9086 25.5707 91.2002 25.1592 92.8408 24.8936C94.8408 24.5186 96.7627 24.6123 98.6117 25.1644C100.455 25.7061 101.81 26.6384 102.674 27.9561C107.95 26.5967 112.33 26.5915 115.82 27.9352C119.304 29.2686 121.83 31.6019 123.403 34.9352C124.987 38.2582 125.528 42.2425 125.028 46.8936C124.747 49.3936 123.992 51.4092 122.758 52.9352C121.534 54.4665 120.034 55.6384 118.258 56.4561C116.476 57.279 114.633 57.8259 112.716 58.1019C110.799 58.3675 109.018 58.4717 107.383 58.4144C105.742 58.3467 104.471 58.2165 103.57 58.0186C103.513 59.4769 103.466 61.0186 103.424 62.6436C103.383 64.2582 103.31 65.9769 103.216 67.8102C103.174 68.7165 103.174 69.6123 103.216 70.5186C103.258 71.4352 103.216 72.2998 103.091 73.1227C102.81 74.3571 102.304 75.3363 101.57 76.0602C100.846 76.7946 99.9867 77.3207 98.9867 77.6436ZM103.903 47.4977C106.955 47.8207 109.237 47.7582 110.737 47.3102C112.237 46.8519 113.221 46.1227 113.695 45.1227C114.179 44.1123 114.33 43.0134 114.153 41.8311C114.013 40.654 113.372 39.7634 112.237 39.1644C111.096 38.5707 109.778 38.2061 108.278 38.0811C106.778 37.9457 105.388 38.0082 104.112 38.2686C104.112 40.6019 104.039 43.68 103.903 47.4977Z" fill="#D5DCF2"/>
<path d="M142.034 77.6436C140.977 77.9613 139.706 78.1436 138.221 78.1852C136.747 78.2269 135.326 78.1071 133.951 77.8311C132.586 77.5655 131.523 77.1123 130.763 76.4769C129.94 75.7946 129.482 74.5394 129.388 72.7061C129.289 70.8832 129.268 68.7061 129.326 66.1644C129.367 63.529 129.461 60.8727 129.617 58.2061C129.784 55.5394 129.888 52.8832 129.93 50.2269C129.888 45.8102 129.852 42.18 129.826 39.3311C129.81 36.4873 129.846 34.2217 129.93 32.5394C130.023 30.8623 130.143 29.5811 130.284 28.7061C130.503 27.529 131.081 26.6644 132.013 26.1227C132.956 25.5707 134.247 25.1592 135.888 24.8936C137.888 24.5186 139.81 24.6123 141.659 25.1644C143.503 25.7061 144.857 26.6384 145.721 27.9561C150.997 26.5967 155.378 26.5915 158.867 27.9352C162.352 29.2686 164.878 31.6019 166.451 34.9352C168.034 38.2582 168.576 42.2425 168.076 46.8936C167.794 49.3936 167.039 51.4092 165.805 52.9352C164.581 54.4665 163.081 55.6384 161.305 56.4561C159.523 57.279 157.68 57.8259 155.763 58.1019C153.846 58.3675 152.065 58.4717 150.43 58.4144C148.789 58.3467 147.518 58.2165 146.617 58.0186C146.56 59.4769 146.513 61.0186 146.471 62.6436C146.43 64.2582 146.357 65.9769 146.263 67.8102C146.221 68.7165 146.221 69.6123 146.263 70.5186C146.305 71.4352 146.263 72.2998 146.138 73.1227C145.857 74.3571 145.352 75.3363 144.617 76.0602C143.893 76.7946 143.034 77.3207 142.034 77.6436ZM146.951 47.4977C150.003 47.8207 152.284 47.7582 153.784 47.3102C155.284 46.8519 156.268 46.1227 156.742 45.1227C157.227 44.1123 157.378 43.0134 157.201 41.8311C157.06 40.654 156.419 39.7634 155.284 39.1644C154.143 38.5707 152.826 38.2061 151.326 38.0811C149.826 37.9457 148.435 38.0082 147.159 38.2686C147.159 40.6019 147.086 43.68 146.951 47.4977Z" fill="#D5DCF2"/>
<path d="M180.435 81.8727C179.378 81.1488 178.315 80.2165 177.248 79.0811C176.175 77.9404 175.274 76.7165 174.539 75.4144C173.815 74.1227 173.456 72.904 173.456 71.7686C173.498 70.7113 173.904 69.6436 174.685 68.5602C175.461 67.4665 176.466 66.6175 177.706 66.0186C179.206 65.2998 180.456 65.0967 181.456 65.4144C182.456 65.7373 183.331 66.3415 184.081 67.2269C184.831 68.1175 185.55 69.0602 186.248 70.0602C186.925 70.9196 187.586 71.1748 188.227 70.8311C188.862 70.4977 189.383 70.029 189.789 69.4352C190.383 68.5342 190.899 67.2842 191.331 65.6852C191.758 64.0915 191.862 62.2425 191.644 60.1436C190.904 60.7425 190.081 61.1852 189.164 61.4769C188.258 61.7686 187.446 61.9144 186.727 61.9144C182.852 61.9144 179.727 60.9977 177.352 59.1644C174.987 57.3207 173.529 54.5707 172.977 50.9144C172.519 47.9561 172.274 45.2686 172.248 42.8519C172.232 40.4352 172.435 37.8675 172.852 35.1436C173.071 33.5498 173.633 32.2477 174.539 31.2477C175.456 30.2373 176.711 29.7269 178.31 29.7269C179.545 29.7269 180.753 29.779 181.935 29.8727C183.112 29.9717 184.154 30.2477 185.06 30.7061C185.977 31.154 186.67 31.8884 187.144 32.9144C187.628 33.9457 187.779 35.4144 187.602 37.3311C187.56 37.779 187.482 38.4925 187.373 39.4769C187.258 40.4509 187.154 41.43 187.06 42.4144C186.961 43.3884 186.894 44.1332 186.852 44.6436C186.81 46.3259 186.987 47.8415 187.394 49.1852C187.81 50.5186 188.539 51.1852 189.581 51.1852C190.675 51.1852 191.315 50.7009 191.498 49.7269C191.675 48.7425 191.883 47.2686 192.123 45.3102C192.341 43.4509 192.461 41.529 192.477 39.5394C192.503 37.555 192.545 36.0915 192.602 35.1436C192.685 33.4925 193.149 32.2269 193.998 31.3519C194.841 30.4665 195.737 30.0186 196.685 30.0186C198.92 30.0186 201.019 30.2686 202.977 30.7686C204.935 31.2686 206.232 32.3102 206.873 33.8936C207.873 36.0915 208.123 40.8102 207.623 48.0602C207.357 52.5602 207.071 56.6436 206.769 60.3102C206.477 63.9769 206.008 67.2373 205.373 70.0811C204.732 72.9248 203.753 75.3571 202.435 77.3727C200.795 79.8727 198.696 81.7269 196.144 82.9352C193.602 84.1436 190.935 84.6644 188.144 84.4977C185.362 84.3415 182.795 83.4665 180.435 81.8727Z" fill="#D5DCF2"/>
<path d="M16.8556 144.16C13.939 143.577 11.34 142.42 9.06395 140.681C6.7827 138.946 4.92333 136.816 3.48062 134.285C2.04833 131.759 1.1525 129.009 0.793121 126.035C0.428538 123.051 0.69937 120.051 1.60562 117.035C2.56395 113.9 4.04312 111.202 6.04312 108.952C8.05354 106.691 10.366 104.879 12.9806 103.514C15.6056 102.139 18.34 101.233 21.189 100.785C24.0327 100.327 26.7983 100.348 29.4806 100.848C32.1733 101.348 34.5744 102.342 36.689 103.827C38.814 105.301 40.465 107.28 41.6473 109.764C42.84 112.254 43.3452 115.243 43.1681 118.743C43.0692 120.243 42.4181 121.556 41.2098 122.681C40.0015 123.795 38.439 124.738 36.5223 125.514C34.616 126.295 32.5275 126.889 30.2515 127.306C27.9702 127.712 25.6785 127.967 23.3765 128.077C21.0692 128.191 18.9858 128.176 17.1265 128.035C17.9858 130.493 19.1473 132.113 20.6056 132.889C22.064 133.67 23.7358 133.9 25.6265 133.577C27.5119 133.259 29.4858 132.67 31.5431 131.806C33.2775 130.889 34.6994 130.551 35.814 130.785C36.9233 131.009 38.0483 131.92 39.189 133.514C39.965 134.514 40.2983 135.655 40.189 136.931C40.0744 138.212 39.5223 139.301 38.5223 140.202C37.241 141.384 35.6785 142.321 33.8348 143.014C31.9858 143.696 30.0483 144.165 28.0223 144.431C25.991 144.707 24.0015 144.811 22.0431 144.743C20.0848 144.67 18.3556 144.478 16.8556 144.16ZM17.1265 119.639C17.1265 119.639 17.6369 119.66 18.6681 119.702C19.6942 119.743 20.965 119.764 22.4806 119.764C24.0067 119.764 25.5431 119.691 27.0848 119.535C28.6369 119.368 29.9285 119.087 30.9598 118.681C31.9858 118.264 32.5015 117.676 32.5015 116.91C32.5015 115.452 31.9858 114.337 30.9598 113.556C29.9285 112.78 28.6525 112.321 27.1265 112.181C25.6108 112.045 24.0744 112.233 22.5223 112.743C20.9806 113.243 19.6942 114.077 18.6681 115.243C17.6369 116.4 17.1265 117.863 17.1265 119.639Z" fill="#D5DCF2"/>
<path d="M67.5601 144.848C65.7267 144.848 63.8986 144.108 62.0809 142.639C60.258 141.155 58.5392 139.196 56.9142 136.764C55.2996 134.321 53.8361 131.655 52.5184 128.764C51.1955 125.863 50.1017 122.983 49.2267 120.118C48.3621 117.243 47.7996 114.67 47.5392 112.389C47.3413 110.848 47.2684 109.566 47.3101 108.535C47.3622 107.509 47.8517 106.696 48.7684 106.098C49.5288 105.598 50.4611 105.129 51.5601 104.681C52.6538 104.223 53.7736 103.905 54.9142 103.723C56.0496 103.53 57.0705 103.592 57.9767 103.91C58.8934 104.233 59.5601 104.962 59.9767 106.098C60.1538 106.598 60.4038 107.363 60.7267 108.389C61.0444 109.42 61.3726 110.53 61.7059 111.723C62.0496 112.905 62.3934 114.045 62.7267 115.139C63.0705 116.223 63.3361 117.108 63.5184 117.785C63.9351 119.108 64.3622 120.545 64.8101 122.098C65.2684 123.639 65.7476 124.952 66.2476 126.035C66.7476 127.108 67.2944 127.639 67.8934 127.639C68.8101 127.639 69.4663 126.775 69.8726 125.035C70.508 122.535 71.0913 120.092 71.6226 117.702C72.1486 115.301 72.6955 113.15 73.2684 111.243C73.8361 109.327 74.5028 107.801 75.2684 106.66C76.0444 105.525 76.9819 104.952 78.0809 104.952C79.5809 104.952 80.9559 105.113 82.2059 105.431C83.4559 105.738 84.4194 106.42 85.1017 107.473C85.7944 108.514 86.0705 110.113 85.9351 112.264C85.7944 114.405 85.0653 117.275 83.7476 120.868C82.008 125.65 80.3986 129.842 78.9142 133.452C77.4403 137.051 75.8153 139.848 74.0392 141.848C72.258 143.848 70.1017 144.848 67.5601 144.848Z" fill="#D5DCF2"/>
<path d="M106.23 144.16C103.313 143.577 100.714 142.42 98.4381 140.681C96.1568 138.946 94.2975 136.816 92.8548 134.285C91.4225 131.759 90.5266 129.009 90.1673 126.035C89.8027 123.051 90.0735 120.051 90.9798 117.035C91.9381 113.9 93.4173 111.202 95.4173 108.952C97.4277 106.691 99.7402 104.879 102.355 103.514C104.98 102.139 107.714 101.233 110.563 100.785C113.407 100.327 116.172 100.348 118.855 100.848C121.547 101.348 123.949 102.342 126.063 103.827C128.188 105.301 129.839 107.28 131.021 109.764C132.214 112.254 132.719 115.243 132.542 118.743C132.443 120.243 131.792 121.556 130.584 122.681C129.376 123.795 127.813 124.738 125.896 125.514C123.99 126.295 121.902 126.889 119.626 127.306C117.344 127.712 115.053 127.967 112.751 128.077C110.443 128.191 108.36 128.176 106.501 128.035C107.36 130.493 108.521 132.113 109.98 132.889C111.438 133.67 113.11 133.9 115.001 133.577C116.886 133.259 118.86 132.67 120.917 131.806C122.652 130.889 124.074 130.551 125.188 130.785C126.297 131.009 127.422 131.92 128.563 133.514C129.339 134.514 129.672 135.655 129.563 136.931C129.449 138.212 128.896 139.301 127.896 140.202C126.615 141.384 125.053 142.321 123.209 143.014C121.36 143.696 119.422 144.165 117.396 144.431C115.365 144.707 113.376 144.811 111.417 144.743C109.459 144.67 107.73 144.478 106.23 144.16ZM106.501 119.639C106.501 119.639 107.011 119.66 108.042 119.702C109.068 119.743 110.339 119.764 111.855 119.764C113.381 119.764 114.917 119.691 116.459 119.535C118.011 119.368 119.303 119.087 120.334 118.681C121.36 118.264 121.876 117.676 121.876 116.91C121.876 115.452 121.36 114.337 120.334 113.556C119.303 112.78 118.027 112.321 116.501 112.181C114.985 112.045 113.449 112.233 111.896 112.743C110.355 113.243 109.068 114.077 108.042 115.243C107.011 116.4 106.501 117.863 106.501 119.639Z" fill="#D5DCF2"/>
<path d="M143.455 144.514C141.913 144.275 140.684 143.874 139.768 143.306C138.861 142.738 138.294 141.863 138.059 140.681C137.919 139.723 137.814 138.358 137.747 136.577C137.689 134.801 137.611 132.389 137.518 129.348C137.419 126.295 137.257 122.441 137.038 117.785C136.955 115.691 136.851 113.884 136.726 112.368C136.611 110.842 136.632 109.53 136.788 108.431C136.955 107.337 137.403 106.4 138.143 105.618C138.82 104.9 139.861 104.379 141.268 104.056C142.684 103.738 144.153 103.598 145.684 103.639C147.21 103.681 148.564 103.926 149.747 104.368C150.939 104.801 151.627 105.426 151.809 106.243C152.627 105.608 153.33 105.118 153.913 104.785C154.507 104.441 155.169 104.197 155.893 104.056C156.627 103.92 157.564 103.848 158.705 103.848C160.622 103.848 162.486 104.42 164.309 105.556C166.127 106.697 167.71 108.223 169.059 110.139C170.403 112.056 171.314 114.191 171.788 116.535C172.273 118.868 172.106 121.223 171.288 123.598C171.049 124.28 170.455 124.806 169.497 125.181C168.538 125.545 167.486 125.738 166.351 125.764C165.21 125.78 164.215 125.608 163.372 125.243C162.538 124.884 162.101 124.316 162.059 123.535L161.163 119.973C160.981 119.254 160.663 118.681 160.205 118.264C159.981 118.045 159.684 117.889 159.309 117.806C158.945 117.712 158.564 117.66 158.163 117.66H157.955C156.257 117.702 155.08 118.634 154.413 120.452C153.757 122.275 153.502 125.212 153.643 129.264C153.736 132.504 153.726 134.92 153.601 136.514C153.486 138.113 153.252 139.363 152.893 140.264C152.294 141.962 151.085 143.17 149.268 143.889C147.445 144.624 145.507 144.832 143.455 144.514Z" fill="#D5DCF2"/>
<path d="M184.193 156.806C183.136 156.082 182.074 155.15 181.006 154.014C179.933 152.874 179.032 151.65 178.297 150.348C177.573 149.056 177.214 147.837 177.214 146.702C177.256 145.644 177.662 144.577 178.443 143.493C179.219 142.4 180.225 141.551 181.464 140.952C182.964 140.233 184.214 140.03 185.214 140.348C186.214 140.67 187.089 141.275 187.839 142.16C188.589 143.051 189.308 143.993 190.006 144.993C190.683 145.853 191.344 146.108 191.985 145.764C192.62 145.431 193.141 144.962 193.547 144.368C194.141 143.467 194.657 142.217 195.089 140.618C195.516 139.025 195.62 137.176 195.402 135.077C194.662 135.676 193.839 136.118 192.922 136.41C192.016 136.702 191.204 136.848 190.485 136.848C186.61 136.848 183.485 135.931 181.11 134.098C178.745 132.254 177.287 129.504 176.735 125.848C176.277 122.889 176.032 120.202 176.006 117.785C175.99 115.368 176.193 112.801 176.61 110.077C176.829 108.483 177.391 107.181 178.297 106.181C179.214 105.17 180.469 104.66 182.068 104.66C183.303 104.66 184.511 104.712 185.693 104.806C186.87 104.905 187.912 105.181 188.818 105.639C189.735 106.087 190.428 106.821 190.902 107.848C191.386 108.879 191.537 110.348 191.36 112.264C191.318 112.712 191.24 113.426 191.131 114.41C191.016 115.384 190.912 116.363 190.818 117.348C190.719 118.321 190.652 119.066 190.61 119.577C190.568 121.259 190.745 122.775 191.152 124.118C191.568 125.452 192.297 126.118 193.339 126.118C194.433 126.118 195.074 125.634 195.256 124.66C195.433 123.676 195.641 122.202 195.881 120.243C196.1 118.384 196.219 116.462 196.235 114.473C196.261 112.488 196.303 111.025 196.36 110.077C196.443 108.426 196.907 107.16 197.756 106.285C198.6 105.4 199.495 104.952 200.443 104.952C202.678 104.952 204.777 105.202 206.735 105.702C208.693 106.202 209.99 107.243 210.631 108.827C211.631 111.025 211.881 115.743 211.381 122.993C211.115 127.493 210.829 131.577 210.527 135.243C210.235 138.91 209.766 142.17 209.131 145.014C208.49 147.858 207.511 150.29 206.193 152.306C204.553 154.806 202.454 156.66 199.902 157.868C197.36 159.077 194.693 159.598 191.902 159.431C189.12 159.275 186.553 158.4 184.193 156.806Z" fill="#D5DCF2"/>
<path d="M241.392 147.243C238.918 147.243 236.523 146.941 234.205 146.348C231.882 145.764 229.788 144.686 227.913 143.118C226.049 141.535 224.559 139.301 223.434 136.41C222.319 133.525 221.726 129.801 221.642 125.243C221.642 124.243 221.648 123.087 221.663 121.764C221.689 120.431 221.726 118.926 221.767 117.243H221.705C220.106 117.243 218.809 116.816 217.809 115.952C216.434 114.759 215.747 113.254 215.747 111.431C215.747 109.889 216.226 108.681 217.184 107.806C218.319 106.764 219.778 106.243 221.559 106.243H222.184C222.226 105.384 222.267 104.488 222.309 103.556C222.361 102.613 222.413 101.639 222.455 100.639C222.497 99.8632 222.497 99.1132 222.455 98.3892C222.413 97.6548 222.455 96.9673 222.58 96.3267C222.814 95.3684 223.257 94.5975 223.913 94.0142C224.58 93.4205 225.34 93.009 226.205 92.785C227.163 92.509 228.314 92.3163 229.663 92.2017C231.007 92.0923 232.273 92.1965 233.455 92.5142C234.632 92.8215 235.476 93.4517 235.976 94.41C236.392 95.1913 236.569 96.3059 236.517 97.7642C236.476 99.2225 236.413 100.983 236.33 103.035C236.273 103.577 236.247 104.129 236.247 104.681C236.247 105.223 236.226 105.743 236.184 106.243H237.413C239.424 106.243 240.934 106.816 241.934 107.952C242.934 109.092 243.434 110.342 243.434 111.702C243.434 112.342 243.34 112.962 243.163 113.556C242.799 114.78 242.319 115.618 241.726 116.077C241.085 116.676 240.335 116.993 239.476 117.035C238.601 117.176 237.663 117.243 236.663 117.243H235.851C235.752 121.259 235.814 124.613 236.038 127.306C236.273 129.988 236.877 132.014 237.851 133.389C238.835 134.754 240.356 135.431 242.413 135.431C243.174 135.431 243.793 135.827 244.267 136.618C244.752 137.41 245.049 138.389 245.163 139.556C245.288 140.723 245.231 141.9 244.997 143.077C244.773 144.254 244.351 145.243 243.726 146.035C243.111 146.837 242.335 147.243 241.392 147.243Z" fill="#D5DCF2"/>
<path d="M255.525 147.993C253.968 147.67 252.744 147.228 251.858 146.66C250.968 146.087 250.431 145.191 250.254 143.973C250.114 143.014 250.01 141.65 249.942 139.868C249.885 138.092 249.864 135.676 249.879 132.618C249.905 129.566 249.942 125.717 249.983 121.077C249.942 118.301 249.838 115.488 249.671 112.639C249.515 109.795 249.421 106.973 249.379 104.181C249.322 101.462 249.343 99.1392 249.442 97.2225C249.536 95.3059 249.947 93.9882 250.671 93.2642C251.39 92.5298 252.4 92.0298 253.692 91.7642C254.994 91.4882 256.343 91.3684 257.733 91.41C259.135 91.4517 260.338 91.66 261.338 92.035C262.239 92.358 263.03 92.9048 263.713 93.6809C264.405 94.4465 264.885 95.4882 265.15 96.8059C265.343 97.6704 265.405 98.5767 265.338 99.535C265.265 100.493 265.254 101.473 265.296 102.473C265.39 104.17 265.463 105.795 265.504 107.348C265.546 108.889 265.588 110.368 265.629 111.785C266.546 111.275 267.593 110.905 268.775 110.681C269.968 110.462 271.088 110.348 272.129 110.348C276.64 110.348 280.15 112.077 282.65 115.535C284.244 117.775 285.431 120.759 286.213 124.493C286.989 128.233 287.379 132.327 287.379 136.785C287.379 138.702 287.296 140.285 287.129 141.535C286.973 142.785 286.39 143.868 285.379 144.785C284.338 145.785 283.015 146.285 281.421 146.285C279.822 146.285 278.483 145.644 277.4 144.368C276.801 143.691 276.4 143.03 276.192 142.389C275.984 141.754 275.89 141.004 275.921 140.139C275.947 139.28 275.963 138.181 275.963 136.848C275.963 135.264 275.911 133.712 275.817 132.181C275.734 130.655 275.572 128.983 275.338 127.16C275.155 125.327 274.765 123.962 274.171 123.056C273.588 122.139 272.905 121.681 272.129 121.681C270.447 121.681 269.036 122.571 267.9 124.348C266.76 126.129 266.192 129.045 266.192 133.098C266.192 136.337 266.093 138.754 265.9 140.348C265.718 141.946 265.447 143.196 265.088 144.098C264.447 145.775 263.192 146.952 261.317 147.618C259.452 148.285 257.525 148.41 255.525 147.993Z" fill="#D5DCF2"/>
<path d="M297.351 148.139C295.892 147.9 294.736 147.556 293.892 147.098C293.043 146.65 292.528 145.952 292.351 144.993C292.252 144.212 292.168 143.129 292.101 141.723C292.043 140.306 292.017 138.384 292.017 135.952C292.017 133.509 292.038 130.441 292.08 126.743C292.08 124.551 291.986 122.327 291.809 120.077C291.627 117.827 291.507 115.587 291.455 113.348C291.455 111.17 291.486 109.316 291.559 107.785C291.627 106.259 292.028 105.196 292.767 104.598C293.486 104.056 294.455 103.676 295.663 103.452C296.872 103.217 298.132 103.129 299.455 103.181C300.773 103.223 301.913 103.379 302.872 103.639C303.747 103.879 304.523 104.316 305.205 104.952C305.882 105.577 306.314 106.42 306.497 107.473C306.632 108.155 306.674 108.884 306.622 109.66C306.58 110.441 306.585 111.212 306.642 111.973C306.819 118.264 306.976 123.405 307.101 127.389C307.236 131.379 307.319 134.535 307.351 136.868C307.377 139.191 307.319 140.952 307.184 142.16C307.043 143.368 306.793 144.332 306.434 145.056C305.835 146.374 304.663 147.295 302.913 147.827C301.163 148.353 299.309 148.457 297.351 148.139ZM291.601 95.6392C291.601 93.9204 292.273 92.5715 293.622 91.5975C294.965 90.6132 296.819 90.1184 299.184 90.1184C301.46 90.1184 303.293 90.5975 304.684 91.5559C306.069 92.5038 306.767 93.8632 306.767 95.6392C306.767 97.3371 306.111 98.6809 304.809 99.6809C303.517 100.681 301.642 101.181 299.184 101.181C296.684 101.181 294.793 100.66 293.517 99.6184C292.236 98.5663 291.601 97.2382 291.601 95.6392Z" fill="#D5DCF2"/>
<path d="M317.163 144.098C315.605 143.78 314.382 143.337 313.496 142.764C312.605 142.196 312.069 141.301 311.892 140.077C311.751 139.118 311.684 137.754 311.684 135.973C311.684 134.196 311.694 131.78 311.725 128.723C311.751 125.67 311.715 121.821 311.621 117.181C311.621 115.087 311.569 113.275 311.475 111.743C311.392 110.217 311.444 108.91 311.642 107.827C311.85 106.733 312.34 105.816 313.121 105.077C313.855 104.4 314.923 103.91 316.329 103.618C317.746 103.316 319.225 103.223 320.767 103.348C322.319 103.462 323.668 103.759 324.809 104.243C325.944 104.717 326.605 105.363 326.788 106.181C327.605 105.587 328.319 105.129 328.934 104.806C329.559 104.488 330.23 104.275 330.954 104.16C331.689 104.051 332.626 103.993 333.767 103.993C335.267 103.993 336.835 104.17 338.475 104.514C340.111 104.848 341.642 105.514 343.059 106.514C344.475 107.514 345.59 109.014 346.413 111.014C347.454 113.488 348.142 116.639 348.475 120.473C348.819 124.295 348.996 128.431 348.996 132.889C348.996 134.806 348.913 136.389 348.746 137.639C348.59 138.889 348.017 139.973 347.017 140.889C346.335 141.53 345.397 141.973 344.204 142.223C343.022 142.473 341.84 142.467 340.663 142.202C339.48 141.926 338.522 141.348 337.788 140.473C337.204 139.795 336.809 139.134 336.6 138.493C336.392 137.858 336.293 137.108 336.309 136.243C336.335 135.384 336.35 134.285 336.35 132.952C336.35 131.368 336.298 129.816 336.204 128.285C336.121 126.759 335.965 125.087 335.746 123.264C335.564 121.431 335.173 120.066 334.579 119.16C333.98 118.243 333.298 117.785 332.538 117.785C330.84 117.785 329.626 118.676 328.892 120.452C328.168 122.233 327.809 125.15 327.809 129.202C327.809 132.441 327.715 134.858 327.538 136.452C327.355 138.051 327.085 139.301 326.725 140.202C326.043 141.9 324.777 143.077 322.934 143.743C321.085 144.394 319.163 144.514 317.163 144.098Z" fill="#D5DCF2"/>
<path d="M360.879 154.702C359.697 152.644 359.088 150.874 359.046 149.389C359.004 147.915 359.296 146.686 359.921 145.702C360.556 144.728 361.322 144.004 362.213 143.535C363.098 143.051 363.884 142.759 364.567 142.66C365.525 142.525 366.306 142.681 366.921 143.139C367.546 143.598 368.056 144.165 368.463 144.848C368.879 145.525 369.317 146.15 369.775 146.723C370.233 147.29 370.775 147.644 371.4 147.785C372.035 147.92 372.864 147.65 373.879 146.973C374.921 146.29 375.817 145.332 376.567 144.098C377.317 142.879 377.692 141.4 377.692 139.66C377.692 139.301 377.53 139.118 377.213 139.118C376.254 139.118 375.364 139.176 374.546 139.285C373.723 139.4 372.723 139.483 371.546 139.535C370.364 139.577 368.765 139.551 366.754 139.452C365.989 139.41 364.952 139.155 363.65 138.681C362.358 138.196 361.015 137.488 359.629 136.556C358.239 135.613 356.983 134.446 355.858 133.056C354.744 131.67 353.942 130.025 353.442 128.118C352.942 126.202 352.963 124.035 353.504 121.618C354.14 118.743 355.004 116.077 356.088 113.618C357.181 111.16 358.634 109.113 360.442 107.473C362.244 105.837 364.473 104.754 367.129 104.223C369.796 103.696 372.994 103.91 376.733 104.868C377.009 103.65 377.739 102.733 378.921 102.118C380.114 101.493 381.468 101.15 382.983 101.077C384.509 101.009 385.947 101.217 387.296 101.702C388.64 102.176 389.614 102.889 390.213 103.848C390.614 104.488 391.046 105.285 391.504 106.243C391.963 107.202 392.379 108.483 392.754 110.077C393.14 111.66 393.442 113.733 393.65 116.285C393.858 118.842 393.91 122.045 393.817 125.889C393.733 129.738 393.421 134.4 392.879 139.868C392.364 144.243 391.343 147.806 389.817 150.556C388.301 153.316 386.483 155.415 384.358 156.848C382.244 158.275 380.004 159.17 377.629 159.535C375.254 159.91 372.947 159.9 370.713 159.514C368.489 159.124 366.509 158.483 364.775 157.598C363.051 156.707 361.754 155.743 360.879 154.702ZM369.421 117.243C368.28 117.608 367.405 118.321 366.796 119.389C366.181 120.462 365.879 121.629 365.879 122.889C365.879 124.139 366.218 125.243 366.9 126.202C367.577 127.16 368.65 127.754 370.108 127.973C372.744 128.337 374.723 128.337 376.046 127.973C377.379 127.613 377.994 126.993 377.9 126.118L377.358 117.993C377.317 117.077 376.494 116.556 374.9 116.431C373.301 116.295 371.473 116.566 369.421 117.243Z" fill="#D5DCF2"/>
<path d="M331.75 61.5929C332.751 61.8819 333.763 62.171 334.785 62.4654C337.156 55.046 336.712 46.9895 333.667 39.736C326.349 20.5558 301.331 13.6824 284.278 23.6124C272.829 30.3734 267.037 40.1268 264.575 51.9733C286.317 51.3684 310.185 55.3136 331.75 61.5929ZM224.81 58.2097C236.024 54.5589 250.567 52.2624 264.42 51.9786C267.026 26.7708 294.485 9.88699 318.294 21.6103C333.083 28.4195 341.198 47.3107 335.915 62.8294C354.247 68.0273 370.915 78.391 383.831 89.9323C384.902 90.9066 384.859 90.9601 383.708 90.0876C370.278 79.2796 353.915 68.9427 335.583 63.9322L335.577 63.9375C302.348 53.6328 262.263 49.088 229.703 57.2622C228.375 57.5084 219.849 59.8638 224.81 58.2097Z" fill="#D5DCF2"/>
<path d="M284.278 23.6124C301.331 13.6877 326.35 20.5558 333.662 39.7361C336.713 46.9896 337.156 55.046 334.785 62.4654C333.763 62.171 332.751 61.8819 331.75 61.5929C310.185 55.3136 286.317 51.3684 264.575 51.9733C267.037 40.1215 272.823 30.3734 284.278 23.6124Z" fill="#D5DCF2"/>
<path d="M364.321 64.8368C364.648 65.779 341.84 57.9367 342.681 57.4013C342.37 56.4645 365.135 64.2962 364.321 64.8368Z" fill="#D5DCF2"/>
<path d="M357.164 44.95C345.201 45.8225 345.11 44.5592 357.073 43.7241C369.036 42.8515 369.127 44.1149 357.164 44.95Z" fill="#D5DCF2"/>
<path d="M345.475 28.7139C336.862 32.445 336.375 31.278 345.004 27.579C353.659 23.9068 354.13 25.0845 345.475 28.7139Z" fill="#D5DCF2"/>
<path d="M327.565 18.9339C326.757 18.7947 332.5 9.03594 333.078 9.61943C333.892 9.75861 328.148 19.5174 327.565 18.9339Z" fill="#D5DCF2"/>
<path d="M307.471 11.3805C306.646 11.4822 307.669 2.41937 308.429 2.85833C309.253 2.75127 308.231 11.8195 307.471 11.3805Z" fill="#D5DCF2"/>
<path d="M283.593 5.28334C281.008 -1.33848 282.062 -1.90591 284.717 4.79085C287.618 11.1825 286.478 11.7178 283.593 5.28334Z" fill="#D5DCF2"/>
<path d="M264.371 15.3204C255.823 9.81743 256.519 8.76822 265.062 14.3087C273.337 20.2025 272.593 21.2357 264.371 15.3204Z" fill="#D5DCF2"/>
<path d="M264.709 35.9032C265.03 36.5349 245.664 29.9666 246.301 29.6561C246.173 28.4838 265.533 35.0521 264.709 35.9032Z" fill="#D5DCF2"/>
<path d="M256.9 47.1019C257.221 47.9263 240.574 46.2829 241.051 45.5442C240.724 44.7252 257.376 46.3632 256.9 47.1019Z" fill="#D5DCF2"/>
</svg>
