<svg width="110" height="62" viewBox="0 0 110 62" fill="none" xmlns="http://www.w3.org/2000/svg">
<path d="M73.8868 41.9251C74.5685 42.122 75.2576 42.3189 75.9539 42.5194C77.569 37.4663 77.2664 31.9793 75.192 27.0392C70.2081 13.9762 53.1675 9.29494 41.5519 16.058C33.7534 20.6626 29.8086 27.3054 28.1315 35.3736C42.9409 34.9616 59.1977 37.6486 73.8868 41.9251ZM1.04666 39.621C8.68468 37.1345 18.5904 35.5705 28.0258 35.3772C29.8013 18.209 48.5045 6.71004 64.7211 14.6944C74.7946 19.3319 80.3216 32.1981 76.7232 42.7673C89.2102 46.3074 100.563 53.3658 109.361 61.2262C110.09 61.8897 110.061 61.9262 109.277 61.3319C100.129 53.971 88.9841 46.9309 76.4972 43.5184L76.4935 43.522C53.8602 36.5038 26.5566 33.4085 4.37895 38.9757C3.47478 39.1434 -2.33303 40.7475 1.04666 39.621Z" fill="#F08F3A"/>
<path d="M41.5519 16.058C53.1675 9.29859 70.2084 13.9762 75.1886 27.0392C77.2667 31.9793 77.569 37.4663 75.9539 42.5194C75.2576 42.3189 74.5685 42.122 73.8868 41.9251C59.1977 37.6486 42.9409 34.9616 28.1315 35.3736C29.8086 27.3017 33.7498 20.6626 41.5519 16.058Z" fill="#F08F3A"/>
<path d="M96.0719 44.1345C96.2943 44.7762 80.7594 39.435 81.3318 39.0704C81.1204 38.4324 96.6261 43.7663 96.0719 44.1345Z" fill="#F08F3A"/>
<path d="M91.1971 30.5902C83.0487 31.1845 82.9867 30.3241 91.1351 29.7553C99.2835 29.1611 99.3455 30.0215 91.1971 30.5902Z" fill="#F08F3A"/>
<path d="M83.235 19.5324C77.3688 22.0735 77.0371 21.2787 82.9142 18.7595C88.8095 16.2584 89.1303 17.0605 83.235 19.5324Z" fill="#F08F3A"/>
<path d="M71.0359 12.8716C70.4854 12.7768 74.3973 6.13042 74.7911 6.52782C75.3453 6.62261 71.4333 13.269 71.0359 12.8716Z" fill="#F08F3A"/>
<path d="M57.3492 7.72722C56.7878 7.7965 57.4841 1.6241 58.0018 1.92306C58.5633 1.85014 57.8669 8.02618 57.3492 7.72722Z" fill="#F08F3A"/>
<path d="M41.0853 3.57465C39.3243 -0.935245 40.0426 -1.3217 41.8509 3.23923C43.8269 7.59236 43.0504 7.95694 41.0853 3.57465Z" fill="#F08F3A"/>
<path d="M27.9929 10.4106C22.1705 6.66266 22.6445 5.94808 28.4632 9.72152C34.0997 13.7356 33.5929 14.4392 27.9929 10.4106Z" fill="#F08F3A"/>
<path d="M28.2228 24.4288C28.4416 24.859 15.2509 20.3856 15.6848 20.1741C15.5973 19.3757 28.7843 23.8491 28.2228 24.4288Z" fill="#F08F3A"/>
<path d="M22.9037 32.0559C23.1224 32.6173 11.7839 31.4981 12.1084 30.9949C11.886 30.4371 23.2282 31.5528 22.9037 32.0559Z" fill="#F08F3A"/>
</svg>
