<svg id="Layer_1" enable-background="new 0 0 68 68" height="512" viewBox="0 0 68 68" width="512" xmlns="http://www.w3.org/2000/svg"><g id="_x34_9"><path d="m13.4 42.2c.1 4.8 0 11.5.3 16.3 0 .4.3.6.6.7 6.6 2.9 13.1 5.4 19 7.1h.3c.2.1.1.1 1.8-.3 7.2 0 15.2-1.4 22.3-2.7.1 0 .2-.2.1-.3-1.4-.9-2.7-1.7-4.2-2.8.1-.3.8-18 .8-17.1.1-.4-.2-.8-.6-.9-3-.5-16.8-3.7-20.1-4.5.3-2 .9-4 2.3-5.5 1.2 4 4.4 5.8 7.1 5.2 3.3-.7 4.6-4.7 1.8-7.2-1.8-1.6-4.9-2.1-7.8-.6-.1-2.7 1.1-5.4 3.2-7.2.9.3 1.9.6 2.9.6 3.1.7 6.5 0 9-1.9 3.8-2.9 5.2-8.4 3.3-12.7-1.4-3.3-5.1-6.1-8.8-6.5-.9-.2-1.7-.3-2.7-.3-5.9 0-10.7 4.8-10.7 10.7 0 4 2.2 7.6 5.5 9.4-2.3 2.2-3.5 5.6-3.2 8.7-1.4 1.1-2.5 2.6-3.1 5.2-1.3-3.7-1.1-8.1-.9-10.7 0-.2-.1-.4-.2-.6-.2-.2-.4-.2-.6-.2-6.3 0-12.8 1-19 1.9l-1 .2c-.4.1-.6.4-.6.7-.2 5.7.7 9.8 3.2 14.9 0 .2 0 .3 0 .4zm30.4-10.7c.7.6 1.1 1.6 1 2.4-.1 1-1 1.9-2.1 2.1-2.1.5-4.7-1.1-5.4-4.7 2.4-1.5 5.1-1.1 6.5.2zm-9.1-19c0-5.1 4.1-9.2 9.2-9.2s9.2 4.1 9.2 9.2-4.1 9.2-9.2 9.2-9.2-4.1-9.2-9.2zm17.5 46.9c-2 .8-3.3 1.3-5.1 1.7-3.9 1-8.6 2.7-12.7 3.5-.1-4.5-.2-11.6-.3-15.9 5.1-1.4 13.4-3.4 18.7-4.8-.2 5.7-.4 10.4-.6 15.5zm-16.7-12.5c0-.1 0-.1 0 0-1.3-1.8-2.2-5.6-2-7.6 2.9.7 11.8 2.8 16.9 3.9-4.7 1.1-10.5 2.5-14.9 3.7zm-1.5.4c-.2.1-.4.1-.6.2-2.9-.8-11.2-3.4-16.3-5.2l14.8-2.8c0 2.2.8 5.7 2.1 7.8zm-1.4 1.5c.1 6.4.2 12.9.3 15.8-5.6-1.6-11.7-3.9-17.8-6.7-.2-4.4-.2-10.3-.2-14.8 4.6 1.6 14.1 4.6 17.7 5.7zm-20.9-21.1.4-.1c5.9-.9 12-1.8 18-1.9-.2 3.2-.1 8.3 1.8 12.2l-17.1 3.2c-2.4-4.5-3.3-8.2-3.1-13.4z"/><path d="m43.7 8.4c-.3-.3-.7-.4-1.1-.1-1 .8-2.5.6-3.2-.5-.2-.3-.7-.4-1-.2s-.4.7-.2 1c2.1 3.1 6.7 1.2 5.5-.2z"/><path d="m48.9 11.2c1.7 0 2.9-1.3 2-2-.3-.3-.8-.2-1.1.1-.3.4-.9.4-1.4.3-.6-.1-1.2-.5-1.8-.9-.3-.2-.8-.1-1 .2s-.1.8.2 1c1 .7 1.9 1.3 3.1 1.3z"/><path d="m48.6 15c.2-.4.1-.8-.3-1s-.8-.1-1 .3c-.8 1.5-2 2.3-3 2.1-1.5-.3-2.5-1.2-3-2.8-.1-.4-.6-.6-1-.5s-.6.6-.5 1c.7 2.1 2.1 3.3 4.1 3.7s3.7-1 4.7-2.8z"/></g></svg>