<svg width="24" height="24" viewBox="0 0 24 24" fill="none" xmlns="http://www.w3.org/2000/svg">
<path d="M8.34129 7.73486C7.99414 7.50343 6.84214 6.70371 6.84214 6.70371C7.81414 5.31386 9.096 4.77257 10.869 4.77257C12.1226 4.77257 13.1871 5.193 13.947 5.99143C14.7069 6.78986 15.1401 7.93157 15.2391 9.39086C15.6609 9.56829 16.0487 9.77571 16.4027 10.0131C17.8286 10.971 18.6129 12.4046 18.6129 14.0464C18.6129 17.5384 15.7509 20.5714 10.5694 20.5714C6.12086 20.5714 1.5 17.9833 1.5 10.278C1.5 2.61514 5.97686 0 10.5566 0C12.6729 0 17.6357 0.312428 19.5 6.47486L17.7514 6.92871C16.3063 2.538 13.281 1.83857 10.5077 1.83857C5.92414 1.83857 3.33086 4.62986 3.33086 10.5686C3.33086 15.8953 6.22886 18.7239 10.5694 18.7239C14.1399 18.7239 16.8013 16.8686 16.8013 14.1519C16.8013 12.303 15.2481 11.4171 15.1684 11.4171C14.865 13.0037 14.0524 15.6729 10.4833 15.6729C8.403 15.6729 6.60943 14.2354 6.60943 12.3531C6.60943 9.666 9.16029 8.69271 11.1737 8.69271C11.9271 8.69271 12.8374 8.74414 13.3119 8.83929C13.3119 8.02029 12.6176 6.61757 10.869 6.61757C9.26186 6.61757 8.85557 7.13829 8.34 7.73357L8.34129 7.73486ZM11.4206 10.53C8.79771 10.53 8.45829 11.6486 8.45829 12.3506C8.45829 13.4794 9.79929 13.8523 10.5154 13.8523C11.8269 13.8523 13.173 13.4897 13.3851 10.737C12.7414 10.5868 12.0815 10.5173 11.4206 10.53Z" fill="#FFFCF7"/>
</svg>
