<svg width="24" height="24" viewBox="0 0 24 24" fill="none" xmlns="http://www.w3.org/2000/svg">
<path d="M11.7857 0H14.3314C14.5166 0.919286 15.0257 2.079 15.9193 3.22971C16.7936 4.35729 17.9533 5.14286 19.5 5.14286V7.71428C17.2461 7.71428 15.5529 6.66771 14.3571 5.36271V14.1429C14.3571 15.4143 13.9801 16.6572 13.2737 17.7144C12.5674 18.7716 11.5633 19.5955 10.3887 20.0821C9.21401 20.5686 7.92144 20.696 6.67442 20.4479C5.4274 20.1999 4.28194 19.5876 3.38289 18.6885C2.48384 17.7895 1.87157 16.644 1.62353 15.397C1.37548 14.15 1.50279 12.8574 1.98935 11.6827C2.47591 10.5081 3.29988 9.50407 4.35705 8.79769C5.41422 8.09131 6.65712 7.71428 7.92857 7.71428V10.2857C7.1657 10.2857 6.41996 10.5119 5.78566 10.9358C5.15136 11.3596 4.65698 11.962 4.36504 12.6668C4.0731 13.3716 3.99672 14.1471 4.14554 14.8953C4.29437 15.6436 4.66173 16.3308 5.20116 16.8703C5.74059 17.4097 6.42787 17.7771 7.17608 17.9259C7.9243 18.0747 8.69984 17.9983 9.40464 17.7064C10.1094 17.4145 10.7118 16.9201 11.1357 16.2858C11.5595 15.6515 11.7857 14.9057 11.7857 14.1429V0Z" fill="#FFFCF7"/>
</svg>
