<svg xmlns="http://www.w3.org/2000/svg" version="1.1" xmlns:xlink="http://www.w3.org/1999/xlink" xmlns:svgjs="http://svgjs.dev/svgjs" width="1000" height="1000"><g clip-path="url(#SvgjsClipPath1054)"><rect width="1000" height="1000" fill="#fffcf7"></rect><g transform="matrix(1.953125,0,0,1.953125,0,218.75)"><svg xmlns="http://www.w3.org/2000/svg" version="1.1" xmlns:xlink="http://www.w3.org/1999/xlink" xmlns:svgjs="http://svgjs.dev/svgjs" width="512" height="288"><svg width="512" height="288" viewBox="0 0 512 288" fill="none" xmlns="http://www.w3.org/2000/svg">
<path d="M344.263 195.53C347.44 196.449 350.65 197.367 353.895 198.302C361.42 174.735 360.01 149.145 350.344 126.105C327.123 65.1821 247.725 43.3497 193.604 74.8911C157.268 96.3664 138.888 127.347 131.074 164.975C200.076 163.054 275.822 175.585 344.263 195.53ZM4.87672 184.784C40.4648 173.188 86.6189 165.893 130.582 164.992C138.854 84.9231 225.998 31.2943 301.557 68.5318C348.493 90.1602 374.245 150.165 357.479 199.458C415.66 215.969 468.558 248.887 509.548 285.547C512.945 288.641 512.81 288.811 509.157 286.04C466.537 251.71 414.607 218.876 356.426 202.961L356.409 202.978C250.953 170.246 123.736 155.81 20.403 181.775C16.1902 182.557 -10.8704 190.038 4.87672 184.784Z" fill="#F08F3A"></path>
<path d="M193.604 74.8911C247.725 43.3667 327.124 65.1822 350.329 126.106C360.011 149.145 361.42 174.735 353.895 198.302C350.65 197.367 347.44 196.449 344.263 195.53C275.822 175.585 200.076 163.054 131.074 164.975C138.888 127.33 157.251 96.3664 193.604 74.8911Z" fill="#F08F3A"></path>
<path d="M447.631 205.834C448.667 208.827 376.285 183.917 378.952 182.217C377.967 179.241 450.213 204.117 447.631 205.834Z" fill="#F08F3A"></path>
<path d="M424.918 142.667C386.951 145.438 386.663 141.425 424.629 138.773C462.595 136.001 462.884 140.014 424.918 142.667Z" fill="#F08F3A"></path>
<path d="M387.82 91.0951C360.487 102.947 358.941 99.2398 386.325 87.4904C413.793 75.8261 415.288 79.5668 387.82 91.0951Z" fill="#F08F3A"></path>
<path d="M330.98 60.0304C328.415 59.5883 346.642 28.591 348.477 30.4444C351.059 30.8865 332.831 61.8838 330.98 60.0304Z" fill="#F08F3A"></path>
<path d="M267.209 36.0382C264.593 36.3613 267.838 7.57447 270.25 8.96875C272.866 8.62868 269.621 37.4325 267.209 36.0382Z" fill="#F08F3A"></path>
<path d="M191.43 16.6714C183.225 -4.36179 186.572 -6.16416 194.997 15.1071C204.204 35.4092 200.586 37.1096 191.43 16.6714Z" fill="#F08F3A"></path>
<path d="M130.428 48.5529C103.3 31.0733 105.508 27.7407 132.62 45.3392C158.882 64.06 156.521 67.3416 130.428 48.5529Z" fill="#F08F3A"></path>
<path d="M131.499 113.931C132.519 115.937 71.0591 95.0742 73.0806 94.088C72.6729 90.3642 134.115 111.227 131.499 113.931Z" fill="#F08F3A"></path>
<path d="M106.716 149.502C107.735 152.121 54.9052 146.901 56.417 144.554C55.3808 141.953 108.228 147.156 106.716 149.502Z" fill="#F08F3A"></path>
</svg></svg></g></g><defs><clipPath id="SvgjsClipPath1054"><rect width="1000" height="1000" x="0" y="0" rx="500" ry="500"></rect></clipPath></defs></svg>