<svg width="300" height="140" viewBox="0 0 300 140" fill="none" xmlns="http://www.w3.org/2000/svg">
<path d="M5.56258 73.8006C4.37772 73.5542 3.44647 73.2163 2.7728 72.7831C2.09517 72.3459 1.687 71.6623 1.55227 70.7323C1.44527 70.001 1.36602 68.9596 1.3145 67.6003C1.27091 66.245 1.25506 64.4008 1.26695 62.0678C1.28676 59.7387 1.3145 56.8016 1.34621 53.2603C1.3145 51.1418 1.23525 48.9956 1.10844 46.8215C0.989557 44.6514 0.918228 42.4973 0.886526 40.3669C0.842935 38.2922 0.858786 36.5196 0.934079 35.0569C1.00541 33.5943 1.31847 32.5888 1.86929 32.0363C2.41615 31.4759 3.18492 31.0943 4.16769 30.8916C5.15838 30.681 6.18473 30.5896 7.24279 30.6214C8.30877 30.6532 9.22417 30.8122 9.98502 31.0983C10.6706 31.3447 11.2729 31.7621 11.792 32.3543C12.3191 32.9385 12.6837 33.7334 12.8858 34.739C13.0324 35.3988 13.0799 36.0903 13.0284 36.8216C12.9729 37.5529 12.965 38.3002 12.9967 39.0633C13.068 40.359 13.1235 41.599 13.1552 42.7834C13.1869 43.9599 13.2186 45.0886 13.2503 46.1697C13.9478 45.7802 14.7443 45.498 15.6438 45.3271C16.5513 45.1602 17.4033 45.0727 18.1959 45.0727C21.6276 45.0727 24.2985 46.3923 26.2006 49.0314C27.4132 50.7404 28.3167 53.0178 28.9111 55.8675C29.5016 58.7213 29.7988 61.8452 29.7988 65.2474C29.7988 66.7101 29.7354 67.9183 29.6086 68.8722C29.4897 69.8261 29.0459 70.6528 28.2771 71.3523C27.4846 72.1154 26.478 72.497 25.2654 72.497C24.0488 72.497 23.0304 72.0081 22.2062 71.0343C21.7504 70.5176 21.4453 70.0129 21.2868 69.524C21.1283 69.0391 21.057 68.4668 21.0807 67.807C21.1005 67.1512 21.1124 66.3126 21.1124 65.2951C21.1124 64.0869 21.0728 62.9025 21.0015 61.7339C20.9381 60.5694 20.8152 59.2936 20.6369 57.9025C20.4982 56.5035 20.201 55.4621 19.7493 54.7706C19.3054 54.0711 18.7863 53.7213 18.1959 53.7213C16.9159 53.7213 15.842 54.4009 14.9781 55.7563C14.1102 57.1155 13.6783 59.3413 13.6783 62.4335C13.6783 64.9056 13.603 66.7498 13.4564 67.966C13.3177 69.1862 13.1116 70.1401 12.8382 70.8277C12.3508 72.1075 11.3958 73.0057 9.96917 73.5144C8.5505 74.0232 7.08428 74.1186 5.56258 73.8006Z" fill="#D5DCF2"/>
<path d="M53.3951 72.4493C52.9394 72.3102 52.4519 72.0121 51.9368 71.559C51.4177 71.1019 51.1205 70.462 51.0491 69.6353L51.0016 69.1107C48.1246 70.3308 45.5092 70.7998 43.1553 70.5256C40.7975 70.2394 38.7725 69.3928 37.0844 67.9819C35.4042 66.5749 34.1678 64.7943 33.3752 62.6401C32.8878 61.2848 32.7729 60.0607 33.0265 58.9677C33.288 57.8787 33.7913 56.9089 34.5323 56.0583C35.2813 55.1998 36.1333 54.4765 37.0844 53.8803C38.0434 53.2881 38.9746 52.839 39.8741 52.5289C40.7697 52.211 41.5147 52.0202 42.1091 51.9566C43.5674 51.8215 44.7166 51.734 45.5647 51.7022C46.4206 51.6625 47.1498 51.6506 47.7521 51.6704C48.3544 51.6824 49.0043 51.7102 49.7018 51.7499C49.9752 51.7499 50.0822 51.6307 50.0188 51.3843C49.7018 50.4423 49.2976 49.6315 48.8141 48.9519C48.3267 48.2762 47.6887 47.7595 46.8962 47.4098C46.0917 47.06 45.4616 46.9328 45.0099 47.0282C44.566 47.1156 44.1936 47.3223 43.9003 47.6482C43.6031 47.9781 43.3178 48.3557 43.0444 48.777C42.767 49.1903 42.4182 49.5361 41.9982 49.8104C41.5861 50.0886 41.0313 50.2078 40.3338 50.176C39.8147 50.176 39.2163 50.0568 38.5427 49.8104C37.865 49.5679 37.2746 49.1864 36.7673 48.6657C36.268 48.149 36.0065 47.4654 35.9748 46.6149C35.9431 45.7564 36.3077 44.719 37.0685 43.4988C37.6154 42.6324 38.4872 41.8097 39.6839 41.0346C40.8886 40.2516 42.2835 39.6276 43.8686 39.1586C45.4616 38.6817 47.1181 38.483 48.83 38.5545C50.5498 38.6181 52.2261 39.0553 53.8548 39.8582C55.4914 40.6531 56.9378 41.9209 58.1979 43.6578C59.466 45.3987 60.4092 47.7436 61.0353 50.7007C61.8675 54.5599 62.3985 57.7197 62.6204 60.1759C62.8423 62.6242 62.874 64.5797 62.7155 66.0423C62.5649 67.497 62.3073 68.6138 61.9388 69.3968C61.5782 70.1838 61.2255 70.8157 60.8768 71.3046C60.4963 71.8531 59.6166 72.2943 58.2455 72.6241C56.8823 72.95 55.2655 72.8944 53.3951 72.4493ZM44.7563 58.6815C43.6467 58.8206 42.8581 59.1187 42.3945 59.5718C41.9269 60.0169 41.7287 60.5217 41.7921 61.0821C41.8634 61.6346 42.1607 62.0996 42.6798 62.4812C43.1949 62.8627 43.9082 63.0535 44.8197 63.0535C46.3731 63.0217 47.554 62.9342 48.3703 62.7832C49.1827 62.6242 49.8524 62.4414 50.3834 62.2268C50.6885 62.0479 50.8431 61.7896 50.8431 61.4478V59.9375C50.8431 59.5162 50.7876 59.2856 50.6846 59.2538C50.2407 59.0114 49.5829 58.8047 48.719 58.6338C47.8512 58.455 46.5316 58.4709 44.7563 58.6815Z" fill="#D5DCF2"/>
<path d="M75.6446 77.2982C74.8401 77.5406 73.8732 77.6797 72.7438 77.7115C71.6224 77.7433 70.5406 77.6519 69.4944 77.4413C68.4561 77.2386 67.6477 76.8928 67.0692 76.4079C66.4431 75.8872 66.0943 74.9294 66.023 73.5303C65.9477 72.1393 65.9319 70.4779 65.9755 68.5383C66.0072 66.5272 66.0785 64.5002 66.1974 62.4653C66.3242 60.4303 66.4034 58.4033 66.4351 56.3763C66.4034 53.0059 66.3757 50.2357 66.3559 48.0616C66.344 45.8915 66.3717 44.1626 66.4351 42.8788C66.5065 41.599 66.5976 40.6213 66.7046 39.9536C66.871 39.0553 67.3109 38.3956 68.0202 37.9822C68.7375 37.5609 69.7203 37.2469 70.9685 37.0442C72.4902 36.758 73.9525 36.8296 75.3593 37.2509C76.7621 37.6642 77.7924 38.3757 78.4502 39.3812C82.4645 38.3439 85.7972 38.3399 88.4522 39.3653C91.1033 40.3828 93.0252 42.1634 94.222 44.7071C95.4267 47.2428 95.8388 50.2834 95.4584 53.8326C95.2444 55.7404 94.6698 57.2785 93.7306 58.443C92.7994 59.6116 91.6581 60.5058 90.3068 61.1298C88.9515 61.7578 87.5487 62.1751 86.0904 62.3858C84.6321 62.5885 83.2769 62.668 82.0326 62.6242C80.7843 62.5726 79.8174 62.4732 79.1318 62.3222C79.0882 63.435 79.0526 64.6115 79.0209 65.8516C78.9892 67.0837 78.9337 68.3952 78.8623 69.7943C78.8306 70.4858 78.8306 71.1695 78.8623 71.861C78.894 72.5606 78.8624 73.2203 78.7672 73.8483C78.5533 74.7903 78.1689 75.5375 77.6101 76.0899C77.0593 76.6503 76.4054 77.0518 75.6446 77.2982ZM79.3854 54.2936C81.7076 54.5401 83.4433 54.4924 84.5846 54.1506C85.7258 53.8008 86.4748 53.2444 86.8354 52.4813C87.2039 51.7102 87.3189 50.8716 87.1841 49.9694C87.0771 49.0711 86.5897 48.3915 85.7258 47.9344C84.858 47.4813 83.8554 47.2031 82.7141 47.1077C81.5729 47.0044 80.5148 47.0521 79.5439 47.2508C79.5439 49.0314 79.4885 51.3803 79.3854 54.2936Z" fill="#D5DCF2"/>
<path d="M108.397 77.2982C107.593 77.5406 106.626 77.6797 105.496 77.7115C104.375 77.7433 103.293 77.6519 102.247 77.4413C101.209 77.2386 100.4 76.8928 99.8216 76.4079C99.1955 75.8872 98.8468 74.9294 98.7755 73.5303C98.7002 72.1393 98.6843 70.4779 98.7279 68.5383C98.7596 66.5272 98.8309 64.5002 98.9498 62.4653C99.0766 60.4303 99.1559 58.4033 99.1876 56.3763C99.1559 53.0059 99.1281 50.2357 99.1083 48.0616C99.0964 45.8915 99.1242 44.1626 99.1876 42.8788C99.2589 41.599 99.35 40.6213 99.457 39.9536C99.6235 39.0553 100.063 38.3956 100.773 37.9822C101.49 37.5609 102.473 37.2469 103.721 37.0442C105.243 36.758 106.705 36.8296 108.112 37.2509C109.515 37.6642 110.545 38.3757 111.203 39.3812C115.217 38.3439 118.55 38.3399 121.205 39.3653C123.856 40.3828 125.778 42.1634 126.974 44.7071C128.179 47.2428 128.591 50.2834 128.211 53.8326C127.997 55.7404 127.422 57.2785 126.483 58.443C125.552 59.6116 124.411 60.5058 123.059 61.1298C121.704 61.7578 120.301 62.1751 118.843 62.3858C117.385 62.5885 116.029 62.668 114.785 62.6242C113.537 62.5726 112.57 62.4732 111.884 62.3222C111.841 63.435 111.805 64.6115 111.773 65.8516C111.742 67.0837 111.686 68.3952 111.615 69.7943C111.583 70.4858 111.583 71.1695 111.615 71.861C111.646 72.5606 111.615 73.2203 111.52 73.8483C111.306 74.7903 110.921 75.5375 110.363 76.0899C109.812 76.6503 109.158 77.0518 108.397 77.2982ZM112.138 54.2936C114.46 54.5401 116.196 54.4924 117.337 54.1506C118.478 53.8008 119.227 53.2444 119.588 52.4813C119.956 51.7102 120.071 50.8716 119.937 49.9694C119.83 49.0711 119.342 48.3915 118.478 47.9344C117.61 47.4813 116.608 47.2031 115.467 47.1077C114.325 47.0044 113.267 47.0521 112.296 47.2508C112.296 49.0314 112.241 51.3803 112.138 54.2936Z" fill="#D5DCF2"/>
<path d="M137.615 80.5255C136.81 79.973 136.002 79.2616 135.189 78.3952C134.373 77.5247 133.688 76.5907 133.129 75.5971C132.578 74.6114 132.305 73.6814 132.305 72.8149C132.336 72.0081 132.645 71.1933 133.24 70.3666C133.83 69.532 134.595 68.8841 135.538 68.427C136.679 67.8786 137.631 67.7236 138.391 67.966C139.152 68.2124 139.818 68.6735 140.389 69.3491C140.959 70.0288 141.506 70.7482 142.037 71.5113C142.552 72.1671 143.056 72.3618 143.543 72.0995C144.026 71.8451 144.423 71.4874 144.732 71.0343C145.184 70.3467 145.576 69.3929 145.905 68.1727C146.23 66.9565 146.309 65.5455 146.143 63.9438C145.58 64.4009 144.954 64.7387 144.256 64.9613C143.567 65.1838 142.949 65.2951 142.402 65.2951C139.453 65.2951 137.076 64.5956 135.269 63.1966C133.47 61.7896 132.36 59.6911 131.94 56.9009C131.591 54.6434 131.405 52.5925 131.385 50.7484C131.373 48.9042 131.528 46.9448 131.845 44.8661C132.011 43.6499 132.439 42.6562 133.129 41.8931C133.826 41.1221 134.781 40.7326 135.998 40.7326C136.937 40.7326 137.856 40.7723 138.756 40.8439C139.652 40.9194 140.444 41.13 141.134 41.4798C141.831 41.8216 142.358 42.382 142.719 43.165C143.087 43.9519 143.202 45.0728 143.067 46.5354C143.036 46.8772 142.976 47.4217 142.893 48.1729C142.806 48.9161 142.727 49.6633 142.655 50.4145C142.58 51.1577 142.528 51.7261 142.497 52.1156C142.465 53.3994 142.6 54.556 142.909 55.5814C143.226 56.5989 143.781 57.1076 144.573 57.1076C145.405 57.1076 145.893 56.738 146.032 55.9947C146.166 55.2436 146.325 54.1188 146.507 52.6243C146.674 51.2054 146.765 49.7388 146.777 48.2206C146.796 46.7063 146.828 45.5894 146.872 44.8661C146.935 43.6062 147.288 42.6403 147.934 41.9726C148.576 41.297 149.257 40.9551 149.978 40.9551C151.678 40.9551 153.275 41.1459 154.765 41.5275C156.255 41.909 157.242 42.7039 157.73 43.9122C158.49 45.5894 158.681 49.1904 158.3 54.7229C158.098 58.1569 157.88 61.2729 157.65 64.071C157.428 66.869 157.072 69.3571 156.588 71.5272C156.101 73.6973 155.356 75.5534 154.353 77.0915C153.105 78.9993 151.508 80.4142 149.566 81.3363C147.633 82.2584 145.604 82.6558 143.48 82.5287C141.363 82.4094 139.41 81.7417 137.615 80.5255Z" fill="#D5DCF2"/>
<path d="M13.1552 128.057C10.9361 127.612 8.95866 126.73 7.22694 125.402C5.49125 124.079 4.07655 122.453 2.97886 120.522C1.8891 118.594 1.20751 116.496 0.934081 114.226C0.656688 111.949 0.86275 109.659 1.55227 107.358C2.28142 104.965 3.40684 102.907 4.92854 101.19C6.45817 99.4647 8.21763 98.0816 10.2069 97.0403C12.2042 95.991 14.2846 95.2994 16.4522 94.9576C18.6159 94.6079 20.7201 94.6238 22.761 95.0053C24.8097 95.3869 26.6365 96.146 28.2454 97.2787C29.8622 98.4035 31.1184 99.9139 32.018 101.81C32.9254 103.71 33.3098 105.991 33.1751 108.662C33.0998 109.806 32.6044 110.808 31.6851 111.667C30.7657 112.517 29.5769 113.236 28.1186 113.829C26.6682 114.425 25.0792 114.878 23.3474 115.196C21.6118 115.506 19.8681 115.701 18.1166 115.784C16.3611 115.872 14.776 115.86 13.3613 115.752C14.0151 117.628 14.8988 118.864 16.0084 119.457C17.118 120.053 18.39 120.228 19.8285 119.981C21.263 119.739 22.7649 119.29 24.3302 118.63C25.6498 117.93 26.7316 117.672 27.5797 117.851C28.4237 118.022 29.2797 118.717 30.1475 119.934C30.738 120.697 30.9916 121.567 30.9084 122.541C30.8212 123.519 30.4011 124.349 29.6403 125.037C28.6655 125.939 27.4766 126.654 26.0738 127.183C24.667 127.704 23.1929 128.061 21.6514 128.264C20.1059 128.475 18.5921 128.554 17.1021 128.503C15.6121 128.447 14.2965 128.3 13.1552 128.057ZM13.3613 109.345C13.3613 109.345 13.7496 109.361 14.5343 109.393C15.3149 109.425 16.2818 109.441 17.435 109.441C18.5961 109.441 19.7651 109.385 20.9381 109.266C22.119 109.139 23.1017 108.924 23.8864 108.614C24.667 108.296 25.0594 107.847 25.0594 107.263C25.0594 106.15 24.667 105.299 23.8864 104.703C23.1017 104.111 22.1309 103.761 20.9698 103.654C19.8166 103.551 18.6476 103.694 17.4667 104.083C16.2937 104.465 15.3149 105.101 14.5343 105.991C13.7496 106.873 13.3613 107.99 13.3613 109.345Z" fill="#D5DCF2"/>
<path d="M51.7337 128.582C50.3388 128.582 48.9478 128.018 47.5648 126.897C46.1779 125.764 44.8702 124.27 43.6338 122.414C42.4053 120.55 41.2918 118.515 40.2892 116.309C39.2827 114.095 38.4505 111.897 37.7848 109.711C37.1269 107.517 36.699 105.554 36.5008 103.813C36.3502 102.636 36.2948 101.659 36.3265 100.872C36.3661 100.089 36.7386 99.4687 37.436 99.0116C38.0146 98.6301 38.7239 98.2724 39.5601 97.9306C40.3923 97.5808 41.2443 97.3384 42.1121 97.1993C42.976 97.0522 43.7527 97.0999 44.4422 97.3423C45.1396 97.5888 45.6469 98.1452 45.9639 99.0116C46.0986 99.3932 46.2888 99.9775 46.5345 100.76C46.7763 101.547 47.0259 102.394 47.2795 103.304C47.5411 104.206 47.8026 105.077 48.0562 105.911C48.3178 106.738 48.5199 107.414 48.6586 107.93C48.9756 108.94 49.3005 110.037 49.6413 111.221C49.9901 112.398 50.3546 113.399 50.7351 114.226C51.1155 115.045 51.5316 115.45 51.9873 115.45C52.6847 115.45 53.184 114.791 53.4931 113.463C53.9766 111.555 54.4204 109.691 54.8246 107.867C55.2249 106.035 55.6409 104.393 56.0769 102.938C56.5088 101.476 57.016 100.311 57.5986 99.4409C58.189 98.5744 58.9023 98.1373 59.7384 98.1373C60.8797 98.1373 61.9259 98.2605 62.8769 98.5029C63.828 98.7374 64.5611 99.2581 65.0802 100.061C65.6073 100.856 65.8173 102.076 65.7143 103.717C65.6073 105.351 65.0525 107.541 64.0499 110.283C62.7264 113.932 61.5019 117.131 60.3725 119.886C59.251 122.632 58.0146 124.767 56.6633 126.293C55.3081 127.819 53.6675 128.582 51.7337 128.582Z" fill="#D5DCF2"/>
<path d="M81.1555 128.057C78.9363 127.612 76.9589 126.73 75.2272 125.402C73.4915 124.079 72.0768 122.453 70.9791 120.522C69.8894 118.594 69.2078 116.496 68.9343 114.226C68.6569 111.949 68.863 109.659 69.5525 107.358C70.2817 104.965 71.4071 102.907 72.9288 101.19C74.4584 99.4647 76.2179 98.0816 78.2072 97.0403C80.2044 95.991 82.2849 95.2994 84.4525 94.9576C86.6162 94.6079 88.7204 94.6238 90.7612 95.0053C92.81 95.3869 94.6368 96.146 96.2457 97.2787C97.8625 98.4035 99.1187 99.9139 100.018 101.81C100.926 103.71 101.31 105.991 101.175 108.662C101.1 109.806 100.605 110.808 99.6853 111.667C98.766 112.517 97.5771 113.236 96.1189 113.829C94.6685 114.425 93.0794 114.878 91.3477 115.196C89.612 115.506 87.8684 115.701 86.1169 115.784C84.3614 115.872 82.7763 115.86 81.3615 115.752C82.0154 117.628 82.8991 118.864 84.0087 119.457C85.1182 120.053 86.3903 120.228 87.8288 119.981C89.2633 119.739 90.7652 119.29 92.3305 118.63C93.6501 117.93 94.7319 117.672 95.5799 117.851C96.424 118.022 97.2799 118.717 98.1478 119.934C98.7382 120.697 98.9919 121.567 98.9086 122.541C98.8215 123.519 98.4014 124.349 97.6406 125.037C96.6657 125.939 95.4769 126.654 94.0741 127.183C92.6673 127.704 91.1932 128.061 89.6516 128.264C88.1062 128.475 86.5924 128.554 85.1024 128.503C83.6124 128.447 82.2968 128.3 81.1555 128.057ZM81.3615 109.345C81.3615 109.345 81.7499 109.361 82.5345 109.393C83.3152 109.425 84.2821 109.441 85.4353 109.441C86.5964 109.441 87.7654 109.385 88.9383 109.266C90.1192 109.139 91.102 108.924 91.8866 108.614C92.6673 108.296 93.0596 107.847 93.0596 107.263C93.0596 106.15 92.6673 105.299 91.8866 104.703C91.102 104.111 90.1311 103.761 88.97 103.654C87.8169 103.551 86.6479 103.694 85.467 104.083C84.294 104.465 83.3152 105.101 82.5345 105.991C81.7499 106.873 81.3615 107.99 81.3615 109.345Z" fill="#D5DCF2"/>
<path d="M109.478 128.328C108.305 128.145 107.37 127.839 106.673 127.406C105.983 126.972 105.551 126.305 105.373 125.402C105.266 124.671 105.187 123.63 105.135 122.271C105.092 120.915 105.032 119.075 104.961 116.754C104.885 114.425 104.763 111.484 104.596 107.93C104.533 106.333 104.454 104.954 104.358 103.797C104.271 102.632 104.287 101.631 104.406 100.792C104.533 99.9576 104.874 99.2421 105.436 98.646C105.951 98.0975 106.744 97.7 107.814 97.4536C108.892 97.2112 110.009 97.1039 111.174 97.1357C112.335 97.1674 113.366 97.3543 114.265 97.6921C115.173 98.022 115.696 98.4989 115.835 99.1229C116.457 98.638 116.992 98.2644 117.436 98.0101C117.887 97.7477 118.391 97.5609 118.941 97.4536C119.5 97.3503 120.213 97.2946 121.081 97.2946C122.54 97.2946 123.958 97.7318 125.345 98.5983C126.728 99.4687 127.933 100.633 128.959 102.096C129.982 103.558 130.675 105.188 131.036 106.977C131.404 108.757 131.277 110.554 130.655 112.366C130.473 112.887 130.021 113.288 129.292 113.574C128.563 113.853 127.762 114 126.899 114.019C126.031 114.031 125.274 113.9 124.632 113.622C123.998 113.348 123.665 112.915 123.633 112.318L122.952 109.6C122.813 109.051 122.571 108.614 122.223 108.296C122.052 108.129 121.826 108.01 121.541 107.946C121.264 107.875 120.974 107.835 120.669 107.835H120.511C119.219 107.867 118.323 108.578 117.816 109.965C117.317 111.357 117.122 113.598 117.229 116.69C117.301 119.162 117.293 121.007 117.198 122.223C117.111 123.443 116.932 124.397 116.659 125.085C116.203 126.38 115.284 127.302 113.901 127.851C112.514 128.411 111.04 128.57 109.478 128.328Z" fill="#D5DCF2"/>
<path d="M140.474 137.708C139.67 137.155 138.861 136.444 138.049 135.577C137.232 134.707 136.547 133.773 135.988 132.779C135.437 131.794 135.164 130.863 135.164 129.997C135.196 129.19 135.505 128.375 136.099 127.549C136.69 126.714 137.454 126.066 138.398 125.609C139.539 125.061 140.49 124.906 141.251 125.148C142.012 125.395 142.677 125.856 143.248 126.531C143.819 127.211 144.365 127.93 144.896 128.693C145.412 129.349 145.915 129.544 146.402 129.282C146.886 129.027 147.282 128.67 147.591 128.216C148.043 127.529 148.435 126.575 148.764 125.355C149.089 124.139 149.168 122.728 149.002 121.126C148.439 121.583 147.813 121.921 147.116 122.143C146.426 122.366 145.808 122.477 145.261 122.477C142.313 122.477 139.935 121.778 138.128 120.379C136.329 118.972 135.219 116.873 134.799 114.083C134.451 111.826 134.264 109.775 134.245 107.93C134.233 106.086 134.387 104.127 134.704 102.048C134.871 100.832 135.299 99.8383 135.988 99.0752C136.686 98.3042 137.641 97.9147 138.857 97.9147C139.796 97.9147 140.716 97.9544 141.615 98.026C142.511 98.1015 143.303 98.3121 143.993 98.6619C144.69 99.0037 145.217 99.5641 145.578 100.347C145.947 101.134 146.061 102.255 145.927 103.717C145.895 104.059 145.836 104.604 145.752 105.355C145.665 106.098 145.586 106.845 145.515 107.597C145.439 108.34 145.388 108.908 145.356 109.298C145.324 110.581 145.459 111.738 145.768 112.763C146.085 113.781 146.64 114.29 147.433 114.29C148.265 114.29 148.752 113.92 148.891 113.177C149.026 112.426 149.184 111.301 149.366 109.806C149.533 108.388 149.624 106.921 149.636 105.403C149.656 103.888 149.687 102.772 149.731 102.048C149.794 100.788 150.147 99.8224 150.793 99.1547C151.435 98.4791 152.117 98.1373 152.838 98.1373C154.538 98.1373 156.135 98.328 157.625 98.7096C159.115 99.0911 160.102 99.886 160.589 101.094C161.35 102.772 161.54 106.372 161.16 111.905C160.958 115.339 160.74 118.455 160.51 121.253C160.288 124.051 159.931 126.539 159.448 128.709C158.96 130.879 158.215 132.735 157.213 134.274C155.964 136.181 154.367 137.596 152.426 138.518C150.492 139.44 148.463 139.838 146.339 139.711C144.223 139.592 142.269 138.924 140.474 137.708Z" fill="#D5DCF2"/>
<path d="M183.994 130.41C182.112 130.41 180.289 130.18 178.525 129.727C176.758 129.282 175.165 128.459 173.738 127.263C172.32 126.054 171.186 124.349 170.33 122.143C169.482 119.941 169.031 117.1 168.967 113.622C168.967 112.859 168.971 111.977 168.983 110.967C169.003 109.95 169.031 108.801 169.062 107.517H169.015C167.798 107.517 166.811 107.191 166.051 106.531C165.004 105.621 164.481 104.473 164.481 103.082C164.481 101.905 164.846 100.983 165.575 100.315C166.439 99.5204 167.548 99.1229 168.904 99.1229H169.379C169.411 98.4671 169.443 97.7835 169.474 97.0721C169.514 96.3527 169.554 95.6094 169.585 94.8463C169.617 94.2541 169.617 93.6818 169.585 93.1293C169.554 92.5689 169.585 92.0443 169.68 91.5554C169.859 90.8241 170.196 90.2359 170.695 89.7907C171.202 89.3376 171.781 89.0237 172.438 88.8528C173.168 88.6421 174.043 88.495 175.07 88.4076C176.092 88.3241 177.055 88.4036 177.955 88.6461C178.85 88.8806 179.492 89.3615 179.873 90.0928C180.19 90.689 180.324 91.5395 180.285 92.6524C180.253 93.7653 180.205 95.1087 180.142 96.6746C180.098 97.088 180.079 97.5093 180.079 97.9306C180.079 98.3439 180.063 98.7414 180.031 99.1229H180.966C182.496 99.1229 183.645 99.5601 184.406 100.427C185.167 101.297 185.547 102.251 185.547 103.288C185.547 103.777 185.476 104.25 185.341 104.703C185.064 105.637 184.699 106.277 184.247 106.627C183.76 107.084 183.189 107.326 182.536 107.358C181.87 107.465 181.157 107.517 180.396 107.517H179.777C179.702 110.581 179.75 113.141 179.92 115.196C180.098 117.243 180.558 118.789 181.299 119.838C182.048 120.879 183.205 121.396 184.771 121.396C185.349 121.396 185.821 121.698 186.181 122.302C186.55 122.906 186.776 123.654 186.863 124.544C186.958 125.434 186.914 126.333 186.736 127.231C186.566 128.129 186.245 128.884 185.769 129.488C185.302 130.1 184.711 130.41 183.994 130.41Z" fill="#D5DCF2"/>
<path d="M194.747 130.983C193.562 130.736 192.631 130.398 191.957 129.965C191.279 129.528 190.871 128.844 190.736 127.914C190.629 127.183 190.55 126.142 190.499 124.782C190.455 123.427 190.439 121.583 190.451 119.25C190.471 116.921 190.499 113.984 190.53 110.442C190.499 108.324 190.419 106.178 190.293 104.004C190.174 101.834 190.102 99.6794 190.071 97.549C190.027 95.4743 190.043 93.7017 190.118 92.239C190.19 90.7764 190.503 89.7709 191.054 89.2184C191.6 88.658 192.369 88.2764 193.352 88.0737C194.343 87.8631 195.369 87.7717 196.427 87.8035C197.493 87.8353 198.408 87.9943 199.169 88.2804C199.855 88.5268 200.457 88.9442 200.976 89.5364C201.503 90.1206 201.868 90.9155 202.07 91.9211C202.217 92.5809 202.264 93.2724 202.213 94.0037C202.157 94.735 202.149 95.4823 202.181 96.2454C202.252 97.5411 202.308 98.7811 202.339 99.9655C202.371 101.142 202.403 102.271 202.435 103.352C203.132 102.962 203.929 102.68 204.828 102.509C205.736 102.342 206.588 102.255 207.38 102.255C210.812 102.255 213.483 103.574 215.385 106.213C216.597 107.923 217.501 110.2 218.095 113.05C218.686 115.903 218.983 119.027 218.983 122.43C218.983 123.892 218.92 125.1 218.793 126.054C218.674 127.008 218.23 127.835 217.461 128.534C216.669 129.298 215.662 129.679 214.45 129.679C213.233 129.679 212.215 129.19 211.39 128.216C210.935 127.7 210.63 127.195 210.471 126.706C210.312 126.221 210.241 125.649 210.265 124.989C210.285 124.333 210.297 123.495 210.297 122.477C210.297 121.269 210.257 120.085 210.186 118.916C210.122 117.752 209.999 116.476 209.821 115.085C209.682 113.686 209.385 112.644 208.933 111.953C208.49 111.253 207.971 110.903 207.38 110.903C206.1 110.903 205.026 111.583 204.162 112.938C203.294 114.298 202.863 116.523 202.863 119.616C202.863 122.088 202.787 123.932 202.641 125.148C202.502 126.368 202.296 127.322 202.022 128.01C201.535 129.29 200.58 130.188 199.153 130.697C197.735 131.205 196.269 131.301 194.747 130.983Z" fill="#D5DCF2"/>
<path d="M226.57 131.094C225.46 130.911 224.58 130.649 223.939 130.299C223.293 129.957 222.9 129.425 222.766 128.693C222.69 128.097 222.627 127.27 222.575 126.197C222.532 125.116 222.512 123.65 222.512 121.794C222.512 119.93 222.528 117.589 222.559 114.767C222.559 113.093 222.488 111.396 222.353 109.679C222.215 107.962 222.124 106.253 222.084 104.544C222.084 102.883 222.108 101.468 222.163 100.299C222.215 99.1348 222.52 98.324 223.083 97.867C223.629 97.4536 224.366 97.1635 225.286 96.9926C226.205 96.8137 227.164 96.7462 228.171 96.7859C229.173 96.8177 230.041 96.9369 230.77 97.1357C231.436 97.3185 232.026 97.6523 232.546 98.1372C233.061 98.6142 233.39 99.2581 233.528 100.061C233.631 100.582 233.663 101.138 233.623 101.73C233.592 102.326 233.596 102.915 233.639 103.495C233.774 108.296 233.893 112.219 233.988 115.259C234.091 118.304 234.154 120.713 234.178 122.493C234.198 124.266 234.154 125.609 234.051 126.531C233.944 127.453 233.754 128.189 233.481 128.741C233.025 129.747 232.133 130.45 230.802 130.856C229.471 131.257 228.06 131.336 226.57 131.094ZM222.195 91.0308C222.195 89.7192 222.706 88.6898 223.732 87.9466C224.755 87.1954 226.166 86.8178 227.965 86.8178C229.696 86.8178 231.091 87.1834 232.149 87.9148C233.203 88.6381 233.734 89.6755 233.734 91.0308C233.734 92.3265 233.235 93.3519 232.244 94.115C231.262 94.8781 229.835 95.2597 227.965 95.2597C226.063 95.2597 224.624 94.8622 223.653 94.0673C222.678 93.2645 222.195 92.251 222.195 91.0308Z" fill="#D5DCF2"/>
<path d="M241.644 128.01C240.459 127.767 239.528 127.429 238.854 126.992C238.176 126.559 237.768 125.875 237.633 124.941C237.526 124.21 237.475 123.169 237.475 121.809C237.475 120.454 237.483 118.61 237.507 116.277C237.526 113.948 237.499 111.011 237.427 107.469C237.427 105.872 237.388 104.489 237.316 103.32C237.253 102.155 237.293 101.158 237.443 100.331C237.602 99.4965 237.974 98.797 238.569 98.2326C239.127 97.7159 239.94 97.3423 241.01 97.1197C242.088 96.8892 243.213 96.8177 244.386 96.9131C245.567 97.0005 246.593 97.2271 247.461 97.5967C248.325 97.9584 248.828 98.4512 248.967 99.0752C249.589 98.6221 250.132 98.2724 250.6 98.0259C251.075 97.7835 251.586 97.6205 252.137 97.5331C252.696 97.4496 253.409 97.4059 254.277 97.4059C255.418 97.4059 256.611 97.541 257.859 97.8034C259.104 98.0577 260.269 98.5665 261.347 99.3296C262.424 100.093 263.272 101.237 263.899 102.764C264.691 104.651 265.214 107.056 265.468 109.981C265.729 112.899 265.864 116.054 265.864 119.457C265.864 120.919 265.801 122.127 265.674 123.081C265.555 124.035 265.119 124.862 264.358 125.561C263.839 126.05 263.126 126.388 262.218 126.579C261.319 126.77 260.419 126.766 259.524 126.563C258.624 126.352 257.895 125.911 257.336 125.243C256.892 124.727 256.591 124.222 256.433 123.733C256.274 123.248 256.199 122.676 256.211 122.016C256.231 121.36 256.243 120.522 256.243 119.504C256.243 118.296 256.203 117.112 256.132 115.943C256.068 114.779 255.949 113.503 255.783 112.112C255.644 110.713 255.347 109.671 254.895 108.98C254.439 108.28 253.92 107.93 253.342 107.93C252.05 107.93 251.127 108.61 250.568 109.965C250.017 111.325 249.744 113.55 249.744 116.643C249.744 119.115 249.672 120.959 249.538 122.175C249.399 123.395 249.193 124.349 248.919 125.037C248.4 126.332 247.437 127.231 246.034 127.739C244.628 128.236 243.165 128.328 241.644 128.01Z" fill="#D5DCF2"/>
<path d="M274.905 136.102C274.006 134.532 273.542 133.181 273.51 132.048C273.479 130.923 273.701 129.985 274.176 129.234C274.66 128.491 275.242 127.938 275.92 127.581C276.594 127.211 277.192 126.988 277.711 126.913C278.44 126.809 279.035 126.929 279.502 127.278C279.978 127.628 280.366 128.061 280.675 128.582C280.992 129.099 281.325 129.576 281.674 130.013C282.022 130.446 282.435 130.716 282.91 130.824C283.394 130.927 284.024 130.72 284.796 130.204C285.589 129.683 286.271 128.952 286.841 128.01C287.412 127.08 287.697 125.951 287.697 124.623C287.697 124.349 287.574 124.21 287.333 124.21C286.603 124.21 285.926 124.254 285.304 124.337C284.678 124.425 283.917 124.488 283.021 124.528C282.122 124.56 280.905 124.54 279.375 124.464C278.793 124.433 278.004 124.238 277.014 123.876C276.031 123.507 275.008 122.966 273.954 122.255C272.896 121.535 271.941 120.645 271.085 119.584C270.237 118.527 269.627 117.271 269.247 115.816C268.866 114.353 268.882 112.7 269.294 110.856C269.778 108.662 270.435 106.627 271.26 104.751C272.092 102.875 273.197 101.313 274.573 100.061C275.944 98.8129 277.64 97.9862 279.661 97.5808C281.69 97.1794 284.123 97.3423 286.968 98.0737C287.178 97.1436 287.733 96.4441 288.632 95.9751C289.54 95.4982 290.57 95.2358 291.723 95.1802C292.884 95.1285 293.978 95.2875 295.004 95.6572C296.027 96.0188 296.768 96.5633 297.224 97.2946C297.529 97.7835 297.858 98.3916 298.206 99.1229C298.555 99.8542 298.872 100.832 299.157 102.048C299.451 103.256 299.681 104.838 299.839 106.786C299.998 108.737 300.037 111.182 299.966 114.115C299.902 117.052 299.665 120.609 299.253 124.782C298.86 128.121 298.084 130.84 296.922 132.938C295.769 135.045 294.386 136.646 292.77 137.739C291.161 138.828 289.457 139.512 287.65 139.79C285.843 140.076 284.087 140.068 282.387 139.774C280.695 139.476 279.189 138.987 277.87 138.312C276.558 137.632 275.571 136.897 274.905 136.102ZM281.404 107.517C280.536 107.795 279.871 108.34 279.407 109.155C278.939 109.973 278.71 110.864 278.71 111.826C278.71 112.779 278.967 113.622 279.486 114.353C280.001 115.085 280.818 115.538 281.927 115.705C283.933 115.983 285.438 115.983 286.445 115.705C287.459 115.43 287.927 114.957 287.856 114.29L287.444 108.089C287.412 107.39 286.786 106.992 285.573 106.897C284.357 106.794 282.966 107 281.404 107.517Z" fill="#D5DCF2"/>
<path d="M252.058 64.9431C252.799 65.1577 253.548 65.3723 254.305 65.5909C256.06 60.0823 255.731 54.1006 253.477 48.7151C248.06 34.4744 229.538 29.3711 216.912 36.7439C208.436 41.7637 204.148 49.0053 202.325 57.8009C218.422 57.3518 236.092 60.281 252.058 64.9431ZM172.886 62.4312C181.188 59.7206 191.955 58.0155 202.21 57.8049C204.14 39.0888 224.469 26.5532 242.096 35.2574C253.045 40.313 259.052 54.3391 255.141 65.8612C268.713 69.7205 281.053 77.4151 290.616 85.9842C291.408 86.7076 291.376 86.7473 290.524 86.0995C280.582 78.0749 268.468 70.4001 254.895 66.68L254.891 66.6839C230.291 59.033 200.613 55.6586 176.508 61.7277C175.525 61.9105 169.213 63.6593 172.886 62.4312Z" fill="#D5DCF2"/>
<path d="M216.912 36.7439C229.538 29.3751 248.06 34.4744 253.473 48.7151C255.732 54.1006 256.06 60.0823 254.305 65.5909C253.548 65.3723 252.799 65.1577 252.058 64.9431C236.092 60.281 218.422 57.3518 202.325 57.8009C204.148 49.0013 208.432 41.7637 216.912 36.7439Z" fill="#D5DCF2"/>
<path d="M276.172 67.3516C276.413 68.0512 259.528 62.2285 260.15 61.831C259.92 61.1355 276.774 66.9502 276.172 67.3516Z" fill="#D5DCF2"/>
<path d="M270.873 52.5863C262.016 53.2341 261.949 52.2962 270.806 51.6761C279.662 51.0283 279.73 51.9663 270.873 52.5863Z" fill="#D5DCF2"/>
<path d="M262.219 40.5315C255.843 43.3018 255.482 42.4353 261.87 39.6889C268.278 36.9624 268.627 37.8368 262.219 40.5315Z" fill="#D5DCF2"/>
<path d="M248.959 33.2702C248.361 33.1669 252.613 25.9213 253.041 26.3545C253.643 26.4579 249.391 33.7034 248.959 33.2702Z" fill="#D5DCF2"/>
<path d="M234.083 27.6621C233.473 27.7376 234.229 21.0087 234.792 21.3346C235.402 21.2551 234.646 27.988 234.083 27.6621Z" fill="#D5DCF2"/>
<path d="M216.405 23.1351C214.491 18.2186 215.272 17.7973 217.237 22.7695C219.385 27.515 218.541 27.9125 216.405 23.1351Z" fill="#D5DCF2"/>
<path d="M202.175 30.5873C195.846 26.5015 196.361 25.7225 202.686 29.8362C208.812 34.2121 208.261 34.9792 202.175 30.5873Z" fill="#D5DCF2"/>
<path d="M202.425 45.8694C202.662 46.3384 188.325 41.4616 188.797 41.2311C188.702 40.3607 203.035 45.2374 202.425 45.8694Z" fill="#D5DCF2"/>
<path d="M196.643 54.1841C196.881 54.7961 184.557 53.576 184.909 53.0275C184.668 52.4194 196.996 53.6356 196.643 54.1841Z" fill="#D5DCF2"/>
<path d="M25.6958 19.65C25.3154 19.3838 24.927 19.0459 24.5386 18.6326C24.1463 18.2192 23.8174 17.7741 23.5559 17.2971C23.2904 16.8281 23.1596 16.3909 23.1596 15.9776C23.1794 15.596 23.326 15.2065 23.6034 14.817C23.8888 14.4156 24.2533 14.1016 24.6972 13.879C25.244 13.6167 25.6997 13.5412 26.0604 13.6565C26.4289 13.7757 26.7459 13.9983 27.0114 14.3242C27.2848 14.6421 27.5503 14.984 27.804 15.3576C28.0457 15.6636 28.2835 15.755 28.5173 15.6278C28.7471 15.5086 28.9373 15.3456 29.0879 15.135C29.2979 14.7972 29.4842 14.3401 29.6427 13.7678C29.8012 13.1875 29.8369 12.5118 29.7536 11.7487C29.4881 11.9633 29.1909 12.1263 28.866 12.2415C28.5371 12.3488 28.2399 12.4005 27.9783 12.4005C26.5715 12.4005 25.4342 12.0667 24.5704 11.3989C23.7144 10.7233 23.1913 9.72169 23.0011 8.3942C22.8307 7.31313 22.7396 6.33937 22.7316 5.46895C22.7197 4.59058 22.7871 3.65259 22.9377 2.65499C23.0209 2.07471 23.227 1.60174 23.5559 1.24005C23.8927 0.882347 24.3484 0.69952 24.9191 0.69952C25.3708 0.69952 25.8107 0.715418 26.2347 0.747214C26.6667 0.77901 27.0471 0.882347 27.376 1.04928C27.7009 1.20826 27.9506 1.47455 28.121 1.84418C28.2993 2.21779 28.3587 2.75037 28.2953 3.44989C28.2716 3.62079 28.2399 3.88709 28.2002 4.24479C28.1685 4.59455 28.1289 4.95226 28.0893 5.30997C28.0576 5.65972 28.0338 5.92602 28.0259 6.10487C28.0021 6.72092 28.0655 7.27338 28.2161 7.75827C28.3627 8.24714 28.6282 8.48958 29.0086 8.48958C29.4089 8.48958 29.6427 8.31471 29.7061 7.96495C29.7695 7.60724 29.8408 7.07068 29.928 6.35924C30.0112 5.68357 30.0548 4.98406 30.0548 4.26069C30.0627 3.5413 30.0786 3.00474 30.1024 2.65499C30.1341 2.06278 30.3005 1.60571 30.6096 1.28775C30.9147 0.961839 31.2436 0.794908 31.5924 0.794908C32.3928 0.794908 33.1497 0.886323 33.8591 1.06518C34.5763 1.248 35.0518 1.62956 35.2857 2.20984C35.6423 3.00474 35.7334 4.71776 35.5551 7.34492C35.4481 8.99037 35.3411 10.4768 35.2381 11.8123C35.1311 13.1477 34.9607 14.3321 34.7309 15.3576C34.4971 16.3949 34.1444 17.2812 33.6688 18.0125C33.0744 18.9227 32.3136 19.5944 31.3863 20.0316C30.4669 20.4767 29.5 20.6675 28.4856 20.6039C27.479 20.5483 26.5517 20.2303 25.6958 19.65Z" fill="#D5DCF2"/>
<path d="M2.07515 15.0237C1.50452 14.9084 1.06069 14.7495 0.743666 14.5468C0.426645 14.3361 0.228507 14.0062 0.157178 13.5611C0.113587 13.2113 0.0937735 12.7145 0.0937735 12.0667C0.0937735 11.4228 0.0937735 10.5484 0.0937735 9.44347C0.101698 8.3306 0.0937735 6.93157 0.0620714 5.24637C0.0620714 4.48326 0.0462204 3.82747 0.0145183 3.27501C-0.0171837 2.7146 0.0026298 2.23766 0.0779224 1.84418C0.149253 1.44275 0.323613 1.10889 0.601006 0.842599C0.862548 0.600153 1.2509 0.425274 1.75813 0.317962C2.27329 0.202701 2.81223 0.16693 3.37494 0.206675C3.94557 0.250395 4.43696 0.361682 4.84908 0.540535C5.26121 0.71144 5.49897 0.945936 5.56238 1.24005C5.85562 1.0294 6.11716 0.866446 6.33908 0.74721C6.56099 0.631949 6.80272 0.552459 7.06823 0.508739C7.32977 0.468993 7.67057 0.445147 8.08269 0.445147C8.64144 0.445147 9.22793 0.508739 9.84216 0.635924C10.4524 0.755159 11.0072 1.02543 11.5065 1.44673C11.7799 1.22415 12.093 1.00158 12.4417 0.779006C12.7904 0.556433 13.2264 0.373605 13.7574 0.222573C14.2844 0.0755162 14.9462 0 15.7387 0C16.2856 0 16.8562 0.0635924 17.4507 0.190777C18.0411 0.310012 18.5919 0.552459 19.0992 0.922089C19.6143 1.28377 20.0225 1.82828 20.3197 2.55959C20.7001 3.44989 20.9537 4.59455 21.0805 5.99358C21.2073 7.38466 21.2707 8.88703 21.2707 10.5086C21.2707 11.2002 21.239 11.7725 21.1756 12.2256C21.1202 12.6827 20.9101 13.0802 20.5416 13.418C20.2959 13.6525 19.9591 13.8154 19.5271 13.9108C19.1031 13.9983 18.6751 13.9903 18.2432 13.8949C17.8073 13.7916 17.4586 13.577 17.197 13.259C16.983 13.0166 16.8404 12.7781 16.7691 12.5436C16.6938 12.3131 16.6581 12.0428 16.6581 11.7328C16.666 11.4148 16.674 11.0134 16.674 10.5245C16.674 9.9522 16.6581 9.3918 16.6264 8.83934C16.5947 8.27893 16.5353 7.67083 16.452 7.01106C16.3886 6.34334 16.2499 5.84652 16.0399 5.51664C15.8259 5.19073 15.5802 5.0238 15.2949 5.0238C14.6807 5.0238 14.2408 5.34176 13.9793 5.97768C13.7138 6.61361 13.583 7.65891 13.583 9.10961C13.6028 9.40769 13.6147 9.70976 13.6147 10.0158C13.6147 10.3258 13.6147 10.6358 13.6147 10.9538C13.6147 11.6533 13.583 12.2336 13.5196 12.6867C13.4641 13.1437 13.2541 13.5372 12.8856 13.8631C12.6399 14.0976 12.303 14.2606 11.8711 14.356C11.4471 14.4434 11.0191 14.4355 10.5872 14.3401C10.1513 14.2367 9.80253 14.0221 9.54099 13.7042C9.327 13.4617 9.18434 13.2232 9.11301 12.9887C9.03772 12.7582 9.00601 12.4879 9.0179 12.1779C9.02583 11.86 9.03375 11.4625 9.03375 10.9856C9.03375 10.4053 9.00998 9.83694 8.97035 9.28448C8.93865 8.72408 8.88317 8.11598 8.81184 7.4562C8.73655 6.78848 8.59389 6.29167 8.38386 5.96178C8.16987 5.63587 7.92418 5.46894 7.63886 5.46894C7.02464 5.46894 6.58477 5.79485 6.32323 6.43873C6.05772 7.08657 5.92695 8.14777 5.92695 9.61835C5.92695 10.7948 5.89525 11.6771 5.83185 12.2574C5.76844 12.8298 5.66541 13.2829 5.53068 13.6088C5.28499 14.2248 4.82531 14.6541 4.15164 14.8965C3.48589 15.127 2.79241 15.1708 2.07515 15.0237Z" fill="#D5DCF2"/>
</svg>
