<svg width="453" height="103" viewBox="0 0 453 103" fill="none" xmlns="http://www.w3.org/2000/svg">
<path d="M4.07425 95.1786C3.05863 94.9702 2.26175 94.6786 1.67842 94.3036C1.1055 93.9286 0.761755 93.3348 0.636755 92.5327C0.553422 91.9077 0.480504 91.0223 0.428421 89.8661C0.386755 88.6994 0.37113 87.1265 0.386755 85.1369C0.397171 83.1525 0.428422 80.6369 0.470088 77.5952C0.428422 75.7931 0.350296 73.965 0.240921 72.1161C0.141963 70.2567 0.0794628 68.4181 0.0534215 66.5952C0.0221708 64.8192 0.0377962 63.3035 0.0950882 62.0535C0.162796 60.8035 0.43363 59.9442 0.907588 59.4702C1.37634 58.9858 2.0378 58.6577 2.88675 58.491C3.7305 58.314 4.6055 58.2358 5.51175 58.2619C6.42842 58.2931 7.20967 58.4233 7.86592 58.6577C8.45967 58.866 8.9805 59.2306 9.42842 59.741C9.87113 60.241 10.1836 60.9233 10.3659 61.7827C10.4753 62.3556 10.5118 62.9494 10.4701 63.5744C10.4284 64.189 10.418 64.8244 10.4493 65.4911C10.5013 66.59 10.543 67.6473 10.5743 68.6577C10.6003 69.6577 10.6368 70.6265 10.6784 71.5536C11.2618 71.2202 11.9388 70.9858 12.7201 70.8452C13.4961 70.6942 14.2253 70.6161 14.9076 70.6161C17.8503 70.6161 20.1368 71.7411 21.7618 73.9911C22.8034 75.4494 23.5743 77.4025 24.0743 79.8452C24.5847 82.2775 24.8451 84.9494 24.8451 87.8661C24.8451 89.1056 24.7878 90.1317 24.6784 90.9494C24.5795 91.7723 24.2045 92.4754 23.5534 93.0744C22.8711 93.7254 22.0118 94.0536 20.9701 94.0536C19.9284 94.0536 19.0534 93.6369 18.3451 92.8036C17.9545 92.3608 17.6888 91.9285 17.5534 91.5119C17.4284 91.0952 17.3711 90.6108 17.3868 90.0536C17.3972 89.4858 17.4076 88.7723 17.4076 87.9077C17.4076 86.866 17.3711 85.8556 17.3034 84.8661C17.2461 83.8661 17.142 82.7723 16.9909 81.5744C16.8763 80.3817 16.6263 79.491 16.2409 78.9077C15.8503 78.314 15.4076 78.0119 14.9076 78.0119C13.8086 78.0119 12.8868 78.5952 12.1368 79.7619C11.3972 80.9181 11.0326 82.814 11.0326 85.4494C11.0326 87.564 10.9701 89.1369 10.8451 90.1786C10.7305 91.2202 10.5534 92.0431 10.3034 92.6369C9.88676 93.7306 9.06384 94.4963 7.84509 94.9286C6.63676 95.3556 5.37634 95.439 4.07425 95.1786Z" fill="#F08F3A"/>
<path d="M45.0697 94.0119C44.6791 93.8869 44.2624 93.6265 43.8197 93.241C43.3718 92.866 43.1218 92.3192 43.0697 91.5952L43.0281 91.1577C40.5541 92.1994 38.3041 92.6004 36.2781 92.366C34.2624 92.1317 32.5333 91.4077 31.0906 90.1994C29.6583 88.991 28.5958 87.4702 27.9031 85.6369C27.4864 84.4702 27.3874 83.4233 27.6114 82.491C27.8458 81.5483 28.2833 80.715 28.9239 79.991C29.5593 79.2723 30.2833 78.6577 31.0906 78.1577C31.9083 77.6473 32.7051 77.2567 33.4864 76.991C34.2624 76.715 34.9031 76.5483 35.4031 76.491C36.6531 76.366 37.6374 76.2931 38.3614 76.2619C39.0958 76.2358 39.7208 76.2306 40.2364 76.241C40.7624 76.2567 41.3197 76.2775 41.9031 76.3035C42.1374 76.3035 42.226 76.1994 42.1739 75.991C41.9083 75.1994 41.5697 74.5119 41.1531 73.9285C40.7364 73.3452 40.1843 72.9077 39.5072 72.616C38.8249 72.314 38.2885 72.1994 37.9031 72.2827C37.5124 72.3556 37.1947 72.5327 36.9447 72.8244C36.6947 73.1056 36.4447 73.4233 36.1947 73.7827C35.9551 74.1317 35.6583 74.4233 35.2989 74.6577C34.9499 74.8973 34.476 75.0015 33.8822 74.9702C33.4343 74.9702 32.9239 74.866 32.3406 74.6577C31.7676 74.4494 31.2676 74.1265 30.8406 73.6785C30.4083 73.2358 30.1739 72.6525 30.1322 71.9285C30.101 71.1942 30.4135 70.3035 31.0697 69.2619C31.5541 68.5275 32.3041 67.8244 33.3197 67.1577C34.3458 66.491 35.5385 65.9598 36.9031 65.5535C38.2781 65.1525 39.6999 64.9806 41.1739 65.0327C42.6426 65.09 44.0749 65.465 45.4656 66.1577C46.8666 66.84 48.1114 67.9233 49.1947 69.4077C50.2781 70.8973 51.0906 72.9025 51.6322 75.4285C52.3406 78.7202 52.7885 81.4181 52.9864 83.5119C53.1791 85.6108 53.2051 87.2827 53.0697 88.5327C52.9447 89.7827 52.7208 90.741 52.4031 91.4077C52.0958 92.0744 51.7885 92.616 51.4864 93.0327C51.1635 93.5015 50.4135 93.8765 49.2364 94.1577C48.0697 94.4494 46.6791 94.3973 45.0697 94.0119ZM37.6739 82.241C36.726 82.366 36.0541 82.6265 35.6531 83.0119C35.2468 83.3869 35.0749 83.8192 35.1322 84.3035C35.1843 84.7775 35.4343 85.1785 35.8822 85.5119C36.3406 85.8348 36.9499 85.991 37.7156 85.991C39.0489 85.965 40.0593 85.8817 40.7572 85.741C41.4656 85.6056 42.0385 85.4494 42.4864 85.2827C42.7468 85.1317 42.8822 84.9025 42.8822 84.5952V83.3035C42.8822 82.9598 42.8406 82.7723 42.7572 82.741C42.3666 82.5327 41.7989 82.3556 41.0489 82.1994C40.3093 82.0483 39.1843 82.064 37.6739 82.241Z" fill="#F08F3A"/>
<path d="M64.1382 98.1577C63.4559 98.366 62.6277 98.4806 61.659 98.5119C60.7007 98.5379 59.7736 98.4598 58.8882 98.2827C57.9975 98.1004 57.2944 97.8087 56.784 97.4077C56.2527 96.9494 55.9559 96.1212 55.8882 94.9285C55.8309 93.7462 55.8152 92.3244 55.8465 90.6577C55.8725 88.939 55.935 87.2098 56.034 85.4702C56.1434 83.7358 56.2215 82.0067 56.2632 80.2827C56.2215 77.3973 56.1902 75.0275 56.1798 73.1785C56.1642 71.3192 56.185 69.84 56.2423 68.741C56.31 67.6473 56.3882 66.814 56.4715 66.241C56.6225 65.465 57.0027 64.9025 57.6173 64.5535C58.2267 64.1942 59.0652 63.9233 60.1382 63.741C61.4402 63.5067 62.6902 63.5692 63.8882 63.9285C65.0965 64.2775 65.9819 64.8817 66.5548 65.741C69.9975 64.8556 72.8517 64.8452 75.1173 65.7202C77.3934 66.5952 79.0444 68.1265 80.0757 70.3035C81.1017 72.4702 81.4559 75.0692 81.1382 78.0952C80.9559 79.7358 80.4611 81.0535 79.659 82.0535C78.8517 83.0431 77.8673 83.8035 76.7007 84.3452C75.5444 84.8765 74.3465 85.2306 73.0965 85.4077C71.8569 85.59 70.7007 85.6577 69.6173 85.616C68.5444 85.564 67.7215 85.4806 67.1382 85.366C67.1069 86.314 67.0757 87.314 67.034 88.366C67.0027 89.4233 66.9611 90.5483 66.909 91.741C66.8777 92.34 66.8777 92.9285 66.909 93.5119C66.935 94.1056 66.909 94.6785 66.8257 95.2202C66.6434 96.0119 66.31 96.6421 65.8257 97.116C65.3517 97.6004 64.7892 97.9494 64.1382 98.1577ZM67.3465 78.491C69.3465 78.6994 70.8309 78.6577 71.8048 78.366C72.7892 78.064 73.435 77.5848 73.7423 76.9285C74.06 76.2775 74.159 75.5692 74.034 74.8035C73.9507 74.0275 73.534 73.4442 72.784 73.0535C72.0444 72.6681 71.185 72.4285 70.2007 72.3452C69.2267 72.2619 68.3257 72.3035 67.4923 72.4702C67.4923 74.0014 67.4402 76.0067 67.3465 78.491Z" fill="#F08F3A"/>
<path d="M92.2129 98.1577C91.5306 98.366 90.7025 98.4806 89.7338 98.5119C88.7754 98.5379 87.8483 98.4598 86.9629 98.2827C86.0723 98.1004 85.3692 97.8087 84.8588 97.4077C84.3275 96.9494 84.0306 96.1212 83.9629 94.9285C83.9056 93.7462 83.89 92.3244 83.9213 90.6577C83.9473 88.939 84.0098 87.2098 84.1088 85.4702C84.2181 83.7358 84.2963 82.0067 84.3379 80.2827C84.2963 77.3973 84.265 75.0275 84.2546 73.1785C84.239 71.3192 84.2598 69.84 84.3171 68.741C84.3848 67.6473 84.4629 66.814 84.5463 66.241C84.6973 65.465 85.0775 64.9025 85.6921 64.5535C86.3015 64.1942 87.14 63.9233 88.2129 63.741C89.515 63.5067 90.765 63.5692 91.9629 63.9285C93.1713 64.2775 94.0567 64.8817 94.6296 65.741C98.0723 64.8556 100.926 64.8452 103.192 65.7202C105.468 66.5952 107.119 68.1265 108.15 70.3035C109.176 72.4702 109.531 75.0692 109.213 78.0952C109.031 79.7358 108.536 81.0535 107.734 82.0535C106.926 83.0431 105.942 83.8035 104.775 84.3452C103.619 84.8765 102.421 85.2306 101.171 85.4077C99.9317 85.59 98.7754 85.6577 97.6921 85.616C96.6192 85.564 95.7963 85.4806 95.2129 85.366C95.1817 86.314 95.1504 87.314 95.1088 88.366C95.0775 89.4233 95.0358 90.5483 94.9838 91.741C94.9525 92.34 94.9525 92.9285 94.9838 93.5119C95.0098 94.1056 94.9838 94.6785 94.9004 95.2202C94.7181 96.0119 94.3848 96.6421 93.9004 97.116C93.4265 97.6004 92.864 97.9494 92.2129 98.1577ZM95.4213 78.491C97.4213 78.6994 98.9056 78.6577 99.8796 78.366C100.864 78.064 101.51 77.5848 101.817 76.9285C102.135 76.2775 102.234 75.5692 102.109 74.8035C102.025 74.0275 101.609 73.4442 100.859 73.0535C100.119 72.6681 99.2598 72.4285 98.2754 72.3452C97.3015 72.2619 96.4004 72.3035 95.5671 72.4702C95.5671 74.0014 95.515 76.0067 95.4213 78.491Z" fill="#F08F3A"/>
<path d="M117.267 100.929C116.585 100.439 115.892 99.8244 115.184 99.0744C114.486 98.3348 113.903 97.5432 113.434 96.6994C112.96 95.8504 112.726 95.0588 112.726 94.3244C112.752 93.6421 113.017 92.9494 113.517 92.2411C114.017 91.5223 114.668 90.965 115.476 90.5744C116.46 90.1057 117.278 89.9702 117.934 90.1786C118.585 90.3869 119.153 90.7827 119.642 91.3661C120.142 91.939 120.611 92.5432 121.059 93.1994C121.502 93.7671 121.934 93.939 122.351 93.7202C122.767 93.4963 123.106 93.189 123.371 92.8036C123.757 92.2098 124.09 91.3973 124.371 90.3661C124.647 89.3244 124.715 88.1161 124.58 86.7411C124.09 87.1317 123.548 87.4234 122.955 87.6161C122.371 87.814 121.84 87.9077 121.371 87.9077C118.84 87.9077 116.798 87.3036 115.246 86.0952C113.705 84.8869 112.757 83.0952 112.413 80.7202C112.106 78.7931 111.944 77.0431 111.934 75.4702C111.918 73.8869 112.043 72.2098 112.309 70.4286C112.46 69.3869 112.835 68.5432 113.434 67.8869C114.028 67.2359 114.84 66.9077 115.871 66.9077C116.673 66.9077 117.465 66.9442 118.246 67.0119C119.022 67.0692 119.705 67.2411 120.288 67.5327C120.882 67.8244 121.335 68.314 121.642 68.9911C121.96 69.6577 122.059 70.6109 121.934 71.8452C121.903 72.1525 121.856 72.6265 121.788 73.2619C121.715 73.9025 121.647 74.5431 121.58 75.1786C121.522 75.8192 121.481 76.2984 121.455 76.6161C121.423 77.7306 121.543 78.7202 121.809 79.5952C122.069 80.4702 122.548 80.9077 123.246 80.9077C123.955 80.9077 124.361 80.59 124.476 79.9494C124.601 79.314 124.736 78.3557 124.892 77.0744C125.028 75.8557 125.106 74.5952 125.121 73.3036C125.147 72.0119 125.173 71.0536 125.205 70.4286C125.257 69.3609 125.559 68.5431 126.101 67.9702C126.653 67.3869 127.246 67.0952 127.871 67.0952C129.33 67.0952 130.694 67.2619 131.976 67.5952C133.252 67.9181 134.101 68.59 134.517 69.6161C135.168 71.0484 135.33 74.1265 134.996 78.8452C134.83 81.7931 134.647 84.465 134.455 86.8661C134.257 89.2567 133.955 91.3765 133.538 93.2202C133.121 95.0796 132.481 96.6629 131.621 97.9702C130.548 99.6056 129.184 100.814 127.517 101.595C125.851 102.387 124.106 102.725 122.288 102.616C120.481 102.517 118.809 101.955 117.267 100.929Z" fill="#F08F3A"/>
<path d="M163.327 92.6786C161.421 92.2931 159.728 91.5327 158.244 90.4077C156.755 89.2723 155.546 87.8817 154.619 86.2411C153.687 84.59 153.098 82.7931 152.848 80.8452C152.609 78.8869 152.791 76.9286 153.39 74.9702C154.015 72.9286 154.978 71.1733 156.286 69.6994C157.588 68.2306 159.098 67.0483 160.807 66.1577C162.515 65.2567 164.296 64.6577 166.161 64.3661C168.02 64.0744 169.827 64.0952 171.577 64.4286C173.327 64.7515 174.89 65.3973 176.265 66.3661C177.65 67.3244 178.734 68.6161 179.515 70.2411C180.291 71.8556 180.619 73.8036 180.494 76.0952C180.437 77.0692 180.015 77.9233 179.223 78.6577C178.432 79.3817 177.411 80.0015 176.161 80.5119C174.921 81.0119 173.562 81.3973 172.077 81.6577C170.588 81.9233 169.098 82.0952 167.598 82.1786C166.098 82.2515 164.734 82.2411 163.515 82.1577C164.067 83.7567 164.817 84.814 165.765 85.3244C166.723 85.8244 167.817 85.9702 169.057 85.7619C170.291 85.5536 171.577 85.1681 172.911 84.5952C174.046 84.0119 174.978 83.7983 175.702 83.9494C176.421 84.09 177.161 84.6786 177.911 85.7202C178.411 86.3765 178.624 87.1161 178.557 87.9494C178.484 88.7827 178.124 89.5015 177.473 90.0952C176.64 90.8608 175.619 91.465 174.411 91.9077C173.202 92.3556 171.937 92.6629 170.619 92.8452C169.296 93.0223 167.999 93.0952 166.723 93.0536C165.442 93.0119 164.312 92.8869 163.327 92.6786ZM163.515 76.6786C163.515 76.6786 163.848 76.6942 164.515 76.7202C165.182 76.7515 166.005 76.7619 166.994 76.7619C167.994 76.7619 168.999 76.715 170.015 76.6161C171.025 76.5067 171.869 76.3192 172.536 76.0536C173.202 75.7775 173.536 75.3869 173.536 74.8869C173.536 73.9442 173.202 73.2202 172.536 72.7202C171.869 72.2098 171.036 71.9077 170.036 71.8244C169.046 71.7306 168.046 71.8452 167.036 72.1786C166.02 72.5015 165.182 73.0431 164.515 73.8036C163.848 74.5536 163.515 75.5119 163.515 76.6786Z" fill="#F08F3A"/>
<path d="M196.407 93.1161C195.209 93.1161 194.016 92.6369 192.824 91.6786C191.641 90.7098 190.522 89.4285 189.469 87.8452C188.412 86.2515 187.454 84.5067 186.594 82.6161C185.73 80.7306 185.016 78.8556 184.449 76.9911C183.891 75.1161 183.522 73.439 183.344 71.9494C183.219 70.939 183.167 70.0952 183.199 69.4286C183.225 68.7619 183.537 68.2358 184.136 67.8452C184.647 67.5119 185.261 67.1994 185.969 66.9077C186.678 66.616 187.397 66.4077 188.136 66.2827C188.886 66.1577 189.558 66.1994 190.157 66.4077C190.751 66.616 191.183 67.0952 191.449 67.8452C191.574 68.1681 191.74 68.6681 191.949 69.3452C192.157 70.0119 192.371 70.7358 192.594 71.5119C192.813 72.2775 193.037 73.0223 193.261 73.7411C193.48 74.4494 193.647 75.0275 193.761 75.4702C194.037 76.3348 194.324 77.2723 194.615 78.2827C194.907 79.2827 195.219 80.1369 195.553 80.8452C195.886 81.5431 196.24 81.8869 196.615 81.8869C197.209 81.8869 197.641 81.3244 197.907 80.1994C198.324 78.564 198.704 76.965 199.053 75.4077C199.397 73.84 199.751 72.439 200.115 71.1994C200.49 69.9494 200.928 68.9598 201.428 68.2202C201.938 67.4702 202.553 67.0952 203.261 67.0952C204.246 67.0952 205.141 67.1994 205.949 67.4077C206.766 67.6056 207.397 68.0483 207.844 68.7411C208.303 69.4233 208.48 70.465 208.386 71.8661C208.303 73.2567 207.829 75.1265 206.969 77.4702C205.829 80.5952 204.772 83.3348 203.803 85.6786C202.844 88.0275 201.782 89.8556 200.615 91.1577C199.459 92.4598 198.058 93.1161 196.407 93.1161Z" fill="#F08F3A"/>
<path d="M221.616 92.6786C219.71 92.2931 218.017 91.5327 216.533 90.4077C215.043 89.2723 213.835 87.8817 212.908 86.2411C211.975 84.59 211.387 82.7931 211.137 80.8452C210.897 78.8869 211.08 76.9286 211.679 74.9702C212.304 72.9286 213.267 71.1733 214.574 69.6994C215.876 68.2306 217.387 67.0483 219.095 66.1577C220.804 65.2567 222.585 64.6577 224.449 64.3661C226.309 64.0744 228.116 64.0952 229.866 64.4286C231.616 64.7515 233.179 65.3973 234.554 66.3661C235.939 67.3244 237.022 68.6161 237.804 70.2411C238.58 71.8556 238.908 73.8036 238.783 76.0952C238.725 77.0692 238.304 77.9233 237.512 78.6577C236.72 79.3817 235.699 80.0015 234.449 80.5119C233.21 81.0119 231.85 81.3973 230.366 81.6577C228.876 81.9233 227.387 82.0952 225.887 82.1786C224.387 82.2515 223.022 82.2411 221.804 82.1577C222.356 83.7567 223.106 84.814 224.054 85.3244C225.012 85.8244 226.106 85.9702 227.345 85.7619C228.58 85.5536 229.866 85.1681 231.199 84.5952C232.335 84.0119 233.267 83.7983 233.991 83.9494C234.71 84.09 235.449 84.6786 236.199 85.7202C236.699 86.3765 236.913 87.1161 236.845 87.9494C236.772 88.7827 236.413 89.5015 235.762 90.0952C234.929 90.8608 233.908 91.465 232.699 91.9077C231.491 92.3556 230.225 92.6629 228.908 92.8452C227.585 93.0223 226.288 93.0952 225.012 93.0536C223.731 93.0119 222.6 92.8869 221.616 92.6786ZM221.804 76.6786C221.804 76.6786 222.137 76.6942 222.804 76.7202C223.47 76.7515 224.293 76.7619 225.283 76.7619C226.283 76.7619 227.288 76.715 228.304 76.6161C229.314 76.5067 230.158 76.3192 230.824 76.0536C231.491 75.7775 231.824 75.3869 231.824 74.8869C231.824 73.9442 231.491 73.2202 230.824 72.7202C230.158 72.2098 229.324 71.9077 228.324 71.8244C227.335 71.7306 226.335 71.8452 225.324 72.1786C224.309 72.5015 223.47 73.0431 222.804 73.8036C222.137 74.5536 221.804 75.5119 221.804 76.6786Z" fill="#F08F3A"/>
<path d="M245.904 92.8869C244.888 92.7462 244.081 92.491 243.487 92.116C242.904 91.741 242.534 91.1733 242.383 90.4077C242.3 89.7827 242.227 88.8973 242.175 87.741C242.133 86.5744 242.081 85.0015 242.029 83.0119C241.972 81.0119 241.867 78.5015 241.716 75.4702C241.659 74.0952 241.591 72.9181 241.508 71.9285C241.435 70.9285 241.451 70.0744 241.55 69.366C241.659 68.6473 241.951 68.0327 242.425 67.5327C242.867 67.064 243.55 66.7202 244.466 66.5119C245.393 66.3035 246.352 66.215 247.341 66.241C248.341 66.2723 249.227 66.4285 250.008 66.7202C250.784 67.0015 251.227 67.4025 251.341 67.9285C251.883 67.5119 252.341 67.1942 252.716 66.9702C253.102 66.7515 253.534 66.5952 254.008 66.5119C254.492 66.4181 255.102 66.366 255.841 66.366C257.091 66.366 258.305 66.741 259.487 67.491C260.68 68.2306 261.716 69.2202 262.591 70.4702C263.477 71.7202 264.076 73.1108 264.383 74.6369C264.701 76.1681 264.591 77.7098 264.05 79.2619C263.893 79.7098 263.508 80.0483 262.883 80.2827C262.258 80.5223 261.571 80.6473 260.821 80.6577C260.081 80.6733 259.435 80.564 258.883 80.3244C258.341 80.09 258.055 79.7202 258.029 79.2202L257.446 76.8869C257.331 76.4181 257.123 76.0483 256.821 75.7827C256.68 75.6317 256.487 75.5275 256.237 75.4702C255.998 75.4181 255.748 75.3869 255.487 75.3869H255.362C254.263 75.4181 253.498 76.0275 253.071 77.2202C252.638 78.4025 252.466 80.314 252.55 82.9494C252.602 85.064 252.597 86.6369 252.529 87.6785C252.456 88.7202 252.3 89.5431 252.05 90.1369C251.675 91.2358 250.888 92.0223 249.696 92.491C248.498 92.9598 247.237 93.0952 245.904 92.8869Z" fill="#F08F3A"/>
<path d="M272.471 100.929C271.789 100.439 271.096 99.8244 270.388 99.0744C269.69 98.3348 269.106 97.5431 268.638 96.6994C268.164 95.8504 267.929 95.0588 267.929 94.3244C267.955 93.6421 268.221 92.9494 268.721 92.2411C269.221 91.5223 269.872 90.965 270.679 90.5744C271.664 90.1056 272.481 89.9702 273.138 90.1786C273.789 90.3869 274.356 90.7827 274.846 91.3661C275.346 91.939 275.815 92.5431 276.263 93.1994C276.705 93.7671 277.138 93.939 277.554 93.7202C277.971 93.4963 278.309 93.189 278.575 92.8036C278.96 92.2098 279.294 91.3973 279.575 90.3661C279.851 89.3244 279.919 88.1161 279.783 86.7411C279.294 87.1317 278.752 87.4233 278.158 87.6161C277.575 87.814 277.044 87.9077 276.575 87.9077C274.044 87.9077 272.002 87.3035 270.45 86.0952C268.908 84.8869 267.96 83.0952 267.617 80.7202C267.309 78.7931 267.148 77.0431 267.138 75.4702C267.122 73.8869 267.247 72.2098 267.513 70.4286C267.664 69.3869 268.039 68.5431 268.638 67.8869C269.231 67.2358 270.044 66.9077 271.075 66.9077C271.877 66.9077 272.669 66.9442 273.45 67.0119C274.226 67.0692 274.908 67.241 275.492 67.5327C276.085 67.8244 276.539 68.314 276.846 68.9911C277.164 69.6577 277.263 70.6108 277.138 71.8452C277.106 72.1525 277.059 72.6265 276.992 73.2619C276.919 73.9025 276.851 74.5431 276.783 75.1786C276.726 75.8192 276.684 76.2983 276.658 76.6161C276.627 77.7306 276.747 78.7202 277.013 79.5952C277.273 80.4702 277.752 80.9077 278.45 80.9077C279.158 80.9077 279.565 80.59 279.679 79.9494C279.804 79.314 279.94 78.3556 280.096 77.0744C280.231 75.8556 280.309 74.5952 280.325 73.3036C280.351 72.0119 280.377 71.0536 280.408 70.4286C280.46 69.3608 280.763 68.5431 281.304 67.9702C281.856 67.3869 282.45 67.0952 283.075 67.0952C284.533 67.0952 285.898 67.2619 287.179 67.5952C288.455 67.9181 289.304 68.59 289.721 69.6161C290.372 71.0483 290.533 74.1265 290.2 78.8452C290.033 81.7931 289.851 84.465 289.658 86.8661C289.46 89.2567 289.158 91.3765 288.742 93.2202C288.325 95.0796 287.684 96.6629 286.825 97.9702C285.752 99.6056 284.388 100.814 282.721 101.595C281.054 102.387 279.309 102.725 277.492 102.616C275.684 102.517 274.013 101.955 272.471 100.929Z" fill="#F08F3A"/>
<path d="M309.779 94.6786C308.164 94.6786 306.602 94.4806 305.091 94.0952C303.576 93.7046 302.206 93.0015 300.987 91.9911C299.763 90.965 298.784 89.5067 298.05 87.6161C297.326 85.7306 296.935 83.2983 296.883 80.3244C296.883 79.6733 296.888 78.9181 296.904 78.0536C296.914 77.1942 296.935 76.215 296.966 75.1161H296.925C295.883 75.1161 295.034 74.8348 294.383 74.2619C293.492 73.4858 293.05 72.5067 293.05 71.3244C293.05 70.314 293.362 69.5223 293.987 68.9494C294.737 68.2723 295.685 67.9286 296.841 67.9286H297.237C297.263 67.3765 297.289 66.7931 297.321 66.1786C297.362 65.5692 297.393 64.939 297.425 64.2827C297.451 63.7723 297.451 63.2775 297.425 62.8036C297.393 62.3348 297.425 61.8869 297.508 61.4702C297.659 60.8452 297.951 60.34 298.383 59.9494C298.81 59.564 299.31 59.2983 299.883 59.1577C300.492 58.9806 301.237 58.8556 302.112 58.7827C302.998 58.6994 303.826 58.7619 304.591 58.9702C305.367 59.1786 305.925 59.5952 306.258 60.2202C306.518 60.7202 306.638 61.4494 306.612 62.4077C306.581 63.3556 306.534 64.5015 306.466 65.8452C306.435 66.1942 306.425 66.5483 306.425 66.9077C306.425 67.2723 306.409 67.6109 306.383 67.9286H307.175C308.492 67.9286 309.477 68.3036 310.133 69.0536C310.784 69.7931 311.112 70.6056 311.112 71.4911C311.112 71.9077 311.05 72.314 310.925 72.6994C310.685 73.5067 310.373 74.0536 309.987 74.3452C309.571 74.7358 309.081 74.9442 308.529 74.9702C307.956 75.0692 307.347 75.1161 306.696 75.1161H306.154C306.097 77.7306 306.138 79.9077 306.279 81.6577C306.43 83.4077 306.826 84.7358 307.466 85.6369C308.102 86.5275 309.097 86.9702 310.446 86.9702C310.946 86.9702 311.347 87.2358 311.654 87.7619C311.972 88.2775 312.164 88.9181 312.237 89.6786C312.321 90.4286 312.284 91.1942 312.133 91.9702C311.977 92.7306 311.701 93.3713 311.3 93.8869C310.893 94.4129 310.388 94.6786 309.779 94.6786Z" fill="#F08F3A"/>
<path d="M318.993 95.1786C317.977 94.9702 317.18 94.6786 316.597 94.3036C316.024 93.9286 315.68 93.3348 315.555 92.5327C315.472 91.9077 315.399 91.0223 315.347 89.8661C315.305 88.6994 315.29 87.1265 315.305 85.1369C315.316 83.1525 315.347 80.6369 315.389 77.5952C315.347 75.7931 315.269 73.965 315.159 72.1161C315.06 70.2567 314.998 68.4181 314.972 66.5952C314.941 64.8192 314.956 63.3036 315.014 62.0536C315.081 60.8036 315.352 59.9442 315.826 59.4702C316.295 58.9859 316.956 58.6577 317.805 58.4911C318.649 58.314 319.524 58.2359 320.43 58.2619C321.347 58.2931 322.128 58.4234 322.784 58.6577C323.378 58.8661 323.899 59.2306 324.347 59.7411C324.79 60.2411 325.102 60.9234 325.284 61.7827C325.394 62.3556 325.43 62.9494 325.389 63.5744C325.347 64.189 325.336 64.8244 325.368 65.4911C325.42 66.59 325.461 67.6473 325.493 68.6577C325.519 69.6577 325.555 70.6265 325.597 71.5536C326.18 71.2202 326.857 70.9858 327.639 70.8452C328.415 70.6942 329.144 70.6161 329.826 70.6161C332.769 70.6161 335.055 71.7411 336.68 73.9911C337.722 75.4494 338.493 77.4025 338.993 79.8452C339.503 82.2775 339.764 84.9494 339.764 87.8661C339.764 89.1056 339.706 90.1317 339.597 90.9494C339.498 91.7723 339.123 92.4754 338.472 93.0744C337.79 93.7254 336.93 94.0536 335.889 94.0536C334.847 94.0536 333.972 93.6369 333.264 92.8036C332.873 92.3609 332.607 91.9286 332.472 91.5119C332.347 91.0952 332.29 90.6109 332.305 90.0536C332.316 89.4859 332.326 88.7723 332.326 87.9077C332.326 86.8661 332.29 85.8556 332.222 84.8661C332.165 83.8661 332.06 82.7723 331.909 81.5744C331.795 80.3817 331.545 79.4911 331.159 78.9077C330.769 78.314 330.326 78.0119 329.826 78.0119C328.727 78.0119 327.805 78.5952 327.055 79.7619C326.316 80.9181 325.951 82.814 325.951 85.4494C325.951 87.564 325.889 89.1369 325.764 90.1786C325.649 91.2202 325.472 92.0431 325.222 92.6369C324.805 93.7306 323.982 94.4963 322.764 94.9286C321.555 95.3556 320.295 95.439 318.993 95.1786Z" fill="#F08F3A"/>
<path d="M346.259 95.2619C345.311 95.1056 344.561 94.8765 344.009 94.5744C343.467 94.2827 343.134 93.8244 343.009 93.1994C342.952 92.6994 342.894 91.991 342.842 91.0744C342.801 90.1473 342.78 88.8869 342.78 87.3036C342.78 85.7098 342.79 83.7098 342.822 81.3036C342.822 79.8765 342.759 78.4285 342.634 76.9702C342.519 75.5015 342.452 74.0327 342.426 72.5744C342.426 71.1473 342.447 69.939 342.488 68.9494C342.54 67.9494 342.806 67.2567 343.28 66.8661C343.749 66.5067 344.374 66.2567 345.155 66.1161C345.947 65.965 346.769 65.9025 347.634 65.9286C348.509 65.9598 349.259 66.064 349.884 66.2411C350.436 66.3973 350.936 66.6785 351.384 67.0952C351.827 67.5015 352.113 68.0483 352.238 68.7411C352.322 69.189 352.348 69.6681 352.322 70.1786C352.29 70.6786 352.29 71.1786 352.322 71.6786C352.447 75.7775 352.551 79.1317 352.634 81.7411C352.728 84.34 352.785 86.3973 352.801 87.9077C352.811 89.4233 352.769 90.5744 352.676 91.3661C352.592 92.1473 352.431 92.7723 352.197 93.2619C351.806 94.1213 351.035 94.7202 349.884 95.0536C348.743 95.3973 347.535 95.4702 346.259 95.2619ZM342.509 61.0327C342.509 59.8973 342.947 59.0067 343.822 58.366C344.707 57.7306 345.926 57.4077 347.467 57.4077C348.952 57.4077 350.144 57.7202 351.051 58.3452C351.952 58.9702 352.405 59.866 352.405 61.0327C352.405 62.1317 351.978 63.0067 351.134 63.6577C350.301 64.314 349.077 64.6369 347.467 64.6369C345.827 64.6369 344.592 64.2983 343.759 63.616C342.926 62.9233 342.509 62.064 342.509 61.0327Z" fill="#F08F3A"/>
<path d="M359.191 92.6369C358.175 92.4286 357.378 92.1369 356.795 91.7619C356.222 91.3869 355.878 90.7983 355.753 89.9911C355.67 89.3661 355.628 88.4806 355.628 87.3244C355.628 86.1577 355.634 84.5848 355.649 82.5952C355.66 80.6108 355.634 78.1056 355.566 75.0744C355.566 73.6994 355.535 72.5223 355.483 71.5327C355.425 70.5327 355.462 69.6785 355.587 68.9702C355.722 68.2515 356.05 67.6525 356.566 67.1786C357.035 66.7358 357.733 66.4181 358.649 66.2202C359.566 66.0275 360.53 65.9702 361.545 66.0536C362.556 66.1265 363.431 66.3192 364.17 66.6369C364.92 66.9442 365.347 67.3608 365.462 67.8869C366.003 67.5015 366.472 67.1994 366.878 66.9911C367.28 66.7827 367.717 66.6473 368.191 66.5744C368.66 66.5067 369.274 66.4702 370.024 66.4702C370.993 66.4702 372.014 66.5848 373.087 66.8036C374.155 67.0275 375.149 67.465 376.066 68.1161C376.993 68.7723 377.733 69.7515 378.274 71.0536C378.951 72.6681 379.405 74.7202 379.628 77.2202C379.847 79.7098 379.962 82.4077 379.962 85.3244C379.962 86.5744 379.905 87.6108 379.795 88.4286C379.696 89.2358 379.321 89.939 378.67 90.5327C378.222 90.9494 377.613 91.241 376.837 91.4077C376.056 91.564 375.28 91.5536 374.503 91.3869C373.738 91.2098 373.118 90.8348 372.649 90.2619C372.259 89.8192 371.993 89.3869 371.858 88.9702C371.733 88.5535 371.675 88.0692 371.691 87.5119C371.701 86.9442 371.712 86.2306 371.712 85.3661C371.712 84.3244 371.675 83.314 371.608 82.3244C371.55 81.3244 371.451 80.2306 371.316 79.0327C371.191 77.84 370.931 76.9494 370.545 76.3661C370.17 75.7723 369.722 75.4702 369.212 75.4702C368.113 75.4702 367.326 76.0535 366.858 77.2202C366.384 78.3765 366.149 80.2723 366.149 82.9077C366.149 85.0223 366.087 86.5952 365.962 87.6369C365.837 88.6786 365.655 89.5015 365.42 90.0952C364.972 91.1942 364.149 91.9598 362.941 92.3869C361.743 92.814 360.493 92.8973 359.191 92.6369Z" fill="#F08F3A"/>
<path d="M387.705 99.5327C386.924 98.1994 386.523 97.0431 386.497 96.0744C386.465 95.116 386.663 94.314 387.08 93.6785C387.497 93.0379 387.997 92.564 388.58 92.2619C389.163 91.9442 389.674 91.7567 390.122 91.6994C390.747 91.6056 391.252 91.7098 391.643 92.0119C392.044 92.3035 392.377 92.6681 392.643 93.116C392.919 93.5588 393.205 93.9702 393.497 94.3452C393.799 94.7202 394.163 94.9494 394.58 95.0327C394.997 95.1265 395.528 94.9494 396.184 94.491C396.861 94.0431 397.445 93.4181 397.934 92.616C398.419 91.8244 398.663 90.8608 398.663 89.7202C398.663 89.4858 398.559 89.366 398.351 89.366C397.736 89.366 397.163 89.4077 396.622 89.491C396.09 89.564 395.439 89.6108 394.663 89.6369C393.882 89.6681 392.84 89.6525 391.538 89.5952C391.038 89.5692 390.361 89.4025 389.518 89.0952C388.669 88.7775 387.788 88.314 386.872 87.6994C385.965 87.09 385.148 86.3348 384.413 85.4285C383.689 84.5275 383.163 83.4494 382.83 82.1994C382.507 80.9494 382.528 79.5431 382.893 77.9702C383.309 76.0952 383.872 74.3608 384.58 72.7619C385.299 71.1525 386.247 69.814 387.413 68.741C388.59 67.6733 390.049 66.965 391.788 66.616C393.523 66.2723 395.611 66.4077 398.059 67.0327C398.226 66.241 398.695 65.6473 399.476 65.241C400.252 64.84 401.132 64.616 402.122 64.5744C403.122 64.5223 404.059 64.6525 404.934 64.9702C405.809 65.2775 406.439 65.741 406.83 66.366C407.09 66.7827 407.372 67.3035 407.663 67.9285C407.965 68.5535 408.247 69.3869 408.497 70.4285C408.747 71.4702 408.939 72.8244 409.08 74.491C409.215 76.1577 409.252 78.2515 409.184 80.7619C409.127 83.2619 408.919 86.2983 408.559 89.866C408.236 92.7098 407.58 95.0327 406.58 96.8244C405.59 98.6265 404.403 99.9963 403.018 100.929C401.643 101.871 400.174 102.46 398.622 102.699C397.08 102.934 395.58 102.929 394.122 102.679C392.663 102.429 391.372 102.012 390.247 101.429C389.122 100.845 388.273 100.21 387.705 99.5327ZM393.288 75.116C392.538 75.3556 391.96 75.8192 391.559 76.5119C391.153 77.2098 390.955 77.965 390.955 78.7827C390.955 79.6056 391.174 80.3244 391.622 80.9494C392.064 81.5744 392.768 81.965 393.726 82.116C395.445 82.3556 396.736 82.3556 397.601 82.116C398.46 81.866 398.861 81.465 398.809 80.9077L398.455 75.5952C398.424 75.0015 397.893 74.6577 396.851 74.5744C395.809 74.491 394.622 74.6733 393.288 75.116Z" fill="#F08F3A"/>
<path d="M412.604 60.7188C413.406 61.1303 414.214 61.5417 415.026 61.9584C418.25 56.0782 419.187 49.1928 417.802 42.5625C414.766 25.1563 394.745 15.25 378.708 20.8438C367.917 24.6823 361.427 31.974 357.401 41.5834C375.88 44.6355 395.406 51.8803 412.604 60.7188ZM322.771 40.3386C332.849 39.0886 345.516 39.5313 357.271 41.5625C363.604 20.6823 389.583 10.9167 407.786 24.724C419.167 32.9063 422.932 50.2032 415.922 62.448C430.568 69.849 442.953 81.3386 451.979 93.2136C452.724 94.2084 452.677 94.2448 451.849 93.3178C442.271 81.9844 430.13 70.5678 415.458 63.3282V63.3334C389.062 49.1771 355.922 38.7657 327.062 40.3386C325.901 40.3282 318.307 40.9219 322.771 40.3386Z" fill="#F08F3A"/>
<path d="M439.599 68.8021C439.724 69.6511 421.729 59.2865 422.526 58.9688C422.422 58.1302 440.38 68.4792 439.599 68.8021Z" fill="#F08F3A"/>
<path d="M436.813 50.8229C426.558 49.599 426.688 48.5156 436.938 49.7708C447.193 50.9948 447.063 52.0781 436.813 50.8229Z" fill="#F08F3A"/>
<path d="M429.594 35.1823C421.698 36.9271 421.485 35.8594 429.381 34.1459C437.297 32.4636 437.5 33.5365 429.594 35.1823Z" fill="#F08F3A"/>
<path d="M416.057 23.9844C415.396 23.7344 421.849 16.4271 422.245 17.0157C422.906 17.2657 416.458 24.573 416.057 23.9844Z" fill="#F08F3A"/>
<path d="M400.313 14.3073C399.599 14.2605 401.948 6.76567 402.521 7.26046C403.235 7.30734 400.881 14.8021 400.313 14.3073Z" fill="#F08F3A"/>
<path d="M381.13 5.24484C380.026 -0.781202 381.016 -1.08328 382.162 5.01046C383.563 10.8855 382.516 11.1511 381.13 5.24484Z" fill="#F08F3A"/>
<path d="M363.24 10.573C356.917 4.52088 357.678 3.75005 363.99 9.82817C370.016 16.1719 369.219 16.9219 363.24 10.573Z" fill="#F08F3A"/>
<path d="M360.151 28.0261C360.318 28.6094 345.032 19.8854 345.62 19.7292C345.698 18.7136 360.99 27.4375 360.151 28.0261Z" fill="#F08F3A"/>
<path d="M351.714 36.2084C351.855 36.9532 338.047 32.8386 338.573 32.2917C338.433 31.5469 352.24 35.6615 351.714 36.2084Z" fill="#F08F3A"/>
<path d="M378.703 20.8438C394.745 15.25 414.766 25.1563 417.802 42.5625C419.187 49.1928 418.25 56.0782 415.026 61.9584C414.208 61.5417 413.406 61.1303 412.604 60.7188C395.406 51.8803 375.88 44.6355 357.401 41.5834C361.427 31.974 367.917 24.6823 378.703 20.8438Z" fill="#F08F3A"/>
</svg>
