<svg fill="none" height="24" viewBox="0 0 24 24" width="24" xmlns="http://www.w3.org/2000/svg"><g fill="rgb(0,0,0)"><path d="m11.2498 2c-4.21835.00411-6.40092.07958-7.78557 1.46423s-1.46012 3.56722-1.46423 7.78557h4.91352c-.35097-.4384-.61321-.9555-.75621-1.52752-.53825-2.15302 1.41195-4.10322 3.56497-3.56497.57202.143 1.08912.40524 1.52752.75621z"/><path d="m2 12.7498c.00411 4.2183.07958 6.4008 1.46423 7.7855 1.38465 1.3846 3.56722 1.4601 7.78557 1.4642v-7.8761c-.7797 1.5573-2.39 2.6264-4.25004 2.6264-.41421 0-.75-.3358-.75-.75s.33579-.75.75-.75c1.53679 0 2.82446-1.0667 3.16304-2.5z"/><path d="m12.7498 21.9995c4.2183-.0041 6.4008-.0796 7.7855-1.4642 1.3846-1.3847 1.4601-3.5672 1.4642-7.7855h-8.1628c.3386 1.4333 1.6263 2.5 3.1631 2.5.4142 0 .75.3358.75.75s-.3358.75-.75.75c-1.8601 0-3.4704-1.0691-4.25-2.6264z"/><path d="m21.9995 11.2498c-.0041-4.21835-.0796-6.40092-1.4642-7.78557-1.3847-1.38465-3.5672-1.46012-7.7855-1.46423v4.91352c.4384-.35097.9555-.61321 1.5274-.75621 2.1531-.53825 4.1033 1.41195 3.565 3.56497-.143.57202-.4052 1.08912-.7562 1.52752z"/><path d="m9.35847 7.61252c1.11153.27788 1.89133 1.27659 1.89133 2.42228v1.215h-1.215c-1.14569 0-2.1444-.7798-2.42228-1.89133-.26361-1.05444.69151-2.00956 1.74595-1.74595z"/><path d="m12.7498 10.0348v1.215h1.2149c1.1457 0 2.1444-.7798 2.4223-1.89133.2636-1.05444-.6915-2.00956-1.7459-1.74595-1.1116.27788-1.8913 1.27659-1.8913 2.42228z"/></g></svg>