<svg id="Layer_1" enable-background="new 0 0 73 73" height="512" viewBox="0 0 73 73" width="512" xmlns="http://www.w3.org/2000/svg"><g id="_x31_52"><path d="m24.3148899 31.3108845c1.9892578-.5380859 3.3383789-2.7744141 2.8867188-4.7861328-.4526367-2.0097656-2.6328125-3.4570313-4.6567383-3.0898438-.1220703.0214844-.2314453.0722656-.3232422.1425781-.1147461-.015625-.234375-.0029297-.3505859.0400391-1.9355469.7089844-3.0859375 3.0527344-2.4619141 5.0166016.6213665 1.9583168 2.9085255 3.2172241 4.9057617 2.6767578zm-1.9282226-6.2851563c.0727539-.0263672.1391602-.0634766.1977539-.1083984.0732422.0087891.1489258.0078125.2250977-.0058594 1.2568359-.2216797 2.6489258.7021484 2.9282227 1.9423828.2792969 1.2431641-.5859375 2.6767578-1.8144531 3.0097656-1.2304688.328125-2.699707-.4707031-3.0844727-1.6835938-.3857423-1.2128905.352539-2.7158202 1.5478515-3.1542968z"/><path d="m32.7841301 28.280611c3.1659279.0559311 17.9461784.3144531 17.8041992.3144531.4077148 0 .7421875-.3271484.7495117-.7363281.0073242-.4150391-.3227539-.7558594-.7368164-.7636719l-17.7905273-.3144531c-.0043945 0-.0087891 0-.0136719 0-.4077148 0-.7421875.3271484-.7495117.7363281-.0073242.4140626.3227539.7558594.7368164.7636719z"/><path d="m24.0897923 43.695652c1.9897461-.5380859 3.3383789-2.7744141 2.8862305-4.7851563-.4516602-2.0117188-2.6279297-3.453125-4.6567383-3.0908203-.121582.0224609-.230957.0722656-.3227539.1425781-.1162109-.015625-.2338867-.0029297-.3500977.0400391-1.9360352.7070313-3.0864258 3.0517578-2.4628906 5.0175781.61977 1.9503136 2.9022083 3.2180863 4.90625 2.6757813zm-1.928711-6.2851562c.0732422-.0263672.1396484-.0634766.1982422-.1083984.074707.0107422.1494141.0078125.2255859-.0058594 1.2539063-.2333984 2.6484375.7011719 2.9272461 1.9433594.2797852 1.2421875-.5849609 2.6757813-1.8139648 3.0087891-1.2304688.3300781-2.699707-.4707031-3.0849609-1.6826172-.385254-1.2138673.352539-2.7177735 1.5478515-3.1552735z"/><path d="m32.5585442 40.6653786 17.7910156.3144531h.0136719c.4077148 0 .7421875-.3271484.7495117-.7363281.0073242-.4150391-.3227539-.7558594-.7368164-.7636719l-17.7910156-.3144531c-.0043945 0-.0087891 0-.0136719 0-.4077148 0-.7421894.3271484-.7495136.7363281-.0073243.4150391.3227558.7558594.7368183.7636719z"/><path d="m24.0897923 55.6292458c1.9897461-.5380859 3.3383789-2.7744141 2.8862305-4.7841797-.4521484-2.0117188-2.6318359-3.4580078-4.65625-3.0917969-.1220703.0214844-.2314453.0722656-.3232422.1425781-.1152344-.015625-.234375-.0019531-.3505859.0400391-1.9350586.7089844-3.0859375 3.0527344-2.4624023 5.0175781.6302622 1.9826584 2.9409941 3.2128677 4.9062499 2.6757813zm-1.9282227-6.2851563c.0727539-.0263672.1391602-.0634766.1977539-.1083984.0732422.0097656.1494141.0068359.2250977-.0058594 1.2597656-.2207031 2.6489258.7011719 2.9277344 1.9443359.2797852 1.2412109-.5849609 2.6748047-1.8144531 3.0078125-1.2285156.3271484-2.6987305-.4697266-3.0844727-1.6826172-.385254-1.2138671.3530273-2.7167968 1.5483398-3.1552734z"/><path d="m32.5585442 52.5989723 17.7910156.3154297h.0136719c.4077148 0 .7421875-.3271484.7495117-.7363281.0073242-.4140625-.3227539-.7558594-.7368164-.7636719l-17.7910156-.3154297c-.3759766-.0205078-.7558613.3222656-.7631855.7363281s.3227558.7558594.7368183.7636719z"/><path d="m52.0434074 4.6751428-1.6103516 5.804687c-.1324463.4761009.2255707.9501953.7231445.9501953.3286133 0 .6298828-.2177734.722168-.5498047l1.6103516-5.804687c.1108398-.3984375-.1230469-.8125-.5219727-.9228516-.4018554-.1113281-.8129882.1230469-.9233398.522461z"/><path d="m62.2470207 7.5345178c-.2905273-.2949219-.7651367-.296875-1.0605469-.0078125-1.7143555 1.6894526-3.1123047 3.6464839-4.1547852 5.8164058-.1791992.3740234-.0219727.8222656.3515625 1.0009766.3640404.176919.818119.0289259 1.0009766-.3505859.9672852-2.0146484 2.2641602-3.8310547 3.8549805-5.3984375.2949219-.2910158.2983399-.7656247.0078125-1.0605465z"/><path d="m63.0619621 17.2190876c1.9682579-.3876953 3.8149376-1.2822266 5.3408165-2.5859375.3149414-.2695313.3520508-.7421875.0830078-1.0576172s-.7412109-.3525391-1.0576172-.0830078c-1.3300781 1.1367188-2.9404297 1.9169922-4.6562462 2.2558594-.4067383.0800781-.6708984.4746094-.5908203.8808594.0801812.4076023.4769059.6706352.8808594.5898437z"/><path d="m10.1170139 59.6659889c5.2758789 6.2817955 13.8647461 8.8633385 22.0621967 9.1769371 6.446228.2466431 13.2717285-.901001 18.5617676-4.4060669 7.4726219-3.5392342 12.6722183-9.5663567 14.9415855-16.0849571 2.777832-7.9804688 1.3203125-17.4013691-3.8027306-24.5849628-8.1177367-11.3815918-24.3035887-16.0926509-37.0992449-11.1625367-4.7312012 1.0548706-12.4534302 6.2438355-15.5935669 11.1761475-6.504746 10.2174435-6.7369545 26.7566547.9299926 35.8854389zm4.1900635-37.668581c11.8963661-14.8221879 35.8794079-12.0438661 46.3510761 2.640625 4.8456993 6.7939453 6.2280235 15.6923847 3.6074181 23.2216816-2.19104 6.2943153-7.305069 12.1969681-14.9443932 15.5636597-2.4262695.8611412-4.8832397 1.6484337-7.3626099 2.2454796-8.1857567 1.4989243-19.0312557.3526917-25.4908466-5.1392174-9.4560837-8.0423241-11.7266407-26.6177597-2.1606445-38.5322285z"/></g></svg>